<svg width="1920" height="918" viewBox="0 0 1920 918" fill="none" xmlns="http://www.w3.org/2000/svg">
<g opacity="0.4">
<g clip-path="url(#clip0)">
<path d="M1190.03 1028.04C1201.27 1028.04 1212.54 1027.61 1223.77 1026.67C1297.86 1020.64 1371.2 994.343 1441.77 948.936C1518.09 899.793 1592.07 827.372 1661.53 733.684C1680.99 707.461 1700.52 679.045 1719.4 651.528C1759.42 593.225 1800.81 532.982 1843.71 490.88C1892.06 443.497 1941.96 420.83 1987.87 425.356C2024.38 428.948 2056.9 450.215 2081.92 486.821C2113.01 532.335 2133.83 600.41 2153.96 666.437C2166.85 708.574 2180.2 752.185 2196.14 789.689C2218.33 841.849 2247.12 881.867 2281.61 908.558C2313.54 933.72 2353.05 947.297 2393.68 947.068C2430.01 947.068 2468.42 936.973 2507.76 917.144C2547.1 897.314 2586.73 867.929 2625.54 829.994C2707.02 750.173 2780.76 636.009 2838.76 499.502C2893.47 370.897 2935.9 226.486 2976.93 86.7091C3013.8 -38.6626 3051.85 -168.345 3098.66 -286.532C3135.45 -379.322 3183.91 -466.148 3235.06 -530.809C3288.05 -597.842 3339.81 -635.382 3380.84 -636.459H3382.74C3412.54 -636.459 3436.3 -617.564 3453.42 -580.311L3454.43 -580.778C3437.09 -618.462 3413 -637.537 3382.64 -637.537H3380.7C3339.38 -636.423 3287.37 -598.776 3234.1 -531.492C3182.87 -466.83 3134.34 -379.86 3097.51 -286.963C3050.66 -168.848 3012.61 -39.3092 2975.82 85.9906C2934.79 225.66 2892.32 370.107 2837.69 498.639C2779.71 635.147 2706.05 749.203 2624.68 828.917C2586.05 866.78 2546.49 896.021 2507.19 915.851C2467.88 935.68 2429.76 945.667 2393.57 945.667C2353.22 945.87 2313.99 932.37 2282.29 907.373C2247.91 880.79 2219.26 840.951 2197.15 788.826C2181.21 751.395 2167.89 707.82 2155 665.682C2134.83 599.763 2113.97 531.617 2082.78 486.066C2057.65 449.173 2024.81 427.763 1987.98 424.135C1941.71 419.573 1891.56 442.348 1842.95 489.982C1799.88 532.12 1758.56 592.435 1718.5 650.774C1699.62 678.291 1680.09 706.706 1660.67 732.894C1591.18 826.618 1517.37 898.931 1441.31 948.038C1370.91 993.48 1297.72 1019.56 1223.84 1025.6C1084.21 1037.02 942.558 977.243 814.119 852.805C719.316 760.986 631.656 643.481 546.869 529.821C426.543 368.598 302.161 201.843 155.594 106.646C79.3225 56.7114 -7.4939 25.1813 -98.0156 14.5394C-185.46 4.15771 -279.15 12.384 -376.466 38.9672C-470.695 64.6881 -569.304 107.868 -669.527 167.285C-767.346 225.3 -867.425 299.158 -967.003 386.847C-994.392 410.987 -1022.39 436.636 -1049.57 461.423C-1158.62 561.361 -1271.37 664.676 -1378.85 699.881C-1480.25 733.11 -1576.28 705.736 -1664.3 618.515C-1740.83 542.645 -1809.03 424.53 -1867.04 267.474C-1925.05 110.418 -1970.6 -71.4963 -2014.68 -247.448C-2051.59 -394.733 -2089.74 -546.903 -2134.97 -683.95C-2189.82 -849.986 -2253 -979.022 -2322.82 -1067.43C-2404.99 -1171.61 -2496.38 -1218.99 -2594.56 -1208.61V-1207.53C-2496.81 -1217.87 -2405.71 -1170.49 -2323.79 -1066.78C-2254.04 -978.447 -2190.97 -849.555 -2136.12 -683.626C-2090.43 -546.616 -2052.3 -394.302 -2015.55 -247.017C-1971.43 -70.9935 -1925.8 110.921 -1867.83 268.013C-1809.86 425.105 -1741.47 543.472 -1664.83 619.449C-1576.56 706.994 -1480.15 734.403 -1378.27 701.102C-1270.58 665.79 -1157.76 562.403 -1048.63 462.393C-1021.6 437.606 -993.602 412.101 -966.069 387.852C-866.564 300.2 -766.52 226.378 -668.773 168.398C-568.621 109.017 -470.121 65.9095 -376 40.1886C-278.792 13.6415 -185.245 5.45081 -97.9438 15.7966C-7.59009 26.4186 79.0659 57.8872 155.2 107.724C301.443 202.812 425.789 369.496 546.043 530.647C630.831 644.344 718.527 761.884 813.402 853.955C931.573 968.227 1061.27 1028.04 1190.03 1028.04Z" fill="url(#paint0_radial)"/>
<path d="M1210.02 1052.83C1220.51 1052.83 1231.02 1052.43 1241.51 1051.6C1315.74 1045.86 1389.33 1019.56 1460.3 973.471C1536.9 923.718 1611.35 850.183 1681.53 754.915C1701.13 728.368 1720.76 699.558 1739.75 671.717C1780.03 612.588 1821.81 551.482 1864.89 508.878C1913.35 460.848 1963.28 437.965 2009.12 442.707C2045.48 446.3 2077.83 467.854 2102.45 505.214C2133.22 551.447 2153.6 620.527 2173.35 687.344C2185.95 730.128 2199.01 774.385 2214.74 812.428C2236.53 865.271 2264.99 905.828 2299.09 932.95C2330.55 958.519 2369.85 972.472 2410.37 972.465H2411.34C2447.24 972.465 2485.47 962.407 2524.56 942.578C2563.65 922.748 2603.86 892.86 2642.8 854.458C2724.72 773.595 2799.1 657.599 2857.9 519.008C2913.21 388.607 2956.43 242.113 2998.18 100.468C3035.62 -26.5564 3074.36 -157.927 3121.77 -277.623C3159.11 -371.813 3207.93 -459.825 3259.55 -525.492C3312.89 -593.459 3364.83 -631.358 3405.79 -632.22C3436.3 -632.831 3460.42 -613.684 3477.58 -575.174L3478.55 -575.605C3461.18 -614.582 3436.7 -633.98 3405.72 -633.298C3364.44 -632.436 3312.39 -594.393 3258.54 -526.175C3206.96 -460.472 3158.03 -372.388 3120.63 -278.09C3073.21 -158.322 3034.47 -26.9515 2997 100.073C2955.25 241.718 2912.07 388.176 2856.79 518.505C2798.02 656.953 2723.75 772.841 2641.91 853.596C2603.07 891.962 2563.37 921.526 2523.95 941.536C2484.54 961.545 2447.06 971.316 2411.2 971.316H2410.23C2369.97 971.333 2330.93 957.48 2299.67 932.088C2265.6 905.074 2237.35 864.696 2215.63 812.033C2199.95 774.026 2186.92 729.805 2174.25 687.021C2154.5 620.132 2134.08 550.979 2103.24 504.603C2078.29 467.171 2045.81 445.402 2009.01 441.63C1962.81 436.924 1912.63 459.914 1863.81 508.195C1820.73 550.872 1778.95 612.013 1738.64 671.178C1719.65 699.019 1700.01 727.829 1680.45 754.34C1610.34 849.501 1535.97 922.964 1459.47 972.645C1388.68 1018.63 1315.27 1044.89 1241.22 1050.6C1102.37 1061.38 961.799 1000.31 834.832 874.575C740.711 781.175 653.877 661.91 569.914 546.489C450.773 382.716 327.54 213.338 181.979 116.561C106.32 65.8376 19.7778 33.6787 -70.6262 22.6943C-157.855 11.9174 -251.402 20.2515 -348.718 47.05C-442.911 73.0225 -541.555 116.669 -641.958 176.804C-739.92 235.503 -840.251 310.259 -940.116 399.097C-967.613 423.524 -995.684 449.389 -1022.68 474.535C-1132.09 575.731 -1245.24 680.375 -1352.71 715.938C-1454.16 749.527 -1549.86 721.578 -1637.16 632.956C-1713.08 555.865 -1780.49 435.918 -1837.5 276.491C-1894.5 117.064 -1938.94 -67.5447 -1981.95 -246.118C-2017.84 -395.523 -2055.1 -550.028 -2099.47 -689.122C-2153.32 -857.674 -2215.6 -988.649 -2284.77 -1078.46C-2366.18 -1184.14 -2457.07 -1232.46 -2555.18 -1222.15V-1221.07C-2457.5 -1231.38 -2366.9 -1183.21 -2285.74 -1077.85C-2216.64 -988.039 -2154.36 -857.278 -2100.62 -688.835C-2056.25 -549.777 -2019.06 -395.307 -1983.09 -245.903C-1940.02 -67.2932 -1895.61 117.352 -1838.61 276.814C-1781.61 436.277 -1714.01 556.512 -1637.88 633.71C-1550.22 722.656 -1454.16 750.676 -1352.28 716.98C-1244.59 681.344 -1131.37 576.593 -1022.03 475.326C-994.895 450.179 -966.823 424.279 -939.47 399.887C-839.641 311.121 -739.382 236.365 -641.527 177.738C-541.232 117.639 -442.66 74.0284 -348.574 48.0919C-251.402 21.3292 -157.999 13.1387 -70.9133 23.772C19.3257 34.7233 105.711 66.8217 181.225 117.459C326.643 214.129 449.804 383.291 568.909 547.1C652.907 662.557 739.742 781.965 833.899 875.329C951.891 991.9 1081.16 1052.83 1210.02 1052.83Z" fill="url(#paint1_radial)"/>
<path d="M1229.84 1077.61C1239.64 1077.61 1249.37 1077.25 1259.13 1076.54C1333.51 1071.08 1407.39 1044.67 1478.71 998.008C1555.71 947.715 1630.7 872.995 1701.56 776.146C1721.23 749.24 1741.04 720.07 1760.14 691.835C1800.67 631.951 1842.7 570.056 1885.78 526.876C1934.56 478.236 1984.57 455.03 2030.26 459.915C2066.56 463.759 2098.47 485.708 2123.13 523.427C2153.57 570.379 2173.38 640.501 2192.84 708.288C2205.23 751.719 2217.97 796.623 2233.48 835.24C2255.01 888.729 2282.87 929.826 2316.72 957.379C2347.73 983.279 2386.78 997.568 2427.17 997.792H2429.08C2464.79 997.792 2502.59 987.734 2541.43 967.904C2580.92 947.679 2620.98 917.612 2660.14 878.779C2742.49 796.838 2817.51 679.19 2877.07 538.515C2933.03 406.354 2976.97 257.848 3019.47 114.191C3057.56 -14.5933 3096.97 -147.76 3145.11 -269.109C3182.94 -364.7 3232.34 -453.969 3284.17 -520.57C3338.02 -589.435 3390 -627.729 3430.88 -628.34H3431.99C3461.75 -628.34 3485.3 -608.834 3501.96 -570.36L3502.96 -570.755C3485.88 -610.27 3461.61 -629.849 3430.85 -629.418C3389.64 -628.735 3337.26 -590.297 3283.35 -521.145C3231.4 -454.58 3181.97 -365.239 3144.1 -269.683C3096.07 -148.263 3056.69 -15.0963 3018.46 113.724C2976 257.417 2932.06 405.815 2876.1 537.94C2816.62 678.472 2741.67 796.012 2659.39 877.809C2620.33 916.678 2580.42 946.602 2540.93 966.755C2502.2 986.512 2464.58 996.535 2429.04 996.535H2427.14C2387.04 996.292 2348.27 982.107 2317.47 956.409C2283.77 928.963 2255.88 888.155 2234.52 834.701C2219.08 796.12 2206.3 751.252 2193.95 707.857C2174.64 639.962 2154.47 569.768 2124.1 522.709C2099.44 484.702 2067.06 462.574 2030.44 458.694C1984.32 453.808 1934.1 477.086 1885.1 525.978C1841.77 569.086 1799.81 631.161 1759.24 691.224C1740.11 719.46 1720.37 748.701 1700.7 775.5C1629.91 872.241 1555.03 946.817 1478.14 997.11C1406.99 1043.81 1333.29 1070.03 1259.17 1075.46C1121 1085.62 981.615 1023.58 856.048 896.166C762.716 801.364 676.564 680.196 593.499 562.979C475.507 396.69 353.494 224.726 208.723 126.297C133.673 74.8182 47.405 42.0546 -42.8772 30.7417C-129.891 19.7852 -223.294 27.9757 -320.574 55.0258C-414.731 81.2137 -513.483 125.327 -613.993 186.181C-712.135 245.526 -812.682 321.252 -912.869 411.167C-940.474 435.918 -968.617 462.214 -995.863 487.648C-1105.63 590.137 -1219.14 696.002 -1326.61 731.925C-1428.06 765.801 -1523.44 737.35 -1610.2 647.326C-1685.58 569.014 -1752.13 447.27 -1808.13 285.473C-1864.13 123.675 -1907.42 -63.6643 -1949.35 -244.861C-1984.39 -396.456 -2020.64 -553.225 -2064.22 -694.367C-2116.92 -865.396 -2178.41 -998.384 -2246.97 -1089.52C-2327.59 -1196.86 -2418.13 -1246 -2516.2 -1235.66V-1234.58C-2418.63 -1244.89 -2328.46 -1195.85 -2248.08 -1088.87C-2179.27 -997.809 -2117.85 -864.894 -2065.19 -694.007C-2021.68 -552.865 -1985.43 -396.097 -1950.32 -244.537C-1908.39 -63.3051 -1865.06 124.07 -1809.1 285.868C-1753.14 447.666 -1686.37 569.66 -1610.92 648.152C-1523.94 738.499 -1428.2 767.058 -1326.33 733.039C-1218.64 697.116 -1105.02 590.999 -995.18 488.438C-967.935 463.005 -939.792 436.745 -912.187 411.994C-812.035 322.186 -711.561 246.424 -613.491 187.079C-512.98 126.297 -414.408 82.2195 -320.323 56.0675C-223.186 29.0533 -130.07 20.8988 -43.0566 31.8193C47.1077 43.0889 133.267 75.7919 208.22 127.195C352.848 225.517 474.789 397.373 592.746 563.625C675.918 680.842 761.927 802.083 855.402 896.92C972.102 1015.57 1101.04 1077.61 1229.84 1077.61Z" fill="url(#paint2_radial)"/>
<path d="M1249.65 1102.36C1258.74 1102.36 1267.6 1102.08 1276.86 1101.43C1351.35 1096.29 1425.44 1069.75 1497.13 1022.4C1574.55 971.425 1650.08 895.663 1721.59 797.234C1741.37 770.147 1761.25 740.583 1780.53 712.132C1821.31 651.493 1863.52 588.771 1906.92 545.053C1955.89 495.587 2005.93 472.201 2051.55 477.194C2087.73 481.146 2119.75 503.454 2143.84 541.856C2173.96 589.526 2193.52 660.654 2212.4 729.447C2224.5 773.488 2236.99 819.039 2252.21 858.267C2273.25 912.403 2300.89 954.038 2334.42 982.058C2364.98 1008.3 2403.81 1022.93 2444.08 1023.37C2480.3 1023.94 2518.78 1013.85 2558.41 993.482C2598.04 973.113 2638.21 942.794 2677.55 903.35C2760.33 820.404 2836 701.103 2896.31 558.488C2952.88 424.531 2997.57 273.977 3040.83 128.38C3079.56 -2.16406 3119.8 -137.163 3168.22 -260.164C3206.56 -357.156 3256.42 -447.683 3308.62 -515.039C3362.68 -584.837 3414.94 -623.527 3455.79 -623.994H3456.55C3486.3 -623.994 3509.75 -604.164 3526.19 -565.08L3527.19 -565.475C3510.53 -604.99 3486.77 -625.071 3456.55 -625.071H3455.79C3414.65 -624.604 3362.1 -585.771 3307.83 -515.721C3255.6 -448.258 3205.66 -357.659 3167.29 -260.667C3118.69 -137.63 3078.63 -2.59521 3039.86 127.949C2996.78 273.51 2951.95 424.028 2895.37 557.949C2835.14 700.564 2759.54 819.757 2676.83 902.812C2637.6 942.147 2597.61 972.395 2558.02 992.619C2519.53 1012.38 2482.17 1022.4 2446.92 1022.4H2444.19C2404.11 1021.91 2365.49 1007.28 2335.13 981.088C2301.75 953.176 2274.11 911.685 2253.25 857.728C2238.07 818.572 2225.58 773.057 2213.48 729.016C2194.56 660.151 2175 588.915 2144.77 541.137C2120.4 502.592 2088.2 480.068 2051.69 476.116C2005.71 471.087 1955.42 494.581 1906.2 544.119C1862.73 587.909 1820.48 650.667 1779.67 711.377C1760.43 740.116 1740.54 769.537 1720.76 796.766C1649.33 895.088 1573.87 970.742 1496.59 1021.65C1425.04 1068.74 1351.13 1095.22 1276.79 1100.35C1139.31 1109.87 1001.03 1046.76 876.902 917.827C784.217 821.553 699.07 698.696 616.723 579.575C499.879 410.736 379.051 236.15 235.105 136.14C160.656 83.8944 74.6533 50.5012 -15.5254 38.8242C-102.288 27.6162 -195.583 35.7708 -292.828 63.0364C-386.985 89.4758 -485.772 134.057 -586.462 195.593C-684.748 255.656 -785.545 332.101 -886.056 423.345C-913.696 448.492 -941.983 475.039 -969.3 500.76C-1079.47 604.542 -1193.51 711.808 -1300.84 748.055C-1365.06 769.609 -1427.34 766.016 -1485.89 736.847C-1629.48 665.396 -1724.5 456.898 -1778.84 294.561C-1833.84 130.428 -1876.02 -59.6411 -1916.83 -243.424C-1950.97 -397.247 -1986.25 -556.278 -2028.9 -699.648C-2080.55 -873.156 -2141.18 -1008.08 -2209.06 -1100.66C-2288.97 -1209.61 -2379.04 -1259.62 -2476.89 -1249.24V-1248.19C-2379.5 -1258.5 -2289.76 -1208.68 -2210.11 -1100.05C-2142.26 -1007.54 -2081.7 -872.725 -2030.08 -699.324C-1987.44 -556.135 -1952.15 -397.139 -1918.01 -243.352C-1877.2 -59.4973 -1835.02 130.572 -1780.03 294.776C-1725.61 457.293 -1630.48 666.078 -1486.5 737.673C-1427.7 766.914 -1365.17 770.722 -1300.66 748.953C-1192.97 712.635 -1078.96 605.26 -968.726 501.406C-941.409 475.65 -913.158 449.066 -885.518 423.992C-785.007 332.999 -684.496 256.411 -586.067 196.383C-485.557 134.883 -386.769 90.3379 -292.72 63.9344C-195.799 36.7047 -102.467 28.5502 -15.8125 39.7582C74.1677 51.3545 159.99 84.6385 234.28 136.751C378.082 236.653 498.838 411.132 615.646 579.898C698.209 698.912 783.212 821.949 875.933 918.294C992.274 1039.25 1120.89 1102.36 1249.65 1102.36Z" fill="url(#paint3_radial)"/>
<path d="M1269.44 1127.15C1277.83 1127.15 1286.2 1126.9 1294.56 1126.32C1369.19 1121.48 1443.53 1094.82 1515.54 1047.08C1593.37 995.493 1669.43 918.618 1741.69 818.644C1761.61 791.019 1781.65 761.166 1800.99 732.105C1842.1 670.64 1884.56 607.128 1928.1 562.871C1977.17 512.974 2027.25 489.408 2072.77 494.437C2108.66 498.532 2140.54 521.2 2164.48 560.033C2194.31 608.385 2213.41 680.555 2231.9 750.425C2243.71 795.114 2255.95 841.311 2270.92 881.078C2291.56 935.897 2318.84 978.07 2352.04 1006.52C2382.13 1033.07 2420.67 1048.02 2460.77 1048.7H2464.36C2499.51 1048.7 2536.77 1038.64 2575.18 1018.77C2614.95 998.187 2655.19 967.545 2694.71 927.634C2777.96 843.61 2854.24 722.657 2915.3 577.815C2972.52 442.061 3017.96 289.496 3061.9 141.96C3101.39 9.65466 3142.06 -127.177 3191.13 -251.794C3229.97 -350.187 3280.3 -441.971 3332.81 -510.261C3387.23 -580.958 3439.64 -620.042 3480.35 -620.293H3480.74C3510.5 -620.293 3533.83 -600.141 3550.02 -560.445L3551.03 -560.841C3534.62 -601.003 3511 -621.371 3480.74 -621.371H3480.35C3439.28 -621.12 3386.59 -581.856 3331.99 -510.907C3279.4 -442.654 3229 -350.69 3190.16 -252.261C3140.95 -127.608 3100.17 9.22339 3060.93 141.564C3016.99 289.101 2971.58 441.63 2914.37 577.312C2853.34 722.046 2777.17 842.892 2694.03 926.772C2654.55 966.611 2614.45 997.217 2574.75 1017.73C2535.04 1038.24 2496.89 1048.16 2460.88 1047.51C2421.01 1046.83 2382.67 1031.98 2352.73 1005.62C2319.66 977.28 2292.49 935.214 2271.92 880.611C2256.99 840.88 2244.75 794.719 2232.94 750.066C2214.42 680.196 2195.28 607.954 2165.38 559.458C2141.29 520.338 2109.27 497.491 2072.88 493.395C2027 488.151 1976.64 511.968 1927.24 562.116C1883.59 606.445 1841.09 669.886 1799.99 731.494C1780.64 760.448 1760.5 790.408 1740.72 817.997C1668.64 917.899 1592.72 994.667 1515 1046.22C1443.21 1093.85 1368.94 1120.47 1294.53 1125.25C1157.72 1134.16 1020.53 1069.93 897.797 939.453C805.793 841.706 721.472 716.73 639.951 596.1C524.256 424.746 404.612 247.645 261.492 145.947C187.668 92.9286 101.937 58.9142 11.8662 46.9069C-74.6448 35.3756 -167.833 43.53 -265.077 71.0471C-359.198 97.6661 -458.022 142.894 -558.891 205.005C-657.284 265.751 -758.333 343.273 -859.167 435.451C-886.915 460.849 -915.274 487.791 -942.698 513.836C-1053.22 618.875 -1167.48 727.506 -1274.96 764.112C-1338.75 785.666 -1400.6 782.074 -1458.39 753.048C-1601.98 681.202 -1695.99 468.86 -1749.58 303.578C-1803.43 137.074 -1844.57 -55.6537 -1884.3 -242.131C-1917.51 -398.109 -1951.86 -559.404 -1993.65 -704.713C-2044.26 -880.736 -2103.99 -1017.6 -2171.26 -1111.58C-2250.24 -1222.19 -2339.98 -1272.98 -2437.76 -1262.46V-1261.38C-2340.52 -1271.69 -2251.1 -1221.04 -2172.12 -1110.79C-2104.96 -1016.92 -2045.23 -880.125 -1994.69 -704.21C-1952.9 -558.973 -1918.55 -397.678 -1885.35 -241.736C-1845.64 -55.2587 -1804.58 137.541 -1750.59 304.08C-1696.96 469.578 -1602.8 681.992 -1458.86 754.197C-1400.67 783.367 -1338.68 787.103 -1274.64 765.297C-1166.95 728.62 -1052.54 619.917 -941.945 514.806C-914.556 488.761 -886.198 461.783 -858.449 436.421C-757.651 344.314 -656.674 266.828 -558.317 206.082C-457.555 143.899 -358.803 98.8877 -264.79 72.2686C-167.868 44.7875 -74.5371 36.6687 11.615 48.1641C101.504 60.1382 187.064 94.0789 260.738 146.989C403.894 248.364 523.43 425.465 639.053 596.746C720.611 717.52 804.968 842.425 897.007 940.243C1012.45 1062.92 1140.71 1127.15 1269.44 1127.15Z" fill="url(#paint4_radial)"/>
<path d="M1289.21 1151.94C1296.93 1151.94 1304.68 1151.72 1312.4 1151.22C1387.14 1146.66 1461.69 1119.86 1534.06 1071.58C1612.28 1019.42 1688.99 941.429 1761.61 839.874C1781.64 811.926 1801.78 781.571 1821.27 752.222C1862.62 690.003 1905.34 625.665 1949.06 580.869C1998.42 530.325 2048.53 506.436 2093.94 511.717C2129.84 515.92 2161.46 538.946 2185.12 578.318C2214.63 627.425 2233.29 700.457 2251.35 771.369C2262.94 816.668 2274.9 863.512 2289.61 903.853C2309.86 959.319 2336.78 1002.07 2369.66 1030.95C2399.38 1057.89 2437.81 1073.2 2477.89 1074.06H2482.31C2517.16 1074.06 2554.1 1064 2592.4 1044.13C2632.25 1023.37 2672.63 992.368 2712.37 951.954C2796.01 866.924 2872.86 744.319 2934.71 597.393C2992.58 459.879 3038.81 305.266 3083.43 155.754C3123.49 21.6892 3164.92 -116.938 3214.67 -243.208C3254.16 -343.002 3304.81 -436.043 3357.65 -505.195C3412.43 -576.826 3464.98 -616.305 3505.62 -616.341C3535.37 -616.341 3558.56 -595.901 3574.54 -555.56L3575.54 -555.955C3559.35 -596.727 3535.84 -617.419 3505.62 -617.419C3464.62 -617.419 3411.78 -577.904 3356.79 -505.842C3303.88 -436.618 3253.08 -343.505 3213.7 -243.603C3163.88 -117.297 3122.45 21.3661 3082.39 155.431C3037.74 304.943 2991.54 459.52 2933.71 596.962C2871.93 743.78 2795.11 866.385 2711.58 951.2C2671.91 991.542 2631.67 1022.47 2591.9 1043.16C2552.13 1063.85 2513.9 1073.84 2477.96 1072.94C2438.08 1072.1 2399.84 1056.86 2370.27 1030.05C2337.54 1001.31 2310.69 958.672 2290.51 903.386C2275.79 863.081 2263.84 816.273 2252.32 770.974C2234.37 700.133 2215.52 626.886 2185.94 577.671C2162.07 538.156 2130.27 514.77 2093.98 510.531C2048.17 505.215 1997.77 529.211 1948.2 580.006C1904.37 624.982 1861.73 689.356 1820.37 751.647C1800.88 780.96 1780.89 811.315 1760.75 839.228C1688.02 940.71 1611.56 1018.59 1533.45 1070.68C1461.26 1118.85 1386.85 1145.62 1312.33 1150.14C1176.21 1158.48 1040.09 1093.13 918.684 961.187C827.398 861.967 743.939 735.23 663.207 612.732C548.661 438.865 430.238 259.069 287.907 155.826C214.696 102.128 129.255 67.5555 39.3225 55.2415C-47.009 43.4587 -140.161 51.6493 -237.261 79.3101C-331.346 106.181 -430.278 151.731 -531.256 214.668C-629.828 276.133 -731.092 354.589 -832.249 447.881C-860.105 473.566 -888.571 500.832 -916.068 527.235C-1026.95 633.532 -1141.61 743.493 -1249.08 780.422C-1312.4 802.191 -1373.61 798.383 -1430.9 769.645C-1574.48 697.008 -1667.53 481.218 -1720.3 312.954C-1773.25 144.115 -1813.16 -51.3783 -1851.79 -240.262C-1884.09 -398.324 -1917.48 -562.026 -1958.4 -709.382C-2007.94 -887.884 -2066.84 -1026.76 -2133.47 -1122.1C-2211.87 -1234.33 -2301.07 -1285.98 -2398.64 -1275.64V-1274.56C-2301.43 -1284.87 -2212.62 -1233.36 -2134.44 -1121.49C-2067.89 -1026.22 -2009.05 -887.489 -1959.55 -709.095C-1918.66 -561.81 -1885.24 -398.216 -1852.94 -240.047C-1814.2 -51.4502 -1774.29 144.043 -1721.2 312.954C-1668.1 481.865 -1575.2 697.331 -1431.29 770.291C-1373.86 799.425 -1312.26 803.089 -1248.61 781.068C-1140.92 744.067 -1026.06 634.035 -915.207 527.631C-887.71 501.263 -859.243 473.961 -831.423 448.312C-730.302 354.912 -629.11 276.636 -530.573 215.243C-429.668 152.342 -330.844 106.827 -236.867 79.9926C-139.946 52.2599 -46.9014 44.0695 39.2866 55.96C129.072 68.2886 214.359 102.863 287.405 156.545C429.555 259.644 547.943 439.367 662.417 613.163C743.185 735.733 826.681 862.47 918.002 961.618C1032.62 1086.63 1160.52 1151.94 1289.21 1151.94Z" fill="url(#paint5_radial)"/>
<path d="M1308.96 1176.73C1316.14 1176.73 1323.24 1176.52 1330.28 1176.11C1405.05 1171.95 1479.86 1144.93 1552.59 1096.11C1631.2 1043.31 1708.27 964.24 1781.68 861.105C1801.82 832.797 1822.1 802.083 1841.7 772.339C1883.3 709.33 1926.31 644.201 1970.17 598.866C2019.71 547.711 2069.86 523.428 2115.2 528.996C2151.09 533.307 2182.39 556.692 2205.8 596.639C2234.98 646.428 2253.22 720.61 2270.88 792.384C2282.19 838.294 2293.85 885.784 2308.36 926.737C2328.21 982.848 2354.81 1026.17 2387.33 1055.49C2416.59 1082.79 2454.81 1098.46 2494.8 1099.56C2530.7 1100.57 2569.4 1090.55 2609.28 1069.64C2649.16 1048.73 2689.72 1017.37 2729.64 976.49C2813.71 890.275 2891.17 766.16 2953.74 617.259C3012.25 477.985 3059.21 321.324 3104.51 169.836C3145.22 34.0468 3187.29 -106.413 3237.69 -234.335C3277.53 -335.53 3328.76 -429.793 3381.92 -499.807C3436.91 -572.228 3489.61 -612.103 3530.06 -612.103H3530.5C3560.07 -612.103 3583.08 -591.231 3598.7 -550.387L3599.7 -550.782C3583.84 -592.057 3560.5 -613.036 3530.42 -613.18H3530.17C3489.29 -613.18 3436.37 -573.162 3381.16 -500.489C3327.93 -430.367 3276.67 -335.997 3236.79 -234.658C3186.53 -106.7 3144.28 33.7593 3103.58 169.621C3058.17 321.073 3011.25 477.697 2952.81 616.935C2890.28 765.765 2812.81 889.951 2728.92 975.915C2689.08 1016.72 2648.66 1048.01 2608.81 1068.88C2568.97 1089.76 2530.74 1099.74 2494.88 1098.66C2455.14 1097.57 2417.17 1082 2388.08 1054.87C2355.78 1025.67 2329.14 982.489 2309.33 926.557C2294.97 885.676 2283.19 838.222 2271.89 792.276C2254.22 720.43 2235.99 646.177 2206.7 596.28C2183.11 556.046 2151.49 532.444 2115.27 528.026C2069.5 522.422 2019.24 546.885 1969.38 598.112C1925.41 643.519 1882.41 708.719 1840.77 771.764C1821.17 801.472 1800.88 832.187 1780.75 860.458C1707.41 963.594 1630.45 1042.62 1551.94 1095.22C1479.43 1143.93 1404.76 1170.65 1330.21 1175.04C1323.03 1175.43 1315.85 1175.65 1308.96 1175.65C1180.63 1175.65 1053.41 1109.33 939.615 982.848C849.048 882.264 766.414 753.587 686.508 629.293C573.11 452.875 455.835 270.493 314.366 165.633C241.772 111.095 156.563 75.8372 66.6792 63.1447C-19.4729 51.0745 -112.374 59.1212 -209.51 87.1412C-303.595 114.227 -402.562 160.245 -503.863 223.901C-602.579 286.048 -704.095 365.402 -805.395 459.808C-833.358 485.816 -861.896 513.405 -889.501 540.132C-1000.78 647.901 -1115.65 758.975 -1223.34 796.264C-1286.23 818.069 -1346.9 814.477 -1403.58 785.487C-1547.16 712.275 -1639.2 492.785 -1691.15 321.576C-1743.09 150.366 -1781.86 -47.8579 -1819.4 -239.544C-1850.78 -399.905 -1883.27 -565.726 -1923.29 -715.13C-1971.75 -896.147 -2029.8 -1036.97 -2095.59 -1133.71C-2173.27 -1247.58 -2262.08 -1300.07 -2359.47 -1289.72V-1288.64C-2262.55 -1298.95 -2174.03 -1246.61 -2096.6 -1133.1C-2030.69 -1036.46 -1972.68 -895.752 -1924.29 -714.843C-1884.27 -565.474 -1851.82 -399.689 -1820.41 -239.328C-1782.9 -47.6423 -1744.09 150.581 -1692.12 321.863C-1640.14 493.144 -1547.95 713.066 -1404.04 786.421C-1347.08 815.483 -1286.16 819.075 -1222.95 797.198C-1115.26 759.838 -1000.13 648.512 -888.783 540.814C-861.179 514.123 -832.641 486.499 -804.713 460.526C-703.305 366.156 -601.86 286.838 -503.181 224.763C-402.095 161.143 -303.236 115.161 -209.259 88.0753C-112.338 60.1271 -19.4727 52.152 66.4998 64.1504C156.177 76.8196 241.189 112.004 313.613 166.424C454.938 271.14 572.069 453.485 685.467 629.832C765.408 754.162 848.079 882.767 938.718 983.531C1052.8 1110.3 1180.34 1176.73 1308.96 1176.73Z" fill="url(#paint6_radial)"/>
<path d="M1328.7 1201.51C1335.2 1201.51 1341.66 1201.33 1348.16 1200.97C1423.07 1197.02 1498.06 1169.97 1571.07 1120.61C1650.05 1067.23 1727.62 987.052 1801.64 882.336C1821.88 853.598 1842.31 822.596 1862.05 792.529C1903.87 728.729 1947.16 662.738 1991.28 616.864C2040.78 565.099 2091.04 540.672 2136.34 546.276C2172.24 550.694 2203.25 574.439 2226.4 614.96C2255.12 665.253 2273.07 740.691 2290.34 813.4C2301.36 860.1 2312.77 908.129 2326.99 949.584C2346.48 1006.38 2372.76 1050.17 2405.03 1080.06C2435.97 1108.54 2471.9 1123.67 2511.82 1125C2547.72 1126.18 2586.38 1116.12 2626.33 1095.04C2666.28 1073.95 2706.99 1042.27 2747.09 1000.88C2831.55 913.733 2909.48 787.858 2972.95 636.694C3032.11 495.624 3079.78 336.987 3125.9 183.523C3167.26 45.9379 3210.05 -96.3177 3261.02 -226C3301.37 -328.561 3353.06 -424.08 3406.54 -494.992C3461.75 -568.132 3514.23 -608.402 3554.8 -608.402H3555.3C3584.77 -608.15 3607.53 -587.064 3622.96 -545.788L3623.97 -546.147C3608.35 -587.926 3585.27 -609.228 3555.34 -609.479H3554.8C3514.02 -609.479 3461.11 -569.066 3405.68 -495.639C3352.12 -424.655 3300.4 -329.028 3260.01 -226.395C3209 -96.7847 3166.25 45.5068 3124.9 183.128C3078.77 336.52 3031.1 495.157 2971.98 636.191C2908.69 787.068 2830.69 912.799 2746.33 999.913C2706.27 1041.22 2665.74 1072.84 2625.83 1093.89C2585.91 1114.94 2547.61 1124.93 2511.85 1123.7C2472.37 1122.41 2436.47 1107.36 2405.74 1079.05C2373.62 1049.41 2347.45 1005.66 2328.03 949.01C2313.67 907.626 2302.4 859.489 2291.38 812.933C2274.11 740.332 2256.16 665.037 2227.45 614.422C2204.11 573.613 2172.7 549.76 2136.59 545.198C2091.04 539.702 2040.42 564.093 1990.53 616.11C1946.41 662.056 1903.08 728.083 1861.3 791.918C1841.59 821.986 1821.2 852.987 1800.96 881.726C1726.83 986.334 1649.33 1066.41 1570.54 1119.72C1497.7 1168.97 1422.86 1195.95 1348.19 1199.9C1213.33 1207.08 1079.33 1139.51 960.508 1004.51C870.766 902.345 788.814 771.945 709.733 645.854C597.484 466.921 481.43 281.917 340.751 175.477C268.801 120.221 183.893 84.3531 94.1411 71.2997C8.27637 58.9421 -84.5166 66.989 -181.689 95.2246C-275.702 122.562 -374.741 169.047 -476.042 233.421C-574.937 296.25 -676.668 376.503 -778.471 472.058C-806.471 498.354 -835.116 526.266 -862.828 553.281C-974.431 662.164 -1089.88 774.782 -1197.35 812.394C-1259.81 834.271 -1319.94 830.751 -1376.04 801.904C-1519.63 728.154 -1610.63 505 -1661.75 330.773C-1712.65 157.192 -1750.34 -43.7261 -1786.77 -237.998C-1817.25 -400.586 -1848.77 -568.671 -1887.93 -720.123C-1935.35 -903.618 -1992.53 -1046.41 -2057.87 -1144.55C-2134.79 -1260.05 -2222.99 -1313.39 -2320.41 -1303.01V-1301.97C-2223.49 -1312.28 -2135.55 -1259.11 -2058.87 -1143.91C-1993.61 -1045.87 -1936.46 -903.223 -1889.08 -719.799C-1849.92 -568.347 -1818.4 -400.299 -1787.92 -237.747C-1751.49 -43.4387 -1713.83 157.407 -1662.89 331.168C-1611.56 505.431 -1520.38 728.873 -1376.58 802.802C-1320.22 831.757 -1259.85 835.133 -1197.1 813.328C-1089.41 775.645 -973.893 662.954 -862.183 553.999C-834.47 526.985 -805.825 499.036 -777.825 472.741C-675.95 377.293 -574.256 297.041 -475.575 234.355C-374.383 170.052 -275.415 123.604 -181.474 96.3022C-84.5527 68.1025 8.16846 60.0917 93.8899 72.4132C183.475 85.5168 268.208 121.384 339.998 176.59C480.497 282.959 596.515 467.891 708.692 646.716C787.844 772.843 869.653 903.28 959.574 1005.52C1072.94 1133.98 1200.12 1201.51 1328.7 1201.51Z" fill="url(#paint7_radial)"/>
<path d="M1348.4 1226.3C1354.33 1226.3 1360.21 1226.3 1366.14 1225.83C1441.09 1222.24 1516.26 1195.01 1589.63 1145.08C1668.93 1091.12 1747 1009.86 1821.81 903.566C1842.16 874.576 1862.7 843.071 1882.55 812.644C1924.69 747.983 1968.23 681.274 2012.42 634.861C2062.32 582.485 2112.36 557.662 2157.52 563.518C2193.2 568.08 2224.18 592.256 2247.04 633.244C2275.76 684.435 2292.99 760.664 2309.79 834.414C2320.56 881.617 2331.69 930.436 2345.69 972.466C2364.82 1029.94 2390.74 1074.38 2422.72 1104.59C2453.38 1133.33 2489.09 1148.96 2528.83 1150.43C2564.73 1151.83 2603.35 1141.7 2643.38 1120.47C2683.4 1099.24 2724.22 1067.16 2764.53 1025.27C2849.35 937.082 2928.07 809.735 2992.11 656.487C3051.88 513.62 3100.34 352.936 3147.19 197.533C3189.19 58.1868 3232.62 -85.9009 3284.21 -217.128C3325.06 -321.054 3377.18 -417.831 3431.02 -489.605C3486.41 -563.535 3539.07 -604.164 3579.38 -604.164H3580.17C3609.47 -603.769 3632.01 -582.394 3647.19 -540.616L3648.2 -540.975C3632.87 -583.221 3610 -604.846 3580.17 -605.242H3579.38C3538.71 -605.242 3485.77 -564.469 3430.13 -490.288C3376.28 -418.441 3324.09 -321.449 3283.2 -217.559C3231.62 -86.296 3188.18 57.7917 3146.15 197.173C3099.3 352.541 3050.88 513.297 2991.14 656.02C2927.11 809.124 2848.46 936.436 2763.74 1024.66C2723.54 1066.48 2682.86 1098.41 2642.88 1119.64C2602.89 1140.87 2564.66 1150.86 2528.9 1149.5C2489.42 1148.02 2453.91 1132.68 2423.47 1103.95C2391.6 1073.88 2365.79 1029.58 2346.73 972.251C2332.73 930.292 2321.6 881.509 2310.83 834.306C2294 760.52 2276.59 684.183 2247.98 632.849C2224.89 591.466 2193.63 567.182 2157.62 562.62C2112.18 556.836 2061.64 581.623 2011.49 634.25C1967.19 680.735 1923.61 747.588 1881.47 812.177C1861.62 842.64 1841.09 874.109 1820.73 903.099C1746.18 1009.29 1668.21 1090.44 1588.98 1144.36C1515.79 1194.15 1440.8 1221.23 1366.03 1224.93C1360.14 1225.22 1354.26 1225.37 1348.37 1225.37C1220.18 1225.37 1093.5 1156.86 981.396 1026.32C892.229 922.677 811.282 790.444 732.991 662.558C621.891 481.11 507.021 293.483 367.168 185.427C295.857 129.411 211.222 92.9052 121.563 79.4893C35.9136 66.8444 -56.7717 74.8552 -153.872 103.306C-247.886 130.859 -346.997 177.847 -448.441 242.904C-547.48 306.416 -649.462 387.638 -751.552 484.271C-779.659 510.89 -808.377 539.126 -836.197 566.463C-948.195 676.64 -1064 790.552 -1171.47 828.702C-1233.5 850.615 -1293.13 847.167 -1348.62 818.428C-1492.21 744.139 -1582.2 517.284 -1632.46 340.076C-1682.35 164.052 -1718.9 -39.524 -1754.26 -236.419C-1783.8 -401.162 -1814.38 -571.546 -1852.68 -724.973C-1899.03 -910.983 -1955.35 -1055.75 -2020.07 -1155.26C-2096.21 -1272.41 -2184.12 -1326.54 -2281.29 -1316.2V-1315.12C-2184.37 -1325.43 -2097 -1271.44 -2021.08 -1154.69C-1956.46 -1055.25 -1900.18 -910.588 -1853.83 -724.722C-1815.57 -571.258 -1784.98 -400.911 -1755.4 -236.167C-1720.08 -39.2367 -1683.61 164.412 -1633.61 340.435C-1583.35 517.859 -1493.07 745.001 -1349.2 819.47C-1293.45 848.208 -1233.54 851.801 -1171.22 829.78C-1063.53 791.737 -947.62 677.753 -835.551 567.541C-807.767 540.203 -779.013 511.932 -750.906 485.349C-648.852 388.751 -546.941 307.601 -447.974 244.125C-346.602 179.104 -247.563 132.153 -153.621 104.635C-56.7 76.2202 35.8774 68.2095 121.384 80.8544C210.192 93.9304 292.647 129.53 366.486 186.576C506.16 294.345 620.994 482.044 732.022 663.42C810.349 791.342 891.332 923.611 980.571 1027.32C1093.11 1157.58 1219.89 1226.26 1348.4 1226.3Z" fill="url(#paint8_radial)"/>
<path d="M1368.11 1250.98C1373.46 1250.98 1378.88 1250.98 1384.12 1250.58C1459.25 1247.39 1534.64 1220.01 1608.19 1169.58C1687.84 1115.01 1766.42 1032.64 1841.52 924.796C1861.98 895.447 1882.65 863.727 1902.54 832.761C1944.9 767.381 1988.69 699.846 2033.1 652.858C2083.35 599.836 2133.43 574.941 2178.41 580.797C2213.98 585.431 2244.78 609.894 2267.43 651.565C2295.65 703.474 2312.59 780.888 2328.99 855.429C2339.51 903.278 2350.35 952.745 2364.1 995.529C2382.84 1053.69 2408.43 1098.7 2440.17 1129.34C2470.53 1158.69 2506 1174.39 2545.59 1176.04C2581.49 1177.52 2620.04 1167.46 2660.14 1146.01C2700.24 1124.56 2741.19 1092.13 2781.65 1049.81C2866.91 960.612 2946.2 831.468 3010.99 676.208C3071.41 531.582 3120.59 368.85 3168.19 211.471C3210.83 70.3649 3254.95 -75.5548 3307.11 -208.363C3348.46 -313.689 3401.05 -411.723 3455.18 -484.396C3510.78 -559.044 3563.48 -600.068 3603.68 -600.068H3604.73C3633.91 -599.566 3656.24 -577.868 3671.1 -535.622L3672.1 -535.982C3657.06 -578.694 3634.41 -600.643 3604.76 -601.146C3564.05 -601.936 3510.64 -560.661 3454.32 -485.078C3400.11 -412.334 3347.49 -314.228 3306.1 -208.794C3253.94 -75.8781 3209.83 70.0057 3167.15 211.112C3119.58 368.455 3070.4 531.151 3009.99 675.741C2945.38 830.785 2866.04 959.822 2780.9 1048.95C2740.48 1091.23 2699.7 1123.52 2659.64 1144.93C2619.58 1166.34 2581.42 1176.29 2545.67 1174.82C2506.18 1173.2 2471.07 1157.58 2440.88 1128.41C2409.33 1097.91 2383.81 1052.97 2365.11 995.026C2351.39 952.493 2340.55 903.027 2330.03 855.213C2313.63 780.457 2296.65 703.115 2268.36 651.062C2245.53 609.104 2214.52 584.461 2178.62 579.755C2133.28 573.828 2082.71 598.866 2032.38 652.14C1987.94 699.163 1944.07 766.806 1901.68 832.222C1881.94 863.009 1861.3 894.836 1840.8 924.078C1765.42 1031.85 1687.12 1114.08 1607.47 1168.57C1533.99 1218.86 1458.79 1246.13 1383.98 1249.51C1378.66 1249.76 1373.21 1249.9 1368 1249.9C1239.89 1249.9 1113.75 1180.28 1002.25 1047.76C913.802 942.614 833.537 808.549 756.179 678.903C646.228 494.904 532.579 304.691 393.623 195.018C320.071 137.002 237.759 100.756 149.023 87.2488C63.5525 74.3164 -28.9893 82.3273 -126.054 111.03C-220.031 138.798 -319.214 186.253 -420.837 252.028C-520.02 316.223 -622.218 398.343 -724.631 496.126C-752.846 523.032 -781.671 551.627 -809.562 579.252C-921.919 690.614 -1038.12 805.963 -1145.59 844.257C-1207.15 866.601 -1266.24 863.009 -1321.16 834.27C-1464.75 759.442 -1553.7 528.924 -1603.13 348.661C-1652.02 170.339 -1687.45 -35.9675 -1721.59 -235.521C-1750.31 -402.455 -1779.85 -575.102 -1817.25 -730.685C-1862.59 -919.138 -1918.05 -1065.88 -1982.13 -1166.79C-2057.51 -1285.55 -2144.96 -1340.55 -2242.02 -1330.21V-1329.13C-2145.42 -1339.44 -2058.3 -1284.62 -1983.13 -1166.22C-1919.13 -1065.42 -1863.71 -918.778 -1818.44 -730.434C-1781.04 -574.886 -1751.42 -402.276 -1722.74 -235.341C-1688.49 -35.788 -1653.1 170.59 -1604.28 348.949C-1554.81 529.391 -1465.61 760.233 -1321.77 835.24C-1266.6 863.979 -1207.19 867.571 -1145.3 845.37C-1037.61 806.969 -921.309 691.619 -808.845 580.114C-780.989 552.453 -752.164 523.858 -723.985 496.952C-621.608 399.241 -519.374 317.336 -420.335 252.998C-318.783 187.259 -219.708 139.876 -125.982 112.143C-29.061 83.4049 63.3372 75.5018 148.628 88.3983C237.221 101.798 319.353 137.972 392.725 195.844C531.61 305.41 645.223 495.551 755.282 679.442C832.783 809.124 912.94 943.225 1001.46 1048.44C1113.24 1181.32 1239.67 1250.98 1368.11 1250.98Z" fill="url(#paint9_radial)"/>
<path d="M1387.78 1275.84C1392.59 1275.84 1397.36 1275.84 1402.14 1275.55C1477.2 1272.46 1552.91 1245.05 1626.71 1194.08C1706.94 1138.9 1785.91 1055.45 1861.69 946.063C1882.29 916.355 1903.08 884.096 1923.18 852.914C1965.83 786.744 2009.91 718.346 2054.45 670.856C2104.71 617.223 2154.96 592.077 2199.84 598.076C2235.37 602.818 2265.96 627.641 2288.36 669.922C2316.25 722.549 2332.76 800.826 2348.77 876.516C2359 924.976 2369.59 975.089 2383.09 1018.27C2401.47 1077.11 2426.74 1122.7 2458.15 1153.77C2488.27 1183.55 2523.55 1199.57 2562.97 1201.37C2598.86 1203.02 2637.34 1192.93 2677.55 1171.3C2717.75 1149.68 2758.75 1116.95 2799.42 1074.06C2885.03 983.818 2964.9 853.058 3030.45 695.858C3091.47 549.436 3141.44 384.692 3189.76 225.265C3233.05 82.3992 3277.85 -65.3525 3330.58 -199.813C3372.44 -306.54 3425.46 -405.796 3479.91 -479.331C3535.77 -554.769 3588.46 -596.153 3628.56 -596.153H3629.85C3658.89 -595.506 3681.01 -573.521 3695.62 -530.773L3696.62 -531.132C3681.87 -574.24 3659.4 -596.584 3629.89 -597.23H3628.56C3588.14 -597.23 3535.23 -555.667 3479.05 -479.977C3424.56 -406.371 3371.36 -307.007 3329.58 -200.208C3276.81 -65.6758 3232.01 82.04 3188.72 224.942C3140.4 384.261 3090.47 548.969 3029.44 695.535C2963.97 852.591 2884.13 983.244 2798.63 1073.41C2758.03 1116.2 2717.14 1148.85 2677.01 1170.4C2636.88 1191.96 2598.65 1202.05 2563.04 1200.4C2523.88 1198.57 2488.84 1182.65 2458.94 1153.09C2427.64 1122.16 2402.47 1076.72 2384.13 1018.02C2370.67 974.909 2360.08 924.617 2349.85 876.372C2333.84 800.61 2317.33 722.262 2289.33 669.491C2266.78 626.958 2235.88 601.955 2200.02 597.142C2154.79 591.107 2104.21 616.361 2053.7 670.245C2009.04 717.7 1964.93 786.133 1922.32 852.232C1902.22 883.413 1881.43 915.636 1860.86 945.309C1785.05 1054.62 1706.11 1137.96 1626.21 1193.18C1552.4 1244.05 1477.02 1271.38 1402.18 1274.47C1269.36 1279.97 1138.19 1209.09 1023.32 1069.71C935.518 962.911 856.187 827.086 779.583 695.571C670.78 509.094 558.28 316.223 420.078 204.969C346.956 146.091 265.004 109.27 176.483 95.547C91.2639 82.3273 -1.17017 90.3024 -98.2346 119.22C-192.176 147.24 -291.395 195.162 -393.162 261.656C-492.488 326.533 -594.937 409.587 -697.71 508.448C-725.96 535.677 -754.893 564.595 -782.892 592.579C-895.608 705.27 -1012.2 821.841 -1119.68 860.494C-1180.88 882.515 -1239.46 879.21 -1293.77 850.687C-1437.36 775.249 -1525.27 541.066 -1573.77 357.822C-1621.65 177.093 -1655.94 -31.9442 -1689.1 -234.084C-1716.92 -403.21 -1745.61 -578.119 -1782.22 -735.57C-1826.48 -926.538 -1881.08 -1075.22 -1944.51 -1177.42C-2019.17 -1297.84 -2106.04 -1353.63 -2202.97 -1343.28V-1342.24C-2106.44 -1352.51 -2019.89 -1296.91 -1945.41 -1176.99C-1882.05 -1074.79 -1827.49 -926.215 -1783.26 -735.355C-1746.72 -577.76 -1718.04 -402.886 -1690.32 -233.76C-1657.16 -31.5848 -1622.88 177.452 -1574.95 358.217C-1526.35 541.676 -1438.19 776.254 -1294.35 851.765C-1239.75 880.503 -1180.88 883.772 -1119.39 861.68C-1011.7 822.919 -894.997 706.276 -782.174 593.477C-754.211 565.493 -725.278 536.575 -697.027 509.381C-594.327 410.521 -491.914 327.539 -392.659 262.698C-290.964 196.24 -191.638 148.39 -97.9836 120.406C-1.0625 91.6675 91.1919 83.5488 176.231 96.7686C264.573 110.455 346.382 147.061 419.324 205.939C557.454 316.977 669.883 509.705 778.65 696.11C855.325 827.589 934.621 963.522 1022.42 1070.21C1133.38 1205 1259.41 1275.84 1387.78 1275.84Z" fill="url(#paint10_radial)"/>
<path d="M1407.45 1300.62C1411.74 1300.62 1416.01 1300.55 1420.27 1300.41C1495.37 1297.61 1571.04 1270.05 1645.38 1218.54C1725.71 1162.79 1805.23 1078.26 1881.72 967.186C1902.43 937.118 1923.36 904.5 1943.57 872.923C1986.47 805.999 2030.8 736.775 2075.53 688.745C2125.78 634.501 2176.29 609.104 2221.02 615.211C2256.45 620.061 2286.85 645.278 2309 688.063C2336.57 741.373 2352.69 820.691 2368.23 897.351C2378.21 946.458 2388.51 997.217 2401.76 1041.04C2419.71 1100.57 2444.83 1146.73 2475.88 1178.23C2505.75 1208.45 2540.78 1224.72 2579.98 1226.69C2615.88 1228.53 2654.29 1218.36 2694.53 1196.55C2734.77 1174.75 2775.94 1141.66 2816.76 1098.3C2902.91 1007.02 2983.25 874.612 3049.51 715.4C3111.18 567.217 3161.87 400.427 3211.05 239.132C3255.02 94.5051 3300.47 -55.043 3353.81 -191.156C3396.17 -299.248 3449.62 -399.725 3504.58 -474.158C3560.65 -550.315 3613.38 -592.13 3653.37 -592.13H3654.91C3683.63 -591.375 3705.7 -569.067 3720.03 -525.851L3721.07 -526.175C3706.71 -569.857 3684.31 -592.417 3654.91 -593.207H3653.4C3613.06 -593.207 3560.07 -551.249 3503.71 -474.661C3448.9 -400.156 3395.38 -299.572 3352.95 -191.407C3299.43 -55.3303 3254.09 94.2537 3209.97 238.88C3160.97 400.139 3110.29 566.894 3048.62 715.041C2982.39 874.109 2901.98 1006.41 2816.11 1097.62C2775.33 1140.73 2734.3 1173.89 2694.06 1195.66C2653.82 1217.43 2615.67 1227.48 2580.06 1225.65C2541.07 1223.71 2506.25 1207.51 2476.6 1177.52C2445.55 1146.15 2420.71 1100.14 2402.73 1040.76C2389.48 997.073 2379.18 946.314 2369.23 897.063C2353.66 820.332 2337.54 740.942 2309.86 687.488C2287.57 644.38 2256.88 618.983 2221.09 614.097C2175.97 607.918 2125.35 633.424 2074.67 687.919C2030.01 736.236 1985.57 805.531 1942.67 872.456C1922.46 903.997 1901.54 936.651 1880.82 966.683C1804.44 1077.51 1724.89 1161.96 1644.77 1217.64C1570.53 1268.94 1495.15 1296.53 1420.23 1299.33C1287.85 1304.22 1157.83 1232.3 1044.18 1091.19C957.13 983.1 878.696 845.334 802.846 712.131C695.156 523.104 583.876 327.754 446.535 214.776C373.845 155.071 292.179 117.783 203.91 103.63C118.906 90.1583 26.616 98.0974 -70.4128 127.267C-164.319 155.503 -263.645 203.891 -365.555 270.959C-465.025 336.555 -567.726 420.508 -670.677 520.482C-699.036 548.035 -728.112 577.276 -756.111 605.547C-869.222 719.568 -986.173 837.467 -1093.54 876.48C-1154.31 898.5 -1212.4 895.268 -1266.17 866.852C-1409.75 791.019 -1496.59 553.028 -1544.3 366.73C-1591.43 183.774 -1624.6 -27.885 -1656.58 -232.647C-1683.4 -403.964 -1711.14 -581.101 -1746.79 -740.815C-1789.86 -934.261 -1843.71 -1084.96 -1906.53 -1188.63C-1980.44 -1310.77 -2066.95 -1367.35 -2163.84 -1356.97V-1355.89C-2067.53 -1366.2 -1981.23 -1309.73 -1907.57 -1188.09C-1844.82 -1084.49 -1791.12 -933.938 -1747.97 -740.564C-1712.26 -581.101 -1684.54 -403.892 -1657.73 -232.647C-1625.64 -27.885 -1592.5 184.061 -1545.59 367.054C-1497.85 553.531 -1410.72 791.809 -1266.92 867.858C-1212.86 896.597 -1154.49 899.686 -1093.43 877.521C-985.743 838.437 -868.648 720.43 -755.466 606.338C-727.395 578.066 -698.39 548.861 -670.031 521.308C-567.008 421.37 -464.379 337.453 -364.909 271.894C-263.071 204.753 -163.888 156.437 -70.054 128.201C26.8672 99.1033 118.942 91.1643 203.766 104.635C291.893 118.646 373.342 155.934 445.854 215.53C583.086 328.293 694.33 523.679 801.949 712.598C877.798 845.837 956.304 983.638 1043.39 1091.8C1153.52 1228.67 1279.16 1300.62 1407.45 1300.62Z" fill="url(#paint11_radial)"/>
<path d="M1426.95 1325.41C1430.54 1325.41 1434.45 1325.41 1438.22 1325.23C1513.39 1322.72 1589.27 1295.06 1663.83 1243C1744.49 1186.64 1824.47 1101.03 1901.57 988.524C1922.39 958.133 1943.43 925.119 1963.75 893.184C2006.82 825.469 2051.55 755.455 2096.56 706.851C2147.18 652.032 2197.47 626.347 2242.12 632.597C2277.48 637.555 2307.71 663.096 2329.6 706.455C2356.89 760.34 2372.68 840.808 2387.69 918.402C2397.38 968.119 2407.43 1019.53 2420.42 1063.85C2438.12 1124.06 2462.71 1170.8 2493.62 1202.73C2523.2 1233.34 2558.23 1249.94 2597.18 1252.06C2633.08 1254 2671.45 1243.83 2711.72 1221.84C2752 1199.86 2793.32 1166.45 2834.31 1122.59C2920.68 1030.27 3001.73 896.273 3068.75 735.014C3131.07 585.035 3182.51 416.197 3232.26 252.962C3276.88 106.575 3323.01 -44.8049 3376.93 -182.57C3419.75 -292.028 3473.85 -393.762 3528.77 -469.057C3585.06 -545.968 3637.86 -588.178 3677.74 -588.178H3679.46C3708.18 -587.28 3729.93 -564.684 3744.08 -520.966L3745.08 -521.289C3730.72 -565.475 3708.83 -588.358 3679.57 -589.256H3677.81C3637.57 -589.256 3584.48 -546.902 3527.98 -469.668C3472.84 -394.229 3418.85 -292.495 3375.99 -182.965C3322.15 -45.1641 3275.91 106.216 3231.29 252.639C3181.58 415.873 3130.14 584.64 3067.82 734.583C3000.87 895.698 2919.89 1029.62 2833.63 1121.83C2792.67 1165.62 2751.53 1198.93 2711.29 1220.91C2671.05 1242.9 2632.79 1252.92 2597.32 1250.98C2558.45 1248.89 2523.84 1232.41 2494.44 1201.98C2463.68 1170.19 2439.16 1123.59 2421.54 1063.53C2408.54 1019.27 2398.53 967.868 2388.83 918.186C2373.65 840.448 2357.96 760.125 2330.65 705.881C2308.57 662.162 2278.06 636.441 2242.34 631.412C2197.36 625.125 2146.71 650.918 2095.85 705.988C2050.9 754.664 2006.1 824.75 1963.03 892.501C1942.67 924.437 1921.67 957.414 1900.85 987.805C1823.86 1100.21 1743.95 1185.74 1663.36 1242C1589.02 1293.94 1513.31 1321.53 1438.36 1324.05C1306.58 1328.5 1177.5 1255.4 1065.04 1112.75C978.668 1003.18 901.095 863.583 826.035 728.62C719.781 537.186 609.506 339.105 472.955 224.618C400.695 164.052 319.425 126.081 231.335 111.748C146.583 97.9536 54.3999 105.857 -42.593 135.278C-136.499 163.729 -235.861 212.62 -337.951 280.515C-437.564 346.793 -540.48 431.643 -643.863 532.767C-672.329 560.607 -701.297 590.244 -729.584 618.767C-843.054 734.08 -960.4 853.273 -1067.91 892.645C-1128.25 914.738 -1185.87 911.576 -1239.07 883.233C-1382.65 806.932 -1468.45 565.206 -1515.29 375.891C-1561.17 190.42 -1593.15 -24.0052 -1624.13 -231.425C-1650.05 -404.934 -1676.83 -584.37 -1711.61 -746.096C-1753.75 -942.057 -1806.63 -1094.55 -1868.8 -1199.77C-1941.96 -1323.45 -2028.08 -1380.93 -2124.78 -1370.58V-1369.51C-2028.54 -1379.78 -1942.75 -1322.52 -1869.91 -1199.23C-1807.81 -1094.23 -1755.04 -941.697 -1712.83 -745.881C-1678.08 -584.227 -1651.27 -404.611 -1625.39 -231.246C-1594.41 -23.8257 -1562.39 190.635 -1516.51 376.142C-1469.59 565.673 -1383.69 807.687 -1239.75 884.203C-1186.26 912.69 -1128.47 915.851 -1067.69 893.651C-960.005 854.135 -842.551 734.906 -729.01 619.521C-700.831 590.783 -671.575 561.362 -643.288 533.521C-539.978 432.47 -437.098 347.655 -337.521 281.413C-235.538 213.554 -136.247 164.735 -42.4492 136.32C54.4719 106.97 146.367 99.0312 230.976 112.826C318.887 127.195 399.977 164.986 472.058 225.445C608.465 339.788 718.561 537.76 824.994 729.23C900.054 864.266 977.663 1003.9 1064.07 1113.61C1173.66 1252.38 1298.9 1325.41 1426.95 1325.41Z" fill="url(#paint12_radial)"/>
<path d="M1446.76 1350.2C1450.03 1350.2 1453.3 1350.2 1456.6 1350.2C1531.77 1347.97 1607.8 1320.2 1682.75 1267.57C1763.73 1210.64 1844.28 1123.88 1921.86 1009.86C1942.68 979.004 1963.86 945.632 1984.32 913.301C2027.75 844.796 2072.62 773.955 2117.67 724.812C2168.47 669.383 2218.79 643.447 2263.31 649.841C2298.59 654.87 2328.64 680.771 2350.28 724.741C2377.24 779.488 2392.46 860.817 2407.22 939.489C2416.66 989.781 2426.38 1041.91 2439.16 1086.77C2456.47 1147.84 2480.8 1195.01 2511.39 1227.41C2540.75 1258.41 2575.39 1275.3 2614.38 1277.71C2650.06 1279.79 2688.57 1269.59 2728.92 1247.42C2769.27 1225.26 2810.66 1191.49 2851.87 1147.12C2938.56 1053.72 3020.22 918.115 3087.92 754.88C3150.89 603.105 3203.08 432.255 3253.59 267.044C3298.85 118.897 3345.63 -34.2792 3400.15 -173.697C3443.48 -284.52 3497.87 -387.475 3553.25 -463.632C3609.72 -541.334 3662.6 -583.939 3702.37 -583.939H3704.31C3733.02 -582.933 3754.56 -560.014 3768.24 -515.685L3769.28 -516.008C3755.32 -560.697 3733.38 -583.867 3704.34 -584.909C3664 -586.31 3610.01 -543.453 3552.36 -464.207C3496.93 -387.978 3442.51 -284.915 3399.15 -173.984C3344.62 -34.5663 3297.81 118.646 3252.55 266.793C3202.08 432.039 3149.88 602.818 3086.96 754.521C3019.25 917.684 2937.7 1053.19 2851.08 1146.48C2809.94 1190.74 2768.52 1224.4 2728.42 1246.52C2688.32 1268.65 2649.91 1278.85 2614.45 1276.7C2575.71 1274.47 2541.33 1257.7 2512.18 1226.87C2481.7 1194.54 2457.47 1147.45 2440.38 1086.77C2427.64 1041.94 2417.88 989.781 2408.44 939.489C2393.68 860.745 2378.46 779.344 2351.43 724.453C2329.64 680.196 2299.27 654.08 2263.66 649.015C2218.79 642.548 2168.07 668.629 2117.06 724.453C2071.76 773.201 2026.85 844.185 1983.35 912.762C1962.89 945.093 1941.71 978.43 1920.78 1009.14C1843.21 1123.09 1762.83 1209.7 1681.96 1266.57C1607.29 1319.05 1531.44 1346.79 1456.49 1348.98C1453.23 1348.98 1449.96 1348.98 1446.69 1348.98C1318.9 1348.98 1194.37 1274.98 1085.97 1134.41C1000.32 1023.33 923.533 881.904 849.299 745.145C743.978 551.16 635.031 350.386 499.306 234.318C427.513 172.89 346.566 134.344 258.798 119.688C174.261 105.642 82.2224 113.509 -14.7344 143.145C-108.604 171.884 -208.038 221.206 -310.272 289.783C-410.064 356.744 -513.232 442.564 -616.901 544.838C-645.619 573.001 -674.659 602.889 -703.054 631.807C-816.918 748.378 -934.624 868.9 -1042.1 908.631C-1102.08 930.76 -1159.19 927.67 -1211.85 899.471C-1355.26 822.703 -1440.12 577.24 -1486.1 384.836C-1530.94 197.03 -1561.85 -20.1252 -1591.71 -230.096C-1616.84 -405.832 -1642.54 -587.531 -1676.46 -751.341C-1717.57 -949.78 -1769.58 -1104.39 -1831.11 -1210.87C-1903.48 -1336.2 -1989.05 -1394.51 -2085.76 -1384.16V-1383.08C-1989.66 -1393.36 -1904.3 -1335.27 -1832.15 -1210.33C-1770.69 -1103.96 -1718.71 -949.456 -1677.61 -751.125C-1643.73 -587.351 -1617.88 -405.652 -1592.9 -229.952C-1563 -19.9457 -1532.12 197.246 -1487.25 385.088C-1441.2 577.779 -1356.01 823.493 -1212.25 900.512C-1159.3 928.856 -1101.9 931.945 -1041.63 909.709C-933.941 869.906 -816.092 749.312 -702.192 632.634C-673.941 603.895 -644.757 573.828 -616.04 545.7C-512.406 443.498 -409.275 357.75 -309.554 290.825C-207.428 222.284 -108.102 172.997 -14.3396 144.331C82.5815 114.73 174.369 106.863 258.727 120.909C346.386 135.494 427.154 173.967 498.84 235.252C634.421 351.248 743.296 551.807 848.581 745.792C922.815 882.623 999.599 1024.09 1085.32 1135.2C1193.62 1276.12 1318.61 1350.2 1446.76 1350.2Z" fill="url(#paint13_radial)"/>
<path d="M1466.43 1374.99H1474.83C1550.22 1373.05 1626.21 1345.13 1701.34 1292C1782.65 1234.53 1863.56 1146.69 1941.85 1031.09C1962.88 999.984 1984.21 966.216 2004.78 933.562C2048.46 864.266 2093.62 792.636 2138.81 742.954C2189.75 686.914 2240.19 660.762 2284.52 667.228C2319.73 672.401 2349.64 698.625 2370.99 743.17C2397.63 798.635 2412.45 881.007 2426.74 960.648C2435.93 1011.62 2445.41 1064.36 2457.94 1109.8C2474.88 1171.45 2498.89 1219.33 2529.23 1252.13C2558.3 1283.56 2592.76 1300.73 2631.64 1303.14C2667.18 1305.37 2705.73 1295.13 2746.15 1272.75C2786.57 1250.37 2828.07 1216.28 2869.42 1171.45C2956.43 1076.93 3038.71 939.705 3106.91 774.423C3170.52 620.887 3223.47 448.025 3274.66 280.839C3320.61 130.932 3367.99 -24.0768 3423.16 -165.111C3466.99 -277.299 3521.81 -381.512 3577.52 -458.567C3634.23 -537.023 3687.15 -580.023 3726.81 -580.023H3728.93C3757.47 -578.874 3778.79 -555.667 3792.32 -510.943L3793.33 -511.266C3779.65 -556.457 3758.01 -579.951 3729 -581.065H3726.85C3686.79 -581.065 3633.52 -537.957 3576.66 -459.142C3520.91 -382.051 3466.06 -277.766 3422.3 -165.47C3367.2 -24.4 3319.71 130.644 3273.8 280.551C3222.61 447.702 3169.7 620.564 3106.09 774.027C3037.67 939.274 2955.54 1076.36 2868.52 1170.65C2827.24 1215.42 2785.96 1249.4 2745.54 1271.74C2705.12 1294.09 2666.93 1304.07 2631.57 1301.99C2593.02 1299.62 2558.81 1282.56 2529.91 1251.3C2499.68 1218.65 2475.78 1170.91 2458.87 1109.44C2446.34 1064.03 2436.86 1011.34 2427.71 960.361C2413.35 880.647 2398.56 798.24 2371.86 742.631C2350.32 697.763 2320.13 671.287 2284.59 666.079C2239.83 659.541 2189.11 685.836 2137.92 742.128C2092.65 791.881 2047.46 863.584 2003.77 932.916C1983.35 965.534 1961.81 999.302 1940.88 1030.38C1862.7 1145.87 1781.89 1233.56 1700.66 1291.03C1625.74 1344.02 1549.89 1371.9 1474.8 1373.66H1466.4C1338.68 1373.66 1214.58 1298.54 1106.93 1155.96C1022 1043.42 946.074 900.154 872.666 761.598C768.565 565.027 660.875 361.738 525.832 244.018C454.433 181.763 373.809 142.607 286.221 127.698C201.864 113.329 109.969 121.196 13.0117 151.084C-80.8223 180.003 -180.328 229.792 -282.705 299.124C-382.606 366.767 -486.024 453.593 -590.017 556.836C-618.734 585.287 -647.954 615.499 -676.169 644.74C-790.393 762.604 -908.493 884.455 -1015.97 924.51C-1075.52 946.674 -1132.16 943.693 -1184.29 915.601C-1263.26 872.96 -1374.9 747.803 -1456.56 393.709C-1500.39 203.532 -1530.15 -16.3531 -1558.94 -228.982C-1583.03 -406.874 -1607.9 -590.836 -1640.96 -756.693C-1680.99 -957.647 -1732.18 -1114.24 -1793.02 -1222.08C-1864.82 -1349.03 -1949.96 -1408.16 -2046.38 -1397.81V-1396.77C-1950.36 -1407.05 -1865.5 -1348.1 -1794.1 -1221.57C-1733.08 -1113.8 -1682.14 -957.324 -1642.11 -756.513C-1609.09 -590.656 -1584.18 -406.73 -1560.12 -228.803C-1531.41 -16.1736 -1501.58 203.712 -1457.71 393.925C-1412.48 589.993 -1328.66 839.372 -1184.97 916.894C-1132.52 945.129 -1075.59 948.183 -1015.75 925.875C-908.062 885.749 -789.854 763.79 -675.559 645.674C-647.2 616.433 -617.909 586.222 -589.407 557.77C-485.306 454.455 -382.104 367.809 -282.239 300.201C-179.933 230.942 -80.5349 181.188 13.1912 152.306C110.112 122.454 201.721 114.622 286.006 128.956C373.415 143.828 453.859 182.84 525.078 245.023C659.834 362.6 767.524 565.781 871.661 762.316C945.105 900.908 1021.06 1044.21 1106.03 1156.82C1213.9 1299.73 1338.32 1374.99 1466.43 1374.99Z" fill="url(#paint14_radial)"/>
<path d="M1486 1399.77C1488.37 1399.77 1490.71 1399.77 1493.18 1399.77C1568.39 1398.12 1644.7 1370.06 1720.08 1316.43C1801.61 1258.16 1882.84 1169.36 1961.81 1052.22C1982.96 1020.78 2004.39 986.62 2025.1 953.571C2069.04 883.521 2114.48 811.064 2159.82 760.843C2210.94 704.192 2261.34 677.789 2305.6 684.399C2340.7 689.644 2370.46 716.263 2391.57 761.382C2417.88 817.53 2432.28 900.907 2446.17 981.555C2455.07 1033.18 2464.12 1086.56 2476.54 1132.43C2493.16 1194.76 2516.85 1243.22 2546.93 1276.45C2575.65 1308.31 2610.04 1325.77 2648.77 1328.32C2684.31 1330.66 2722.79 1320.42 2763.28 1297.86C2803.77 1275.3 2845.34 1240.85 2886.87 1195.51C2974.32 1100.1 3057.09 961.222 3126.27 793.928C3190.52 638.633 3244.22 463.723 3296.13 294.597C3342.8 142.93 3390.86 -13.875 3446.54 -156.562C3490.87 -270.115 3546.11 -375.693 3602.11 -453.466C3660.16 -534.257 3714.11 -577.832 3753.88 -576.036C3782.28 -574.815 3803.39 -551.285 3816.67 -506.094L3817.71 -506.381C3804.28 -552.075 3782.82 -575.856 3753.92 -577.114H3751.59C3711.63 -577.114 3658.26 -533.539 3601.22 -454.041C3545.18 -376.052 3489.94 -270.51 3445.53 -156.885C3389.82 -14.1622 3341.68 142.678 3295.09 294.346C3243.18 463.472 3189.48 638.345 3125.3 793.677C3056.16 960.827 2973.45 1099.6 2886.08 1194.94C2844.62 1240.17 2803.12 1274.54 2762.74 1297.07C2722.36 1319.59 2684.16 1329.69 2648.84 1327.39C2610.39 1324.87 2576.4 1307.52 2547.76 1275.87C2517.78 1242.75 2494.16 1194.47 2477.58 1132.18C2465.34 1086.23 2456.04 1032.85 2447.24 981.303C2433.32 900.584 2418.92 817.135 2392.57 760.843C2371.25 715.365 2341.24 688.566 2305.78 683.249C2261.16 676.604 2210.4 703.115 2159.03 760.017C2113.62 810.309 2068.14 882.838 2024.2 952.924C2003.49 985.974 1982.06 1020.1 1960.92 1051.53C1881.94 1168.57 1800.85 1257.34 1719.37 1315.39C1643.98 1368.91 1568.03 1396.9 1493.04 1398.55C1490.71 1398.55 1488.37 1398.55 1485.86 1398.55C1358.25 1398.55 1234.58 1322.36 1127.72 1177.73C1043.47 1063.71 968.408 918.617 895.789 778.302C792.765 579.18 686.188 373.269 552.114 253.824C481.182 190.707 400.881 150.976 313.509 135.745C229.367 121.124 137.615 128.955 40.6938 159.059C-53.1042 188.229 -152.682 238.485 -255.203 308.535C-355.283 376.789 -458.917 464.477 -563.268 568.942C-591.985 597.68 -621.385 628.287 -649.815 657.816C-764.397 776.973 -882.892 900.153 -990.367 940.531C-1049.52 962.767 -1105.67 959.857 -1157.29 931.873C-1236.26 888.981 -1347.54 762.388 -1427.55 402.69C-1470.38 210.142 -1499.02 -12.438 -1526.7 -227.689C-1549.85 -407.772 -1573.83 -594.105 -1606 -761.938C-1644.98 -965.371 -1695.27 -1123.9 -1755.51 -1233.14C-1826.4 -1361.75 -1911.23 -1421.7 -2007.54 -1411.36V-1410.28C-1911.62 -1420.59 -1827.23 -1360.81 -1756.55 -1232.64C-1696.06 -1123.18 -1645.8 -964.76 -1606.89 -761.435C-1574.59 -593.567 -1550.79 -407.341 -1527.63 -227.258C-1499.96 -11.9711 -1471.31 210.609 -1428.45 403.193C-1384.23 601.955 -1301.2 855.249 -1157.61 933.095C-1105.7 961.222 -1049.24 964.168 -989.793 941.824C-882.103 901.339 -763.644 778.086 -648.774 658.857C-620.344 629.329 -590.945 598.758 -562.228 569.984C-458.127 465.591 -354.385 378.01 -254.341 309.685C-151.892 239.742 -52.4583 189.486 41.2678 160.388C138.01 130.32 229.618 122.489 313.58 137.11C400.737 152.305 480.859 191.929 551.647 254.902C685.578 374.095 792.155 579.899 895.071 778.913C967.475 919.3 1042.86 1064.43 1127 1178.52C1234.04 1323.4 1358.03 1399.77 1486 1399.77Z" fill="url(#paint15_radial)"/>
<path d="M1505.6 1424.56H1511.38C1586.76 1423.19 1663.04 1394.99 1738.68 1340.82C1820.59 1282.12 1902.4 1192.17 1981.8 1073.48C2003.09 1041.69 2024.63 1007.17 2045.48 973.76C2089.67 902.884 2135.23 829.636 2180.89 778.877C2232.18 721.652 2282.62 694.961 2326.73 701.678C2361.77 707.031 2391.35 734.009 2412.24 779.703C2438.23 836.605 2452.16 920.989 2465.65 1002.61C2474.27 1054.87 2483.21 1108.9 2495.23 1155.46C2511.53 1218.65 2534.9 1267.54 2564.87 1301.27C2593.59 1333.6 2627.51 1351.28 2666.1 1353.97C2701.6 1356.45 2740.09 1346.18 2780.61 1323.4C2821.14 1300.62 2862.85 1265.92 2904.53 1220.05C2992.33 1123.56 3075.68 982.956 3145.57 813.83C3210.44 656.702 3264.89 479.745 3317.56 308.679C3364.76 155.251 3413.58 -3.38501 3469.86 -147.545C3514.7 -262.499 3570.38 -369.118 3626.66 -447.898C3683.81 -527.899 3736.83 -571.725 3776.31 -571.725H3778.79C3807.08 -570.396 3828.01 -546.579 3841.04 -500.849L3842.08 -501.136C3828.9 -547.333 3807.65 -571.437 3778.86 -572.803C3738.66 -574.671 3684.38 -530.593 3625.8 -448.616C3569.44 -369.765 3513.73 -263.001 3468.86 -148.012C3412.57 -3.63647 3363.75 155.036 3316.51 308.464C3263.85 479.565 3209.43 656.451 3144.57 813.507C3074.71 982.669 2991.43 1123.02 2903.74 1219.44C2862.13 1265.17 2820.53 1299.91 2780.07 1322.61C2739.62 1345.31 2701.42 1355.51 2666.17 1353.04C2627.91 1350.38 2594.06 1332.78 2565.66 1300.7C2535.94 1267.14 2512.64 1218.25 2496.42 1155.39C2484.43 1108.69 2475.49 1054.8 2466.88 1002.61C2453.34 920.917 2439.38 836.462 2413.35 779.452C2392.32 733.398 2362.45 706.205 2327.2 700.816C2282.62 693.991 2231.9 720.825 2180.38 778.302C2134.8 829.169 2089.06 902.452 2044.84 973.365C2024.02 1006.77 2002.48 1041.3 1981.19 1073.09C1901.86 1191.63 1820.12 1281.44 1738.32 1340.1C1662.93 1393.99 1586.62 1422.3 1511.63 1423.66H1505.88C1378.38 1423.66 1255.11 1346.35 1149.04 1199.72C1065.54 1084.22 991.27 937.478 919.477 795.186C817.602 593.55 712.245 385.052 578.96 264.134C508.459 200.155 428.518 159.957 341.36 144.331C257.47 129.387 165.825 137.146 68.9402 167.573C-24.8579 196.922 -124.471 247.682 -227.172 318.45C-327.395 387.494 -431.28 476.009 -535.883 581.623C-564.601 610.685 -594.18 641.579 -622.717 671.431C-737.587 791.809 -856.548 916.319 -964.023 957.056C-1022.79 979.328 -1078.46 976.49 -1129.58 948.65C-1208.55 905.542 -1319.4 777.476 -1397.8 412.21C-1439.62 217.291 -1467.12 -8.09094 -1493.71 -225.857C-1515.97 -408.167 -1538.98 -596.655 -1570.28 -766.644C-1608.51 -972.663 -1657.98 -1133.24 -1717.6 -1243.88C-1787.74 -1374.1 -1871.96 -1434.89 -1968.3 -1424.58V-1423.5C-1872.57 -1433.77 -1788.57 -1373.21 -1718.64 -1243.38C-1659.13 -1132.84 -1609.7 -972.447 -1571.79 -766.608C-1540.52 -596.691 -1517.51 -408.203 -1495.26 -225.929C-1468.66 -8.01917 -1441.16 217.291 -1399.31 412.246C-1356.02 614.098 -1274.21 871.128 -1130.55 949.404C-1079.14 977.424 -1023.14 980.262 -964.13 957.882C-856.44 917.073 -737.443 792.636 -622.394 671.97C-593.892 642.118 -564.385 611.224 -535.596 582.162C-430.993 476.62 -327.18 388.177 -226.885 319.133C-124.292 248.472 -24.7502 197.748 68.9402 168.256C165.646 137.972 257.111 130.177 340.858 145.085C427.8 160.532 507.562 200.766 577.776 264.601C710.917 385.375 816.202 593.801 918.041 795.366C989.834 937.478 1064.14 1084.48 1147.78 1200.04C1254.14 1347.11 1377.73 1424.56 1505.6 1424.56Z" fill="url(#paint16_radial)"/>
<path d="M1525.19 1449.35H1529.72C1604.88 1448.27 1681.49 1419.96 1757.37 1365.25C1839.58 1305.94 1921.82 1214.95 2001.83 1094.75C2023.37 1062.42 2044.91 1027.65 2065.87 993.879C2110.31 922.248 2156.29 848.175 2201.95 796.841C2253.39 739.04 2303.83 712.134 2347.87 718.959C2382.84 724.384 2412.24 751.721 2432.88 797.99C2458.54 855.467 2472.04 941 2485.14 1023.59C2493.51 1076.47 2502.16 1131.18 2513.86 1178.31C2529.8 1242.07 2552.84 1291.68 2582.42 1325.81C2610.78 1358.5 2644.67 1376.53 2683.15 1379.33C2718.51 1381.96 2757.03 1371.61 2797.59 1348.66C2838.15 1325.7 2880.15 1290.57 2921.86 1244.26C3009.99 1146.8 3093.99 1004.69 3164.6 833.41C3230.11 674.522 3285.28 495.733 3338.66 322.511C3386.55 167.324 3436.05 6.8551 3493.02 -139.136C3538.32 -255.384 3594.46 -363.297 3650.96 -442.939C3708.4 -523.73 3761.42 -567.951 3800.83 -567.951H3803.45C3831.63 -566.514 3852.38 -542.338 3865.12 -496.105L3866.16 -496.392C3853.27 -543.092 3832.2 -567.52 3803.52 -568.993C3763.46 -571.076 3709.01 -526.496 3650.1 -443.621C3593.45 -363.872 3537.28 -255.887 3491.94 -139.568C3435.04 6.45972 3385.54 166.928 3337.58 322.152C3284.2 495.194 3229 674.199 3163.52 832.943C3092.95 1004.12 3009.16 1146.09 2921.07 1243.51C2879.29 1289.71 2837.58 1324.77 2797.09 1347.69C2756.59 1370.6 2718.33 1380.81 2683.22 1378.22C2645.06 1375.42 2611.43 1357.53 2583.25 1325.05C2553.78 1291.07 2530.8 1241.6 2515.05 1178.02C2503.27 1130.93 2494.62 1076.25 2486.33 1023.55C2473.26 940.928 2459.73 855.359 2433.99 797.667C2413.21 750.967 2383.52 723.45 2348.16 717.953C2303.76 711.056 2253 738.106 2201.27 796.23C2155.58 847.6 2109.56 921.709 2065.08 993.376C2044.15 1027.14 2022.47 1062.06 2001.08 1094.21C1921.13 1214.3 1839 1305.22 1756.98 1364.43C1681.27 1419.03 1604.85 1447.26 1529.9 1448.38H1525.41C1397.98 1448.38 1275.14 1369.99 1170.03 1221.34C1087.22 1104.38 1013.81 955.513 942.806 811.821C842.08 607.669 737.908 396.549 605.377 274.015C535.271 209.354 455.688 168.329 368.746 152.523C285.071 137.292 193.57 145.087 96.6851 175.658C2.95874 205.258 -96.7266 256.485 -199.606 327.936C-300.117 397.663 -404.218 487.111 -509.036 593.767C-537.933 623.152 -567.512 654.369 -596.158 684.581C-711.709 806.037 -830.958 931.875 -938.648 972.936C-997.016 995.244 -1052.23 992.478 -1102.8 964.781C-1181.78 921.458 -1292.27 791.955 -1369.01 421.049C-1409.83 223.759 -1436.21 -4.24512 -1461.7 -224.705C-1483.24 -409.207 -1505.1 -599.959 -1535.54 -771.994C-1572.4 -980.349 -1620.97 -1142.9 -1679.95 -1254.91C-1749.34 -1386.78 -1833.23 -1448.43 -1929.36 -1438.12V-1437.04C-1833.73 -1447.31 -1750.2 -1385.88 -1681.03 -1254.44C-1622.12 -1142.51 -1573.59 -980.133 -1536.72 -771.851C-1506.32 -599.851 -1484.24 -409.027 -1462.92 -224.634C-1437.43 -4.13757 -1411.05 223.903 -1370.23 421.228C-1327.8 626.17 -1247.11 886.972 -1103.49 965.679C-1052.62 993.556 -997.087 996.322 -938.36 973.906C-830.67 932.738 -711.314 806.827 -595.906 685.048C-567.189 654.873 -537.718 623.655 -508.821 594.27C-403.787 487.65 -299.687 398.237 -199.176 328.583C-96.4395 257.203 3.17383 206.013 96.7922 176.448C193.498 145.913 284.855 138.118 368.351 153.314C455.077 169.084 534.481 209.893 604.408 274.554C736.723 396.944 840.823 607.993 941.514 812.072C1012.52 955.98 1085.96 1104.81 1168.85 1221.85C1274.28 1370.78 1397.4 1449.35 1525.19 1449.35Z" fill="url(#paint17_radial)"/>
</g>
</g>
<defs>
<radialGradient id="paint0_radial" cx="0" cy="0" r="1" gradientUnits="userSpaceOnUse" gradientTransform="translate(429.935 -90.9841) rotate(90) scale(1119.02 3024.49)">
<stop stop-color="#642ADF"/>
<stop offset="0.442708" stop-color="#F6884A"/>
<stop offset="1" stop-color="#F1D881"/>
</radialGradient>
<radialGradient id="paint1_radial" cx="0" cy="0" r="1" gradientUnits="userSpaceOnUse" gradientTransform="translate(461.686 -85.3423) rotate(90) scale(1138.17 3016.87)">
<stop stop-color="#642ADF"/>
<stop offset="0.442708" stop-color="#F6884A"/>
<stop offset="1" stop-color="#F1D881"/>
</radialGradient>
<radialGradient id="paint2_radial" cx="0" cy="0" r="1" gradientUnits="userSpaceOnUse" gradientTransform="translate(493.384 -79.6965) rotate(90) scale(1157.31 3009.58)">
<stop stop-color="#642ADF"/>
<stop offset="0.442708" stop-color="#F6884A"/>
<stop offset="1" stop-color="#F1D881"/>
</radialGradient>
<radialGradient id="paint3_radial" cx="0" cy="0" r="1" gradientUnits="userSpaceOnUse" gradientTransform="translate(525.151 -74.1053) rotate(90) scale(1176.47 3002.04)">
<stop stop-color="#642ADF"/>
<stop offset="0.442708" stop-color="#F6884A"/>
<stop offset="1" stop-color="#F1D881"/>
</radialGradient>
<radialGradient id="paint4_radial" cx="0" cy="0" r="1" gradientUnits="userSpaceOnUse" gradientTransform="translate(556.635 -68.33) rotate(90) scale(1195.48 2994.39)">
<stop stop-color="#642ADF"/>
<stop offset="0.442708" stop-color="#F6884A"/>
<stop offset="1" stop-color="#F1D881"/>
</radialGradient>
<radialGradient id="paint5_radial" cx="0" cy="0" r="1" gradientUnits="userSpaceOnUse" gradientTransform="translate(588.452 -62.4978) rotate(90) scale(1214.44 2987.09)">
<stop stop-color="#642ADF"/>
<stop offset="0.442708" stop-color="#F6884A"/>
<stop offset="1" stop-color="#F1D881"/>
</radialGradient>
<radialGradient id="paint6_radial" cx="0" cy="0" r="1" gradientUnits="userSpaceOnUse" gradientTransform="translate(620.116 -57.1367) rotate(90) scale(1233.86 2979.59)">
<stop stop-color="#642ADF"/>
<stop offset="0.442708" stop-color="#F6884A"/>
<stop offset="1" stop-color="#F1D881"/>
</radialGradient>
<radialGradient id="paint7_radial" cx="0" cy="0" r="1" gradientUnits="userSpaceOnUse" gradientTransform="translate(651.778 -51.3838) rotate(90) scale(1252.9 2972.19)">
<stop stop-color="#642ADF"/>
<stop offset="0.442708" stop-color="#F6884A"/>
<stop offset="1" stop-color="#F1D881"/>
</radialGradient>
<radialGradient id="paint8_radial" cx="0" cy="0" r="1" gradientUnits="userSpaceOnUse" gradientTransform="translate(683.454 -45.5713) rotate(90) scale(1271.87 2964.74)">
<stop stop-color="#642ADF"/>
<stop offset="0.442708" stop-color="#F6884A"/>
<stop offset="1" stop-color="#F1D881"/>
</radialGradient>
<radialGradient id="paint9_radial" cx="0" cy="0" r="1" gradientUnits="userSpaceOnUse" gradientTransform="translate(715.042 -40.2285) rotate(90) scale(1291.21 2957.06)">
<stop stop-color="#642ADF"/>
<stop offset="0.442708" stop-color="#F6884A"/>
<stop offset="1" stop-color="#F1D881"/>
</radialGradient>
<radialGradient id="paint10_radial" cx="0" cy="0" r="1" gradientUnits="userSpaceOnUse" gradientTransform="translate(746.827 -34.3296) rotate(90) scale(1310.17 2949.79)">
<stop stop-color="#642ADF"/>
<stop offset="0.442708" stop-color="#F6884A"/>
<stop offset="1" stop-color="#F1D881"/>
</radialGradient>
<radialGradient id="paint11_radial" cx="0" cy="0" r="1" gradientUnits="userSpaceOnUse" gradientTransform="translate(778.616 -28.7764) rotate(90) scale(1329.4 2942.45)">
<stop stop-color="#642ADF"/>
<stop offset="0.442708" stop-color="#F6884A"/>
<stop offset="1" stop-color="#F1D881"/>
</radialGradient>
<radialGradient id="paint12_radial" cx="0" cy="0" r="1" gradientUnits="userSpaceOnUse" gradientTransform="translate(810.151 -23.1787) rotate(90) scale(1348.59 2934.93)">
<stop stop-color="#642ADF"/>
<stop offset="0.442708" stop-color="#F6884A"/>
<stop offset="1" stop-color="#F1D881"/>
</radialGradient>
<radialGradient id="paint13_radial" cx="0" cy="0" r="1" gradientUnits="userSpaceOnUse" gradientTransform="translate(841.761 -17.5671) rotate(90) scale(1367.77 2927.52)">
<stop stop-color="#642ADF"/>
<stop offset="0.442708" stop-color="#F6884A"/>
<stop offset="1" stop-color="#F1D881"/>
</radialGradient>
<radialGradient id="paint14_radial" cx="0" cy="0" r="1" gradientUnits="userSpaceOnUse" gradientTransform="translate(873.473 -11.9918) rotate(90) scale(1386.98 2919.86)">
<stop stop-color="#642ADF"/>
<stop offset="0.442708" stop-color="#F6884A"/>
<stop offset="1" stop-color="#F1D881"/>
</radialGradient>
<radialGradient id="paint15_radial" cx="0" cy="0" r="1" gradientUnits="userSpaceOnUse" gradientTransform="translate(905.086 -6.36353) rotate(90) scale(1406.14 2912.62)">
<stop stop-color="#642ADF"/>
<stop offset="0.442708" stop-color="#F6884A"/>
<stop offset="1" stop-color="#F1D881"/>
</radialGradient>
<radialGradient id="paint16_radial" cx="0" cy="0" r="1" gradientUnits="userSpaceOnUse" gradientTransform="translate(936.886 -0.569336) rotate(90) scale(1425.13 2905.19)">
<stop stop-color="#642ADF"/>
<stop offset="0.442708" stop-color="#F6884A"/>
<stop offset="1" stop-color="#F1D881"/>
</radialGradient>
<radialGradient id="paint17_radial" cx="0" cy="0" r="1" gradientUnits="userSpaceOnUse" gradientTransform="translate(968.4 5.06128) rotate(90) scale(1444.29 2897.76)">
<stop stop-color="#642ADF"/>
<stop offset="0.442708" stop-color="#F6884A"/>
<stop offset="1" stop-color="#F1D881"/>
</radialGradient>
<clipPath id="clip0">
<rect width="1920" height="918" transform="matrix(-1 0 0 1 1920 0)" fill="white"/>
</clipPath>
</defs>
</svg>
