<svg width="1920" height="1266" viewBox="0 0 1920 1266" fill="none" xmlns="http://www.w3.org/2000/svg">
<g clip-path="url(#clip0)">
<path d="M966.844 875.747C956.496 875.747 946.115 875.35 935.766 874.49C867.528 868.932 799.984 844.715 734.985 802.899C664.697 757.642 596.558 690.948 532.585 604.669C514.666 580.518 496.68 554.35 479.29 529.009C442.427 475.316 404.307 419.836 364.799 381.064C320.266 337.428 274.31 316.553 232.025 320.721C198.402 324.03 168.448 343.615 145.405 377.326C116.774 419.241 97.5983 481.933 79.0509 542.738C67.1819 581.544 54.8832 621.706 40.204 656.244C19.7721 704.28 -6.74292 741.134 -38.5148 765.714C-67.9164 788.887 -104.306 801.39 -141.732 801.179C-175.19 801.179 -210.565 791.883 -246.8 773.621C-283.036 755.359 -319.535 728.298 -355.274 693.363C-430.323 619.854 -498.231 514.717 -551.658 389.004C-602.043 270.568 -641.122 137.577 -678.911 8.85266C-712.865 -106.605 -747.909 -226.033 -791.021 -334.875C-824.909 -420.327 -869.542 -500.287 -916.654 -559.836C-965.452 -621.568 -1013.13 -656.139 -1050.92 -657.131H-1052.67C-1080.11 -657.131 -1102 -639.73 -1117.77 -605.423L-1118.69 -605.853C-1102.72 -640.557 -1080.54 -658.124 -1052.57 -658.124H-1050.78C-1012.73 -657.098 -964.824 -622.428 -915.761 -560.464C-868.583 -500.916 -823.884 -420.823 -789.963 -335.272C-746.818 -226.496 -711.773 -107.201 -677.886 8.19104C-640.097 136.816 -600.985 269.84 -550.666 388.21C-497.272 513.923 -429.431 618.96 -354.481 692.37C-318.907 727.239 -282.474 754.168 -246.271 772.43C-210.069 790.692 -174.958 799.888 -141.633 799.888C-104.466 800.075 -68.3346 787.643 -39.1429 764.622C-7.47034 740.141 18.9126 703.453 39.2782 655.45C53.9574 620.978 66.2231 580.849 78.092 542.043C96.6725 481.337 115.881 418.579 144.611 376.631C167.754 342.655 198.005 322.938 231.926 319.597C274.542 315.395 320.728 336.369 365.493 380.237C405.167 419.042 443.22 474.588 480.117 528.314C497.507 553.655 515.492 579.824 533.378 603.941C597.385 690.253 665.359 756.848 735.415 802.072C800.248 843.921 867.66 867.939 935.7 873.497C1064.31 884.017 1194.77 828.968 1313.06 714.37C1400.38 629.811 1481.11 521.598 1559.2 416.925C1670.02 268.451 1784.58 114.882 1919.57 27.2134C1989.82 -18.7729 2069.77 -47.8099 2153.15 -57.6102C2233.68 -67.171 2319.97 -59.5952 2409.6 -35.1141C2496.39 -11.427 2587.21 28.3383 2679.51 83.0568C2769.61 136.485 2861.78 204.503 2953.49 285.257C2978.72 307.488 3004.51 331.109 3029.53 353.936C3129.97 445.972 3233.82 541.117 3332.8 573.538C3426.2 604.139 3514.64 578.93 3595.71 498.606C3666.19 428.736 3729.01 319.96 3782.44 175.324C3835.86 30.6869 3877.82 -136.843 3918.42 -298.881C3952.4 -434.519 3987.55 -574.657 4029.21 -700.866C4079.72 -853.774 4137.91 -972.606 4202.21 -1054.02C4277.89 -1149.96 4362.07 -1193.6 4452.49 -1184.04V-1183.04C4362.46 -1192.57 4278.55 -1148.94 4203.11 -1053.43C4138.87 -972.077 4080.78 -853.377 4030.26 -700.569C3988.18 -574.392 3953.07 -434.122 3919.21 -298.484C3878.58 -136.38 3836.56 31.1501 3783.16 175.82C3729.77 320.49 3666.79 429.497 3596.2 499.466C3514.9 580.088 3426.1 605.33 3332.27 574.663C3233.09 542.143 3129.18 446.931 3028.67 354.829C3003.78 332.002 2977.99 308.514 2952.63 286.183C2860.99 205.462 2768.85 137.477 2678.82 84.0823C2586.58 29.3969 2495.86 -10.3021 2409.17 -33.9893C2319.64 -58.4371 2233.49 -65.9801 2153.08 -56.4524C2069.86 -46.6704 1990.05 -17.6902 1919.93 28.2058C1785.24 115.775 1670.72 269.278 1559.96 417.686C1481.87 522.392 1401.1 630.638 1313.72 715.429C1204.88 820.664 1085.43 875.747 966.844 875.747Z" fill="url(#paint0_radial)"/>
<path d="M948.428 898.574C938.774 898.574 929.088 898.21 919.434 897.449C851.063 892.156 783.288 867.939 717.926 825.494C647.373 779.675 578.804 711.955 514.169 624.22C496.118 599.772 478.033 573.24 460.544 547.601C423.449 493.148 384.966 436.874 345.293 397.638C300.66 353.407 254.672 332.334 212.453 336.7C178.962 340.009 149.173 359.858 126.494 394.264C98.16 436.841 79.3813 500.459 61.1976 561.992C49.5931 601.393 37.5588 642.151 23.078 677.186C3.00989 725.85 -23.2076 763.2 -54.6158 788.177C-83.5896 811.724 -119.78 824.574 -157.106 824.568H-157.998C-191.06 824.568 -226.27 815.305 -262.273 797.044C-298.277 778.782 -335.306 751.257 -371.177 715.892C-446.623 641.423 -515.126 534.6 -569.28 406.968C-620.227 286.878 -660.033 151.968 -698.483 21.5234C-732.966 -95.4563 -768.639 -216.439 -812.313 -326.67C-846.697 -413.412 -891.66 -494.464 -939.202 -554.939C-988.331 -617.531 -1036.17 -652.433 -1073.89 -653.227C-1102 -653.79 -1124.21 -636.157 -1140.02 -600.692L-1140.91 -601.089C-1124.91 -636.984 -1102.36 -654.848 -1073.83 -654.22C-1035.81 -653.426 -987.868 -618.391 -938.276 -555.568C-890.767 -495.06 -845.705 -413.942 -811.255 -327.1C-767.581 -216.803 -731.908 -95.8202 -697.392 21.1595C-658.942 151.604 -619.169 286.481 -568.255 406.505C-514.134 534.004 -445.73 640.729 -370.35 715.098C-334.578 750.43 -298.013 777.657 -261.711 796.084C-225.41 814.511 -190.894 823.51 -157.866 823.51H-156.973C-119.892 823.525 -83.9353 810.768 -55.1448 787.383C-23.7697 762.505 2.24951 725.321 22.2515 676.822C36.6992 641.82 48.7004 601.096 60.3711 561.695C78.5548 500.095 97.3666 436.411 125.766 393.702C148.744 359.23 178.664 339.182 212.552 335.708C255.102 331.374 301.321 352.547 346.284 397.01C385.958 436.312 424.441 492.618 461.569 547.105C479.058 572.744 497.143 599.276 515.161 623.691C579.73 711.327 648.232 778.98 718.686 824.734C783.883 867.079 851.493 891.262 919.698 896.522C1047.58 906.447 1177.05 850.207 1293.98 734.418C1380.67 648.404 1460.65 538.57 1537.98 432.276C1647.71 281.453 1761.21 125.469 1895.27 36.3445C1964.95 -10.3683 2044.66 -39.9843 2127.92 -50.1001C2208.26 -60.0248 2294.42 -52.3499 2384.05 -27.6703C2470.8 -3.75159 2561.65 36.4436 2654.12 91.8237C2744.35 145.88 2836.75 214.725 2928.73 296.538C2954.05 319.034 2979.91 342.854 3004.77 366.011C3105.54 459.205 3209.75 555.574 3308.73 588.326C3402.17 619.258 3490.31 593.52 3570.71 511.906C3640.64 440.91 3702.73 330.448 3755.23 183.628C3807.73 36.8075 3848.66 -133.203 3888.27 -297.656C3921.33 -435.247 3955.64 -577.535 3996.51 -705.63C4046.1 -860.853 4103.46 -981.472 4167.17 -1064.18C4242.15 -1161.51 4325.86 -1206 4416.22 -1196.51V-1195.52C4326.26 -1205.01 4242.81 -1160.65 4168.06 -1063.62C4104.42 -980.909 4047.06 -860.489 3997.56 -705.365C3956.7 -577.303 3922.45 -435.048 3889.32 -297.458C3849.65 -132.972 3808.75 37.0723 3756.25 183.926C3703.75 330.779 3641.5 441.506 3571.37 512.6C3490.64 594.512 3402.17 620.317 3308.34 589.285C3209.15 556.467 3104.88 459.999 3004.17 366.74C2979.18 343.582 2953.33 319.729 2928.13 297.266C2836.19 215.519 2743.85 146.675 2653.73 92.684C2561.35 37.3369 2470.57 -2.8252 2383.91 -26.7107C2294.42 -51.3572 2208.39 -58.9 2128.18 -49.1077C2045.07 -39.0222 1965.51 -9.46204 1895.96 37.1716C1762.03 126.197 1648.6 281.982 1538.9 432.838C1461.54 539.165 1381.56 649.132 1294.84 735.113C1186.17 842.466 1067.12 898.574 948.428 898.574Z" fill="url(#paint1_radial)"/>
<path d="M930.178 921.401C921.152 921.401 912.192 921.07 903.199 920.408C834.697 915.38 766.657 891.064 700.964 848.09C630.048 801.775 560.983 732.963 495.72 643.773C477.603 618.994 459.353 592.131 441.764 566.128C404.438 510.979 365.724 453.978 326.05 414.213C281.12 369.419 235.066 348.048 192.979 352.547C159.554 356.087 130.162 376.3 107.449 411.037C79.4135 454.276 61.1636 518.853 43.2444 581.28C31.8383 621.276 20.1016 662.63 5.81921 698.193C-14.0176 747.453 -39.6731 785.3 -70.8497 810.674C-99.4104 834.526 -135.379 847.685 -172.579 847.892H-174.331C-207.227 847.892 -242.041 838.629 -277.813 820.367C-314.18 801.742 -351.077 774.052 -387.146 738.289C-462.989 662.828 -532.087 554.483 -586.935 424.932C-638.478 303.221 -678.945 166.458 -718.089 34.1613C-753.167 -84.4396 -789.468 -207.076 -833.803 -318.829C-868.65 -406.862 -914.142 -489.072 -961.883 -550.407C-1011.47 -613.826 -1059.35 -649.092 -1097 -649.654H-1098.03C-1125.44 -649.654 -1147.12 -631.69 -1162.46 -596.259L-1163.39 -596.623C-1147.65 -633.014 -1125.3 -651.044 -1096.97 -650.647C-1059.02 -650.018 -1010.78 -614.62 -961.122 -550.936C-913.283 -489.634 -867.757 -407.358 -832.878 -319.358C-788.642 -207.54 -752.374 -84.9027 -717.163 33.7311C-678.052 166.061 -637.585 302.725 -586.043 424.402C-531.26 553.821 -462.228 662.067 -386.452 737.396C-350.482 773.191 -313.717 800.749 -277.35 819.308C-241.677 837.504 -207.029 846.734 -174.298 846.734H-172.546C-135.615 846.51 -99.9095 833.447 -71.5441 809.781C-40.4995 784.505 -14.811 746.924 4.86035 697.697C19.0767 662.166 30.8464 620.846 42.2195 580.883C60.0065 518.357 78.5869 453.714 106.557 410.375C129.27 375.374 159.091 354.995 192.813 351.422C235.297 346.923 281.55 368.361 326.678 413.386C366.583 453.085 405.232 510.252 442.591 565.565C460.212 591.568 478.396 618.498 496.514 643.177C561.71 732.268 630.676 800.948 701.493 847.263C767.021 890.27 834.895 914.421 903.167 919.416C1030.42 928.778 1158.8 871.645 1274.44 754.301C1360.4 666.996 1439.75 555.409 1516.25 447.461C1624.93 294.322 1737.3 135.956 1870.64 45.3099C1939.76 -2.09827 2019.21 -32.2711 2102.36 -42.6893C2182.5 -52.7795 2268.53 -45.2367 2358.12 -20.3256C2444.84 3.7915 2535.8 44.4169 2628.37 100.459C2718.76 155.111 2811.36 224.849 2903.63 307.654C2929.06 330.448 2954.98 354.665 2980.07 378.087C3081.17 472.471 3185.71 569.966 3284.7 603.048C3378.13 634.245 3465.97 608.043 3545.88 525.139C3615.31 453.019 3676.61 340.902 3728.18 191.899C3779.76 42.8949 3819.63 -129.63 3858.24 -296.498C3890.51 -436.107 3923.9 -580.479 3964.04 -710.46C4012.57 -867.966 4069.21 -990.437 4132.35 -1074.37C4206.61 -1173.22 4289.99 -1218.47 4380.31 -1208.95V-1207.95C4290.45 -1217.45 4207.4 -1172.29 4133.38 -1073.77C4070 -989.908 4013.43 -867.502 3964.93 -710.129C3924.86 -580.148 3891.47 -435.776 3859.14 -296.201C3820.52 -129.299 3780.62 43.259 3729.07 192.263C3677.53 341.266 3616.04 453.614 3546.54 525.9C3466.44 609.102 3378.26 635.403 3284.43 604.074C3185.25 570.991 3080.61 473.265 2979.44 378.815C2954.35 355.392 2928.43 331.209 2903.01 308.415C2810.77 225.709 2718.23 155.938 2627.9 101.286C2535.33 45.3102 2444.55 4.71777 2357.89 -19.3662C2268.43 -44.2443 2182.67 -51.754 2102.53 -41.6969C2019.49 -31.3186 1940.13 -1.20154 1871.1 46.1371C1737.9 136.684 1625.59 294.951 1516.95 448.056C1440.35 556.005 1361.13 667.658 1275.04 754.996C1167.56 864.267 1048.8 921.401 930.178 921.401Z" fill="url(#paint2_radial)"/>
<path d="M911.929 944.195C903.565 944.195 895.399 943.93 886.869 943.335C818.267 938.604 750.029 914.156 684.005 870.553C612.692 823.609 543.132 753.838 477.274 663.192C459.057 638.248 440.741 611.021 422.987 584.82C385.429 528.976 346.55 471.214 306.578 430.953C261.483 385.398 215.396 363.861 173.375 368.46C140.049 372.099 110.559 392.643 88.3745 428.008C60.6361 471.909 42.6178 537.412 25.2275 600.766C14.0859 641.325 2.58069 683.273 -11.4374 719.399C-30.8112 769.255 -56.2684 807.597 -87.1476 833.402C-115.299 857.57 -151.06 871.04 -188.15 871.447C-221.508 871.976 -256.95 862.68 -293.449 843.922C-329.949 825.164 -366.945 797.242 -403.18 760.918C-479.419 684.53 -549.112 574.663 -604.655 443.326C-656.759 319.961 -697.92 181.312 -737.759 47.2288C-773.432 -72.993 -810.494 -197.317 -855.093 -310.592C-890.403 -399.914 -936.325 -483.282 -984.396 -545.312C-1034.19 -609.591 -1082.32 -645.221 -1119.95 -645.651H-1120.64C-1148.05 -645.651 -1169.64 -627.39 -1184.78 -591.396L-1185.71 -591.76C-1170.37 -628.151 -1148.48 -646.644 -1120.64 -646.644H-1119.95C-1082.06 -646.214 -1033.66 -610.451 -983.669 -545.941C-935.564 -483.812 -889.576 -400.378 -854.234 -311.055C-809.469 -197.747 -772.573 -73.39 -736.867 46.8318C-697.193 180.882 -655.9 319.498 -603.795 442.829C-548.318 574.167 -478.692 683.935 -402.518 760.422C-366.383 796.647 -329.552 824.503 -293.086 843.128C-257.644 861.323 -223.227 870.553 -190.761 870.553H-188.249C-151.336 870.103 -115.767 856.63 -87.8087 832.509C-57.0618 806.803 -31.6047 768.593 -12.3961 718.903C1.58875 682.843 13.094 640.928 24.2356 600.369C41.6589 536.949 59.6774 471.347 87.5149 427.347C109.963 391.849 139.619 371.107 173.243 367.467C215.594 362.836 261.913 384.472 307.24 430.093C347.277 470.42 386.19 528.215 423.781 584.125C441.501 610.591 459.817 637.686 478.034 662.762C543.826 753.309 613.32 822.981 684.501 869.859C750.392 913.23 818.465 937.612 886.935 942.343C1013.56 951.109 1140.91 892.983 1255.24 774.25C1340.6 685.589 1419.02 572.447 1494.86 462.745C1602.48 307.257 1713.76 146.476 1846.34 54.3745C1914.91 6.26038 1994.12 -24.4923 2077.17 -35.2458C2157.08 -45.5676 2243.01 -38.058 2332.57 -12.9484C2419.29 11.4004 2510.27 52.4559 2603.01 109.126C2693.53 164.44 2786.37 234.84 2878.94 318.869C2904.4 342.027 2930.45 366.475 2955.61 390.162C3057.07 485.737 3162.11 584.522 3260.96 617.902C3320.11 637.752 3377.47 634.443 3431.39 607.58C3563.64 541.779 3651.15 349.768 3701.21 200.269C3751.85 49.1145 3790.7 -125.925 3828.29 -295.175C3859.73 -436.835 3892.23 -583.291 3931.51 -715.323C3979.08 -875.112 4034.92 -999.37 4097.44 -1084.62C4171.04 -1184.96 4253.99 -1231.01 4344.11 -1221.45V-1220.49C4254.42 -1229.99 4171.77 -1184.1 4098.4 -1084.06C4035.92 -998.873 3980.14 -874.715 3932.6 -715.025C3893.32 -583.158 3860.82 -436.735 3829.38 -295.109C3791.79 -125.793 3752.95 49.2468 3702.3 200.467C3652.18 350.132 3564.56 542.408 3431.95 608.341C3377.8 635.271 3320.21 638.777 3260.8 618.729C3161.61 585.283 3056.61 486.399 2955.08 390.758C2929.92 367.037 2903.9 342.556 2878.44 319.465C2785.87 235.667 2693.3 165.135 2602.65 109.854C2510.08 53.2167 2419.09 12.1945 2332.47 -12.1212C2243.21 -37.1978 2157.25 -44.7074 2077.44 -34.3857C1994.56 -23.7064 1915.52 6.94568 1847.1 54.9371C1714.66 146.94 1603.44 307.621 1495.86 463.043C1419.82 572.645 1341.53 685.953 1256.13 774.68C1148.98 886.069 1030.52 944.195 911.929 944.195Z" fill="url(#paint3_radial)"/>
<path d="M893.71 967.022C885.974 967.022 878.271 966.79 870.567 966.261C801.833 961.795 733.363 937.248 667.042 893.281C595.366 845.774 525.309 774.978 458.757 682.909C440.408 657.469 421.96 629.977 404.14 603.214C366.285 546.609 327.173 488.12 287.07 447.362C241.875 401.41 195.755 379.708 153.833 384.34C120.772 388.111 91.4137 408.986 69.3619 444.748C41.8881 489.277 24.2994 555.74 7.27283 620.085C-3.60425 661.24 -14.8782 703.784 -28.6647 740.407C-47.6749 790.891 -72.8013 829.729 -103.383 855.931C-131.089 880.376 -166.592 894.145 -203.525 894.77H-206.832C-239.198 894.77 -273.516 885.507 -308.891 867.212C-345.523 848.256 -382.585 820.036 -418.985 783.281C-495.654 705.902 -565.909 594.513 -622.146 461.124C-674.846 336.105 -716.702 195.604 -757.168 59.7341C-793.536 -62.1088 -830.994 -188.12 -876.189 -302.883C-911.961 -393.496 -958.313 -478.022 -1006.68 -540.912C-1056.8 -606.018 -1105.07 -642.012 -1142.56 -642.244H-1142.93C-1170.33 -642.244 -1191.82 -623.685 -1206.73 -587.128L-1207.66 -587.492C-1192.55 -624.478 -1170.8 -643.236 -1142.93 -643.236H-1142.56C-1104.74 -643.005 -1056.21 -606.845 -1005.92 -541.508C-957.486 -478.651 -911.068 -393.96 -875.296 -303.314C-829.969 -188.517 -792.412 -62.5059 -756.276 59.37C-715.809 195.24 -673.986 335.708 -621.287 460.661C-565.083 593.95 -494.927 705.24 -418.357 782.488C-381.99 819.176 -345.06 847.362 -308.495 866.252C-271.929 885.143 -236.785 894.273 -203.625 893.678C-166.899 893.051 -131.592 879.379 -104.011 855.104C-73.5618 829.002 -48.5343 790.262 -29.5903 739.977C-15.8368 703.387 -4.56299 660.876 6.31421 619.755C23.3738 555.409 40.9954 488.88 68.5354 444.219C90.7195 408.192 120.21 387.152 153.734 383.38C195.986 378.55 242.371 400.484 287.864 446.667C328.066 487.491 367.21 545.915 405.065 602.651C422.885 629.316 441.433 656.906 459.65 682.314C526.036 774.316 595.961 845.013 667.538 892.487C733.661 936.354 802.064 960.868 870.6 965.269C996.597 973.473 1122.96 914.322 1235.99 794.166C1320.73 704.148 1398.39 589.054 1473.47 477.963C1580.03 320.16 1690.22 157.063 1822.04 63.4062C1890.03 14.5802 1968.99 -16.7445 2051.94 -27.8022C2131.62 -38.4218 2217.45 -30.9121 2307.01 -5.57092C2393.7 18.9432 2484.72 60.5942 2577.62 117.794C2668.24 173.736 2761.31 245.128 2854.17 330.018C2879.73 353.407 2905.85 378.219 2931.11 402.204C3032.9 498.937 3138.14 598.979 3237.12 632.69C3295.87 652.539 3352.84 649.231 3406.06 622.501C3538.31 556.336 3624.9 360.785 3674.26 208.572C3723.85 55.2349 3761.74 -122.253 3798.34 -293.984C3828.92 -437.628 3860.56 -586.169 3899.04 -719.988C3945.66 -882.092 4000.67 -1008.14 4062.63 -1094.68C4135.36 -1196.54 4218.02 -1243.32 4308.07 -1233.63V-1232.63C4218.51 -1242.13 4136.16 -1195.48 4063.42 -1093.95C4001.56 -1007.51 3946.55 -881.53 3900 -719.524C3861.52 -585.772 3829.88 -437.232 3799.29 -293.62C3762.73 -121.889 3724.91 55.6648 3675.18 209.035C3625.79 361.446 3539.07 557.063 3406.5 623.559C3352.9 650.422 3295.81 653.863 3236.82 633.782C3137.64 600.004 3032.27 499.897 2930.41 403.097C2905.19 379.113 2879.07 354.268 2853.51 330.911C2760.68 246.088 2667.68 174.729 2577.09 118.786C2484.29 61.5205 2393.33 20.0681 2306.75 -4.44604C2217.48 -29.7542 2131.52 -37.2308 2052.18 -26.6444C1969.39 -15.6173 1890.58 15.6396 1822.73 64.3656C1690.88 157.724 1580.79 320.821 1474.3 478.559C1399.18 589.782 1321.49 704.81 1236.72 794.894C1130.4 907.87 1012.27 967.022 893.71 967.022Z" fill="url(#paint4_radial)"/>
<path d="M875.498 989.849C868.39 989.849 861.248 989.65 854.14 989.187C785.307 984.985 716.639 960.306 649.987 915.843C577.947 867.807 507.295 795.985 440.412 702.461C421.964 676.723 403.417 648.768 385.464 621.74C347.378 564.441 308.035 505.19 267.766 463.936C222.307 417.389 176.154 395.389 134.331 400.252C101.27 404.123 72.1433 425.329 50.356 461.587C23.1796 506.811 5.98767 574.068 -10.6421 639.373C-21.3208 681.09 -32.3302 724.229 -45.8854 761.381C-64.5319 812.46 -89.3278 851.828 -119.612 878.427C-146.977 903.239 -182.372 917.335 -219.292 918.126H-223.358C-255.46 918.126 -289.48 908.863 -324.757 890.568C-361.455 871.446 -398.648 842.896 -435.247 805.678C-512.28 727.372 -583.064 614.461 -640.028 479.154C-693.323 352.514 -735.906 210.127 -777.001 72.4377C-813.897 -51.0261 -852.05 -178.692 -897.873 -294.977C-934.24 -386.88 -980.89 -472.563 -1029.56 -536.247C-1080.01 -602.214 -1128.41 -638.571 -1165.83 -638.605C-1193.24 -638.605 -1214.6 -619.781 -1229.31 -582.629L-1230.24 -582.993C-1215.33 -620.542 -1193.67 -639.597 -1165.83 -639.597C-1128.08 -639.597 -1079.41 -603.206 -1028.76 -536.843C-980.03 -473.093 -933.248 -387.343 -896.98 -295.34C-851.091 -179.022 -812.939 -51.3239 -776.042 72.1401C-734.914 209.829 -692.364 352.183 -639.103 478.757C-582.204 613.965 -511.453 726.876 -434.52 804.984C-397.987 842.135 -360.926 870.619 -324.294 889.675C-287.662 908.73 -252.452 917.927 -219.357 917.1C-182.62 916.319 -147.4 902.293 -120.174 877.6C-90.022 851.134 -65.2922 811.865 -46.7119 760.951C-33.1567 723.832 -22.1473 680.726 -11.5347 639.009C4.99597 573.77 22.353 506.315 49.5955 460.992C71.5812 424.601 100.873 403.064 134.298 399.161C176.484 394.264 222.902 416.363 268.56 463.142C308.928 504.561 348.204 563.845 386.291 621.21C404.243 648.206 422.658 676.16 441.206 701.865C508.188 795.323 578.608 867.046 650.549 915.016C717.035 959.38 785.571 984.026 854.206 988.195C979.574 995.87 1104.94 935.693 1216.76 814.181C1300.83 722.807 1377.7 606.092 1452.05 493.28C1557.55 333.161 1666.62 167.583 1797.71 72.5039C1865.14 23.0516 1943.83 -8.78674 2026.66 -20.1271C2106.17 -30.9781 2191.96 -23.4353 2281.39 2.03821C2368.05 26.7839 2459.16 68.7325 2552.16 126.693C2642.95 183.297 2736.22 255.549 2829.38 341.465C2855.04 365.119 2881.26 390.228 2906.58 414.544C3008.71 512.435 3114.3 613.701 3213.29 647.709C3271.61 667.757 3327.98 664.251 3380.74 637.785C3512.99 570.892 3598.68 372.165 3647.28 217.207C3696.05 61.719 3732.81 -118.316 3768.39 -292.264C3798.14 -437.827 3828.89 -588.584 3866.58 -724.288C3912.2 -888.675 3966.46 -1016.57 4027.82 -1104.37C4100.02 -1207.72 4182.18 -1255.3 4272.04 -1245.77V-1244.78C4182.51 -1254.27 4100.72 -1206.83 4028.71 -1103.81C3967.42 -1016.08 3913.23 -888.311 3867.64 -724.024C3829.98 -588.385 3799.2 -437.728 3769.45 -292.065C3733.77 -118.382 3697.01 61.6528 3648.11 217.207C3599.21 372.761 3513.65 571.19 3381.11 638.38C3328.21 665.21 3271.48 668.584 3212.86 648.305C3113.68 614.23 3007.88 512.898 2905.79 414.908C2880.46 390.625 2854.24 365.483 2828.62 341.862C2735.49 255.847 2642.29 183.76 2551.54 127.222C2458.6 69.2949 2367.58 27.3795 2281.03 2.66687C2191.76 -22.8728 2106.07 -30.4156 2026.69 -19.4653C1944 -8.11169 1865.45 23.7289 1798.17 73.1656C1667.25 168.112 1558.21 333.624 1452.78 493.677C1378.39 606.555 1301.49 723.27 1217.38 814.578C1111.82 929.705 994.022 989.849 875.498 989.849Z" fill="url(#paint5_radial)"/>
<path d="M857.311 1012.68C850.699 1012.68 844.153 1012.49 837.673 1012.11C768.806 1008.28 699.907 983.398 632.925 938.439C560.521 889.808 489.538 816.993 421.928 722.013C403.381 695.944 384.701 667.659 366.65 640.266C328.332 582.24 288.724 522.261 248.323 480.511C202.699 433.401 156.512 411.038 114.756 416.166C81.6949 420.135 52.8656 441.672 31.3096 478.46C4.43091 524.312 -12.3643 592.628 -28.6304 658.727C-39.0447 701.006 -49.7894 744.741 -63.1462 782.455C-81.4291 834.13 -105.927 874.027 -135.881 901.023C-162.835 926.164 -198.032 940.598 -234.866 941.615C-267.927 942.541 -303.567 933.311 -340.298 914.057C-377.029 894.803 -414.389 865.922 -451.153 828.274C-528.582 748.876 -599.928 634.576 -657.554 497.449C-711.444 369.188 -754.688 224.915 -796.411 85.4065C-833.902 -39.6454 -872.65 -168.998 -919.068 -286.805C-955.766 -379.998 -1002.94 -466.807 -1051.91 -531.284C-1102.56 -597.979 -1151.09 -634.7 -1188.35 -634.7H-1188.75C-1215.99 -634.7 -1237.18 -615.479 -1251.56 -577.865L-1252.49 -578.229C-1237.88 -616.24 -1216.39 -635.56 -1188.68 -635.693H-1188.45C-1150.79 -635.693 -1102.06 -598.839 -1051.21 -531.913C-1002.18 -467.336 -954.973 -380.428 -918.242 -287.102C-871.956 -169.263 -833.043 -39.91 -795.552 85.208C-753.729 224.684 -710.518 368.924 -656.694 497.151C-599.102 634.212 -527.756 748.578 -450.492 827.745C-413.794 865.327 -376.567 894.142 -339.869 913.363C-303.171 932.583 -267.961 941.78 -234.932 940.788C-198.333 939.776 -163.361 925.437 -136.575 900.46C-106.82 873.564 -82.2887 833.799 -64.0389 782.29C-50.8145 744.642 -39.9703 700.94 -29.556 658.627C-13.2899 592.462 3.50513 524.081 30.4832 478.129C52.2043 441.077 81.3313 419.341 114.69 415.272C156.843 410.111 203.129 432.641 249.051 479.816C289.551 521.633 329.158 581.677 367.509 639.737C385.561 667.096 404.24 695.382 422.788 721.418C490.332 816.397 561.215 889.179 633.52 937.612C700.303 982.472 769.071 1007.09 837.739 1011.12C844.351 1011.49 850.963 1011.68 857.311 1011.68C975.505 1011.68 1092.67 950.613 1197.48 834.13C1280.89 741.499 1357 622.997 1430.59 508.532C1535.03 346.064 1643.04 178.104 1773.34 81.5359C1840.2 31.3107 1918.68 -1.15955 2001.46 -12.8484C2080.81 -23.9641 2166.37 -16.5536 2255.83 9.25073C2342.49 34.1949 2433.64 76.5736 2526.94 135.196C2617.85 192.429 2711.35 265.508 2804.65 352.449C2830.4 376.4 2856.69 401.808 2882.11 426.421C2984.6 525.669 3090.4 627.96 3189.58 662.299C3247.51 682.38 3303.38 679.072 3355.58 652.375C3487.83 584.952 3572.6 382.818 3620.44 225.147C3668.28 67.476 3703.98 -115.073 3738.56 -291.602C3767.46 -439.282 3797.38 -591.991 3834.24 -729.581C3878.88 -896.284 3932.34 -1025.97 3992.94 -1115.06C4064.48 -1219.93 4146.27 -1268.26 4235.97 -1258.74V-1257.74C4146.7 -1267.24 4065.18 -1219.04 3993.86 -1114.5C3933.16 -1025.5 3879.73 -895.92 3835.17 -729.316C3798.31 -591.759 3768.42 -439.083 3739.49 -291.403C3704.94 -114.875 3669.2 67.6743 3621.33 225.412C3573.46 383.149 3488.55 585.68 3356.01 653.235C3303.54 679.998 3247.44 683.307 3189.22 663.159C3090.03 628.754 2984.01 526.231 2881.45 427.05C2856.03 402.469 2829.74 377.029 2804.02 353.11C2710.62 266.203 2617.19 193.156 2526.31 135.99C2433.21 77.4006 2342.16 35.0551 2255.6 10.1108C2166.34 -15.6273 2080.81 -22.9717 2001.63 -11.9221C1919.03 -0.254761 1840.74 32.1473 1774.03 82.2638C1643.87 178.699 1535.99 346.626 1431.55 509.028C1357.92 623.527 1281.78 741.962 1198.3 834.758C1093.24 951.507 975.77 1012.68 857.311 1012.68Z" fill="url(#paint6_radial)"/>
<path d="M839.127 1035.5C833.143 1035.5 827.192 1035.34 821.208 1035.01C752.209 1031.37 683.144 1006.46 615.897 961.002C543.163 911.841 471.718 838.001 403.545 741.565C384.899 715.099 366.087 686.549 347.903 658.859C309.387 600.104 269.515 539.332 228.883 497.086C183.292 449.414 137.006 426.918 95.2827 432.078C62.2216 436.148 33.6565 458.015 12.332 495.332C-14.1169 541.648 -30.6475 611.121 -46.5499 678.08C-56.6997 721.087 -67.2131 765.318 -80.3053 803.496C-98.2576 855.799 -122.458 896.127 -152.18 923.651C-180.679 949.886 -213.773 963.813 -250.538 965.038C-283.599 966.129 -319.206 956.866 -356.003 937.447C-392.8 918.028 -430.291 888.849 -467.221 850.738C-545.014 770.479 -616.79 654.558 -675.242 515.347C-729.727 385.432 -773.632 239.34 -816.116 98.0111C-854.202 -28.6949 -893.611 -159.702 -940.558 -279.13C-977.719 -373.58 -1025.33 -461.546 -1074.59 -526.851C-1125.44 -594.207 -1173.77 -631.293 -1211.13 -631.293H-1211.59C-1238.74 -631.061 -1259.7 -611.642 -1273.91 -573.63L-1274.84 -573.961C-1260.46 -612.436 -1239.2 -632.054 -1211.63 -632.285H-1211.13C-1173.57 -632.285 -1124.84 -595.067 -1073.79 -527.447C-1024.47 -462.076 -976.826 -374.01 -939.632 -279.493C-892.652 -160.132 -853.276 -29.0919 -815.19 97.6472C-772.706 238.91 -728.801 385.002 -674.349 514.884C-616.062 653.83 -544.22 769.619 -466.526 849.844C-429.63 887.889 -392.304 917.002 -355.54 936.388C-318.776 955.775 -283.5 964.971 -250.571 963.847C-214.203 962.656 -181.142 948.794 -152.842 922.725C-123.252 895.432 -99.1504 855.138 -81.2643 802.967C-68.0398 764.855 -57.6584 720.525 -47.5087 677.65C-31.6062 610.79 -15.0756 541.449 11.3733 494.836C32.8632 457.254 61.7916 435.288 95.0513 431.086C137.006 426.024 183.622 448.487 229.577 496.391C270.21 538.703 310.114 599.509 348.598 658.297C366.748 685.987 385.527 714.537 404.174 741.003C472.445 837.339 543.824 911.08 616.393 960.175C683.475 1005.53 752.407 1030.38 821.175 1034.01C945.385 1040.63 1068.8 978.403 1178.24 854.079C1260.89 759.992 1336.37 639.903 1409.2 523.783C1512.58 358.999 1619.47 188.624 1749.04 90.6006C1815.3 39.7145 1893.51 6.68274 1976.17 -5.33862C2055.25 -16.719 2140.71 -9.30847 2230.21 16.6945C2316.8 41.8702 2408.01 84.6788 2501.31 143.963C2592.4 201.824 2686.09 275.73 2779.85 363.73C2805.64 387.946 2832.02 413.652 2857.55 438.53C2960.33 538.803 3066.66 642.516 3165.64 677.154C3223.17 697.301 3278.55 694.059 3330.22 667.494C3462.47 599.575 3546.28 394.067 3593.36 233.616C3640.24 73.7618 3674.95 -111.269 3708.51 -290.179C3736.58 -439.91 3765.61 -594.703 3801.68 -734.179C3845.35 -903.165 3898.02 -1034.67 3958.19 -1125.05C4029.04 -1231.41 4110.27 -1280.54 4200 -1270.98V-1270.02C4110.73 -1279.51 4029.73 -1230.55 3959.11 -1124.45C3899.01 -1034.17 3846.37 -902.801 3802.73 -733.882C3766.66 -594.406 3737.64 -439.646 3709.57 -289.947C3676.01 -111.004 3641.33 73.9602 3594.42 233.98C3547.14 394.464 3463.16 600.237 3330.72 668.321C3278.81 694.985 3223.2 698.095 3165.41 678.014C3066.23 643.31 2959.84 539.53 2856.95 439.191C2831.43 414.313 2805.05 388.575 2779.26 364.358C2685.43 276.458 2591.77 202.552 2500.88 144.823C2407.68 85.6052 2316.53 42.8296 2230.01 17.6869C2140.75 -8.28296 2055.35 -15.6604 1976.4 -4.31311C1893.89 7.75439 1815.85 40.7855 1749.73 91.6262C1620.33 189.583 1513.48 359.892 1410.16 524.577C1337.26 640.73 1261.91 760.852 1179.1 855.005C1074.69 973.308 957.552 1035.5 839.127 1035.5Z" fill="url(#paint7_radial)"/>
<path d="M820.979 1058.33C815.523 1058.33 810.101 1058.33 804.646 1057.9C735.615 1054.59 666.384 1029.51 598.807 983.53C525.775 933.84 453.867 859.007 384.967 761.116C366.222 734.418 347.311 705.405 329.028 677.384C290.214 617.836 250.11 556.401 209.412 513.659C163.457 465.425 117.37 442.565 75.7788 447.957C42.9159 452.159 14.384 474.423 -6.67603 512.17C-33.125 559.313 -48.9943 629.514 -64.4669 697.432C-74.3853 740.903 -84.6343 785.862 -97.5282 824.568C-115.15 877.5 -139.02 918.423 -168.478 946.246C-196.712 972.712 -229.608 987.103 -266.207 988.459C-299.268 989.749 -334.842 980.42 -371.705 960.868C-408.568 941.316 -446.159 911.774 -483.286 873.199C-561.41 791.982 -633.913 674.705 -692.894 533.575C-747.941 402.005 -792.574 254.027 -835.719 110.912C-874.401 -17.4147 -914.405 -150.109 -961.914 -270.959C-999.537 -366.667 -1047.54 -455.791 -1097.13 -521.89C-1148.15 -589.974 -1196.65 -627.39 -1233.78 -627.39H-1234.5C-1261.48 -627.026 -1282.24 -607.342 -1296.23 -568.867L-1297.15 -569.198C-1283.04 -608.103 -1261.98 -628.019 -1234.5 -628.382H-1233.78C-1196.32 -628.382 -1147.55 -590.834 -1096.31 -522.518C-1046.72 -456.353 -998.645 -367.031 -960.988 -271.356C-913.479 -150.473 -873.475 -17.7786 -834.76 110.582C-791.615 253.663 -747.016 401.708 -692.002 533.145C-633.021 674.142 -560.583 791.386 -482.559 872.637C-445.531 911.145 -408.072 940.556 -371.242 960.107C-334.412 979.659 -299.201 988.856 -266.273 987.599C-229.905 986.243 -197.208 972.116 -169.172 945.65C-139.813 917.96 -116.042 877.169 -98.4868 824.37C-85.593 785.729 -75.344 740.803 -65.4257 697.333C-49.9199 629.382 -33.8853 559.081 -7.53552 511.806C13.7228 473.695 42.5192 451.332 75.6796 447.13C117.535 441.804 164.085 464.631 210.272 513.097C251.069 555.905 291.206 617.472 330.02 676.954C348.302 705.008 367.213 733.988 385.959 760.686C454.627 858.478 526.436 933.211 599.402 982.868C666.814 1028.72 735.879 1053.66 804.746 1057.07C810.168 1057.34 815.59 1057.47 821.012 1057.47C939.073 1057.47 1055.75 994.381 1159 874.159C1241.12 778.716 1315.67 656.939 1387.78 539.166C1490.1 372.066 1595.9 199.276 1724.71 99.7635C1790.39 48.1774 1868.33 14.5582 1950.91 2.20325C2029.8 -9.44177 2115.16 -2.06433 2204.59 24.137C2291.18 49.5112 2382.46 92.7832 2475.89 152.696C2567.11 211.185 2661.03 285.985 2755.06 374.977C2780.95 399.491 2807.4 425.494 2833.02 450.67C2936.17 552.134 3042.82 657.039 3141.81 692.172C3198.94 712.353 3253.85 709.177 3304.97 682.711C3437.21 614.296 3520.1 405.38 3566.38 242.184C3612.34 80.0795 3645.99 -107.399 3678.56 -288.724C3705.77 -440.441 3733.94 -597.351 3769.21 -738.646C3811.89 -909.948 3863.77 -1043.27 3923.38 -1134.91C3993.5 -1242.79 4074.47 -1292.65 4163.96 -1283.12V-1282.13C4074.7 -1291.62 3994.23 -1241.9 3924.3 -1134.38C3864.79 -1042.81 3812.95 -909.584 3770.27 -738.415C3735.03 -597.086 3706.86 -440.209 3679.62 -288.493C3647.08 -107.134 3613.49 80.4104 3567.44 242.515C3521.15 405.909 3438 615.09 3305.5 683.67C3254.15 710.136 3198.97 713.444 3141.58 693.165C3042.39 658.13 2935.64 553.159 2832.42 451.662C2806.83 426.487 2780.35 400.45 2754.46 375.969C2660.47 287.01 2566.61 212.277 2475.46 153.82C2382.1 93.9409 2290.88 50.7023 2204.36 25.3611C2115.09 -0.807251 2029.83 -8.18457 1951.08 3.46045C1869.28 15.5024 1793.34 48.2872 1725.33 100.822C1596.69 200.07 1490.93 372.926 1388.67 539.959C1316.53 657.766 1241.95 779.576 1159.76 875.085C1056.11 995.042 939.338 1058.3 820.979 1058.33Z" fill="url(#paint8_radial)"/>
<path d="M802.829 1081.06C797.903 1081.06 792.911 1081.06 788.084 1080.69C718.887 1077.75 649.458 1052.54 581.716 1006.09C508.353 955.84 435.982 879.982 366.818 780.668C347.973 753.64 328.93 724.428 310.614 695.911C271.602 635.7 231.267 573.505 190.37 530.233C144.085 481.404 97.9642 458.477 56.5386 463.87C23.7749 468.137 -4.59167 490.667 -25.4534 529.042C-51.4395 576.847 -67.0442 648.139 -82.1532 716.786C-91.8402 760.852 -101.825 806.406 -114.487 845.807C-131.745 899.368 -155.318 940.82 -184.544 969.04C-212.514 996.068 -245.178 1010.53 -281.645 1012.05C-314.706 1013.4 -350.214 1004.14 -387.143 984.39C-424.072 964.64 -461.795 934.766 -499.055 895.795C-577.576 813.651 -650.608 694.72 -710.283 551.737C-765.925 418.547 -811.219 268.683 -855.058 123.749C-894.335 -6.19934 -934.967 -140.581 -983.005 -262.887C-1021.09 -359.884 -1069.53 -450.167 -1119.38 -517.093C-1170.59 -585.838 -1219.13 -623.618 -1256.16 -623.618H-1257.12C-1283.99 -623.155 -1304.56 -603.173 -1318.25 -564.268L-1319.17 -564.599C-1305.32 -603.934 -1284.46 -624.148 -1257.15 -624.611C-1219.66 -625.339 -1170.46 -587.327 -1118.59 -517.721C-1068.67 -450.729 -1020.2 -360.381 -982.08 -263.284C-934.042 -140.878 -893.409 -6.53015 -854.1 123.418C-810.294 268.319 -765 418.15 -709.358 551.307C-649.847 694.091 -576.782 812.923 -498.361 895.001C-461.134 933.939 -423.576 963.68 -386.68 983.397C-349.784 1003.11 -314.64 1012.28 -281.711 1010.92C-245.344 1009.43 -213.01 995.042 -185.205 968.18C-156.144 940.093 -132.638 898.706 -115.413 845.344C-102.784 806.175 -92.7991 760.62 -83.1122 716.587C-68.0032 647.742 -52.3651 576.516 -26.3129 528.579C-5.28589 489.939 23.2789 467.244 56.3402 462.911C98.0964 457.452 144.68 480.51 191.031 529.572C231.961 572.877 272.362 635.171 311.407 695.414C329.591 723.766 348.601 753.077 367.479 780.006C436.908 879.254 509.014 954.98 582.377 1005.17C650.054 1051.48 719.317 1076.59 788.217 1079.7C793.11 1079.93 798.135 1080.06 802.928 1080.06C920.924 1080.06 1037.1 1015.95 1139.79 893.909C1221.25 797.077 1295.18 673.613 1366.42 554.218C1467.69 384.77 1572.36 209.598 1700.34 108.597C1768.08 55.1686 1843.89 21.7883 1925.62 9.34937C2004.34 -2.56042 2089.57 4.81702 2178.97 31.2499C2265.52 56.8228 2356.87 100.525 2450.47 161.099C2541.82 220.217 2635.94 295.844 2730.27 385.894C2756.25 410.673 2782.8 437.007 2808.49 462.447C2911.97 565.003 3018.99 671.231 3117.97 706.497C3174.67 727.074 3229.09 723.766 3279.68 697.3C3411.92 628.389 3493.85 416.099 3539.37 250.091C3584.4 85.8693 3617.03 -104.124 3648.47 -287.897C3674.92 -441.631 3702.13 -600.626 3736.58 -743.906C3778.34 -917.457 3829.42 -1052.6 3888.43 -1145.53C3957.86 -1254.9 4038.4 -1305.55 4127.8 -1296.02V-1295.03C4038.83 -1304.52 3958.59 -1254.04 3889.36 -1145C3830.41 -1052.17 3779.36 -917.126 3737.67 -743.675C3703.22 -600.427 3675.95 -441.466 3649.53 -287.732C3617.99 -103.958 3585.39 86.1008 3540.43 250.355C3494.87 416.529 3412.71 629.117 3280.24 698.193C3229.42 724.659 3174.71 727.968 3117.71 707.523C3018.53 672.157 2911.41 565.929 2807.83 463.241C2782.17 437.768 2755.62 411.434 2729.67 386.655C2635.38 296.671 2541.22 221.243 2450.01 161.992C2356.48 101.451 2265.23 57.8152 2178.9 32.2755C2089.64 5.80945 2004.54 -1.46863 1925.99 10.408C1844.39 22.7478 1768.75 56.062 1701.17 109.358C1573.25 210.26 1468.62 385.365 1367.25 554.714C1295.87 674.142 1222.05 797.639 1140.52 894.538C1037.56 1016.91 921.123 1081.06 802.829 1081.06Z" fill="url(#paint9_radial)"/>
<path d="M784.713 1103.95C780.283 1103.95 775.885 1103.95 771.489 1103.69C702.357 1100.84 632.631 1075.6 564.657 1028.65C490.765 977.84 418.031 900.99 348.239 800.253C329.261 772.894 310.119 743.186 291.605 714.47C252.328 653.532 211.729 590.543 170.7 546.808C124.414 497.416 78.1284 474.258 36.8019 479.783C4.07129 484.15 -24.0969 507.01 -44.7272 545.948C-70.4156 594.414 -85.6238 666.501 -100.369 736.206C-109.792 780.834 -119.545 826.984 -131.976 866.749C-148.903 920.938 -172.178 962.92 -201.107 991.536C-228.845 1018.96 -261.344 1033.72 -297.646 1035.37C-330.707 1036.89 -366.148 1027.6 -403.177 1007.68C-440.206 987.765 -477.961 957.627 -515.42 918.126C-594.271 835.023 -667.832 714.603 -728.202 569.833C-784.406 434.989 -830.427 283.273 -874.927 136.453C-914.799 4.88342 -956.06 -131.185 -1004.63 -255.013C-1043.18 -353.301 -1092.01 -444.708 -1142.16 -512.428C-1193.6 -581.901 -1242.14 -620.012 -1279.07 -620.012H-1280.26C-1307 -619.417 -1327.37 -599.17 -1340.83 -559.802L-1341.75 -560.133C-1328.16 -599.832 -1307.47 -620.409 -1280.29 -621.005H-1279.07C-1241.84 -621.005 -1193.11 -582.728 -1141.37 -513.023C-1091.18 -445.237 -1042.18 -353.731 -1003.7 -255.376C-955.101 -131.482 -913.841 4.55273 -873.969 136.155C-829.468 282.876 -783.48 434.559 -727.276 569.536C-666.972 714.173 -593.444 834.494 -514.692 917.531C-477.3 956.932 -439.643 987.004 -402.681 1006.85C-365.718 1026.7 -330.508 1036 -297.712 1034.48C-261.642 1032.79 -229.374 1018.13 -201.834 990.908C-173.005 962.424 -149.829 920.574 -132.934 866.518C-120.536 826.819 -110.783 780.503 -101.361 736.073C-86.6157 666.302 -71.4075 594.149 -45.6198 545.551C-24.8573 506.381 3.6084 483.356 36.6366 478.923C78.2937 473.365 124.877 496.622 171.394 546.246C212.522 589.948 253.155 652.97 292.398 713.842C310.912 742.557 330.055 772.232 348.999 799.558C418.824 900.229 491.526 976.98 565.12 1027.83C633.094 1074.67 702.523 1099.85 771.455 1102.69C893.782 1107.76 1014.59 1042.48 1120.38 914.123C1201.25 815.769 1274.32 690.684 1344.87 569.569C1445.08 397.838 1548.69 220.218 1675.98 117.761C1743.32 63.5388 1818.8 29.6293 1900.33 16.9917C1978.82 4.81738 2063.95 12.1617 2153.35 38.7932C2239.87 64.5975 2331.25 108.729 2424.98 169.965C2516.46 229.712 2610.82 306.199 2705.47 397.242C2731.49 422.319 2758.14 448.95 2783.92 474.721C2887.74 578.501 2995.12 685.854 3094.1 721.451C3150.47 741.73 3204.43 738.687 3254.45 712.419C3386.7 642.946 3467.66 427.281 3512.33 258.527C3556.43 92.089 3588.01 -100.418 3618.56 -286.573C3644.18 -442.326 3670.59 -603.405 3704.32 -748.405C3745.08 -924.272 3795.37 -1061.2 3853.79 -1155.32C3922.55 -1266.21 4002.56 -1317.59 4091.83 -1308.06V-1307.1C4002.92 -1316.56 3923.21 -1265.35 3854.61 -1154.92C3796.26 -1060.8 3746.01 -923.974 3705.27 -748.207C3671.62 -603.074 3645.2 -442.028 3619.68 -286.276C3589.13 -100.087 3557.56 92.4198 3513.42 258.891C3468.66 427.843 3387.46 643.872 3254.98 713.412C3204.7 739.878 3150.47 742.888 3093.84 722.542C2994.66 686.846 2887.17 579.427 2783.26 475.548C2757.51 449.777 2730.86 423.146 2704.84 398.102C2610.25 307.059 2515.93 230.639 2424.52 170.925C2330.85 109.722 2239.37 65.6562 2153.12 39.8849C2063.85 13.4189 1978.88 5.94226 1900.56 18.1166C1819.2 30.7211 1743.85 64.4321 1676.67 118.654C1549.45 220.912 1445.9 398.4 1345.73 570.065C1275.11 691.147 1202.08 816.331 1121.21 914.586C1019.02 1038.71 902.94 1103.95 784.713 1103.95Z" fill="url(#paint10_radial)"/>
<path d="M766.593 1126.78C762.648 1126.78 758.714 1126.71 754.79 1126.58C685.626 1124 615.933 1098.62 547.464 1051.18C473.473 999.84 400.242 921.997 329.788 819.706C310.712 792.016 291.437 761.977 272.824 732.897C233.316 671.265 192.485 607.514 151.291 563.283C105.005 513.328 58.4879 489.939 17.2937 495.563C-15.3378 500.029 -43.3406 523.253 -63.7394 562.655C-89.1304 611.749 -103.975 684.795 -118.29 755.393C-127.481 800.617 -136.97 847.363 -149.17 887.723C-165.7 942.541 -188.843 985.052 -217.441 1014.07C-244.948 1041.89 -277.216 1056.87 -313.318 1058.69C-346.38 1060.38 -381.755 1051.02 -418.817 1030.94C-455.878 1010.86 -493.8 980.387 -531.39 940.457C-610.737 856.394 -684.728 734.452 -745.759 587.83C-802.558 451.365 -849.241 297.763 -894.535 149.223C-935.035 16.0323 -976.89 -121.69 -1026.02 -247.04C-1065.03 -346.585 -1114.26 -439.117 -1164.88 -507.664C-1216.52 -577.799 -1265.08 -616.307 -1301.91 -616.307H-1303.34C-1329.79 -615.612 -1350.12 -595.068 -1363.31 -555.27L-1364.27 -555.567C-1351.04 -595.796 -1330.41 -616.571 -1303.34 -617.299H-1301.95C-1264.79 -617.299 -1215.99 -578.659 -1164.08 -508.127C-1113.6 -439.514 -1064.3 -346.883 -1025.23 -247.271C-975.931 -121.955 -934.175 15.8008 -893.543 148.991C-848.414 297.498 -801.732 451.067 -744.933 587.5C-683.935 733.989 -609.878 855.832 -530.795 939.828C-493.238 979.527 -455.449 1010.06 -418.387 1030.11C-381.325 1050.16 -346.181 1059.42 -313.385 1057.73C-277.48 1055.95 -245.411 1041.03 -218.102 1013.4C-189.504 984.523 -166.626 942.144 -150.062 887.458C-137.863 847.23 -128.374 800.485 -119.216 755.129C-104.867 684.464 -90.0231 611.352 -64.5328 562.125C-44.0018 522.426 -15.7344 499.037 17.2277 494.538C58.7856 488.848 105.402 512.336 152.084 562.522C193.212 607.018 234.142 670.834 273.651 732.467C292.264 761.514 311.539 791.585 330.615 819.242C400.969 921.302 474.233 999.079 548.026 1050.36C616.396 1097.6 685.825 1123.01 754.823 1125.59C876.753 1130.09 996.501 1063.85 1101.17 933.906C1181.35 834.361 1253.58 707.49 1323.44 584.82C1422.63 410.74 1525.12 230.837 1651.61 126.792C1718.56 71.8093 1793.77 37.4697 1875.07 24.4352C1953.36 12.0293 2038.36 19.3406 2127.72 46.2035C2214.21 72.2064 2305.69 116.769 2399.55 178.534C2491.17 238.942 2585.75 316.256 2680.57 408.325C2706.69 433.699 2733.47 460.628 2759.26 486.664C2863.43 591.668 2971.15 700.245 3070.03 736.172C3126.01 756.452 3179.5 753.475 3229.03 727.306C3361.27 657.469 3441.25 438.297 3485.18 266.731C3528.59 98.2422 3559.14 -96.6798 3588.6 -285.25C3613.3 -443.021 3638.85 -606.15 3671.68 -753.235C3711.36 -931.385 3760.95 -1070.17 3818.8 -1165.64C3886.88 -1278.12 3966.56 -1330.23 4055.79 -1320.67V-1319.67C3967.08 -1329.17 3887.6 -1277.16 3819.76 -1165.15C3761.97 -1069.74 3712.51 -931.087 3672.77 -753.004C3639.88 -606.15 3614.35 -442.954 3589.66 -285.25C3560.1 -96.6798 3529.59 98.507 3486.37 267.029C3442.4 438.761 3362.16 658.197 3229.72 728.232C3179.93 754.698 3126.17 757.543 3069.94 737.132C2970.75 701.138 2862.91 592.462 2758.66 487.392C2732.81 461.356 2706.1 434.46 2679.98 409.086C2585.09 317.05 2490.57 239.769 2398.96 179.394C2305.16 117.562 2213.81 73.0665 2127.39 47.0637C2038.13 20.2668 1953.33 12.9557 1875.2 25.3616C1794.04 38.2638 1719.02 72.6034 1652.24 127.487C1525.84 231.333 1423.39 411.269 1324.27 585.25C1254.41 707.953 1182.11 834.857 1101.9 934.469C1000.47 1060.51 884.754 1126.78 766.593 1126.78Z" fill="url(#paint11_radial)"/>
<path d="M748.641 1149.6C745.335 1149.6 741.731 1149.6 738.26 1149.44C669.03 1147.12 599.139 1121.65 530.47 1073.71C456.182 1021.81 382.521 942.971 311.506 839.356C292.33 811.369 272.957 780.966 254.244 751.555C214.57 689.195 173.376 624.717 131.917 579.957C85.301 529.473 38.9823 505.818 -2.14587 511.575C-34.7112 516.14 -62.5488 539.662 -82.7162 579.593C-107.843 629.216 -122.39 703.321 -136.209 774.779C-145.136 820.565 -154.393 867.906 -166.361 908.73C-182.66 964.177 -205.307 1007.22 -233.773 1036.63C-261.015 1064.81 -293.283 1080.1 -329.154 1082.05C-362.216 1083.84 -397.558 1074.47 -434.653 1054.23C-471.747 1033.98 -509.801 1003.21 -547.557 962.82C-627.102 877.798 -701.754 754.4 -763.48 605.893C-820.874 467.774 -868.251 312.286 -914.074 161.959C-955.169 27.1478 -997.652 -112.262 -1047.31 -239.133C-1086.75 -339.936 -1136.58 -433.625 -1187.16 -502.966C-1239 -573.796 -1287.63 -612.668 -1324.36 -612.668H-1325.95C-1352.4 -611.841 -1372.43 -591.032 -1385.46 -550.77L-1386.39 -551.068C-1373.16 -591.76 -1352.99 -612.833 -1326.05 -613.66H-1324.43C-1287.37 -613.66 -1238.47 -574.656 -1186.43 -503.529C-1135.65 -434.055 -1085.93 -340.366 -1046.45 -239.497C-996.859 -112.593 -954.276 26.8171 -913.181 161.661C-867.391 311.988 -820.014 467.41 -762.62 605.496C-700.961 753.871 -626.375 877.203 -546.929 962.125C-509.206 1002.45 -471.318 1033.12 -434.256 1053.37C-397.194 1073.61 -361.951 1082.84 -329.287 1081.06C-293.481 1079.14 -261.61 1063.95 -234.533 1035.93C-206.2 1006.65 -183.619 963.747 -167.386 908.433C-155.418 867.675 -146.194 820.334 -137.267 774.581C-123.282 702.99 -108.834 629.018 -83.6748 579.063C-63.3422 538.802 -35.2401 515.115 -2.34424 510.483C39.0814 504.694 85.7308 528.447 132.579 579.162C173.971 623.989 215.232 688.533 254.905 750.927C273.651 780.337 292.992 810.707 312.167 838.695C383.083 942.21 456.678 1020.98 530.9 1072.79C599.37 1120.62 669.096 1146.03 738.128 1148.35C859.496 1152.45 978.384 1085.13 1081.96 953.756C1161.51 852.854 1232.96 724.295 1302.09 600.005C1399.95 423.708 1501.51 241.291 1627.28 135.857C1693.83 80.0798 1768.68 45.1117 1849.81 31.9117C1927.87 19.2081 2012.77 26.4862 2102.1 53.5808C2188.59 79.7821 2280.1 124.807 2374.13 187.333C2465.87 248.37 2560.66 326.511 2655.88 419.639C2682.09 445.278 2708.78 472.571 2734.83 498.838C2839.33 605.033 2947.41 714.801 3046.43 751.059C3102.01 771.405 3155.07 768.494 3204.06 742.392C3336.31 672.124 3415.33 449.512 3458.47 275.167C3500.72 104.363 3530.18 -93.1069 3558.71 -284.125C3582.58 -443.914 3607.25 -609.161 3639.28 -758.098C3678.1 -938.563 3726.8 -1079 3784.06 -1175.9C3851.44 -1289.8 3930.75 -1342.73 4019.82 -1333.2V-1332.21C3931.18 -1341.67 3852.16 -1288.94 3785.08 -1175.4C3727.89 -1078.7 3679.29 -938.233 3640.41 -757.9C3608.4 -609.029 3583.71 -443.616 3559.87 -283.96C3531.34 -92.9415 3501.85 104.561 3459.6 275.399C3416.38 449.942 3337.27 672.819 3204.69 743.285C3155.43 769.519 3102.2 772.431 3046.23 751.986C2947.05 715.595 2838.87 605.794 2734.3 499.533C2708.35 473.067 2681.4 445.972 2655.35 420.333C2560.2 327.272 2465.44 249.165 2373.73 188.16C2279.81 125.667 2188.36 80.7085 2101.97 54.5403C2012.7 27.5118 1928.07 20.2006 1850.14 32.9042C1769.18 46.1372 1694.49 80.9401 1628.1 136.618C1502.47 241.92 1401.07 424.237 1303.04 600.567C1233.91 724.924 1162.44 853.516 1082.86 954.55C981.921 1082.35 866.571 1149.6 748.641 1149.6Z" fill="url(#paint12_radial)"/>
<path d="M730.389 1172.43C727.38 1172.43 724.372 1172.43 721.33 1172.43C652.1 1170.38 582.076 1144.81 513.045 1096.34C438.458 1043.91 364.269 964.012 292.824 859.008C273.648 830.59 254.142 799.856 235.297 770.082C195.293 706.994 153.967 641.755 112.475 596.498C65.6932 545.452 19.3414 521.566 -21.6545 527.455C-54.1537 532.086 -81.8259 555.939 -101.762 596.432C-126.591 646.85 -140.609 721.749 -154.197 794.199C-162.892 840.515 -171.852 888.517 -183.621 929.837C-199.557 986.078 -221.972 1029.52 -250.141 1059.36C-277.185 1087.91 -309.089 1103.45 -344.993 1105.67C-377.856 1107.59 -413.331 1098.19 -450.492 1077.78C-487.652 1057.37 -525.772 1026.27 -563.726 985.416C-643.569 899.402 -718.783 774.515 -781.137 624.188C-839.126 484.415 -887.197 327.074 -933.714 174.928C-975.405 38.4955 -1018.48 -102.568 -1068.7 -230.962C-1108.61 -333.021 -1158.7 -427.835 -1209.71 -497.97C-1261.71 -569.528 -1310.41 -608.764 -1347.05 -608.764H-1348.83C-1375.28 -607.837 -1395.12 -586.731 -1407.71 -545.907L-1408.67 -546.205C-1395.81 -587.359 -1375.61 -608.698 -1348.86 -609.657C-1311.7 -610.947 -1261.98 -571.48 -1208.88 -498.5C-1157.84 -428.299 -1107.72 -333.385 -1067.78 -231.226C-1017.56 -102.833 -974.446 38.264 -932.756 174.696C-886.272 326.876 -838.201 484.15 -780.244 623.857C-717.891 774.118 -642.776 898.905 -562.999 984.821C-525.111 1025.58 -486.958 1056.58 -450.029 1076.96C-413.099 1097.33 -377.724 1106.73 -345.059 1104.74C-309.386 1102.69 -277.714 1087.24 -250.868 1058.86C-222.799 1029.08 -200.483 985.714 -184.745 929.837C-173.009 888.551 -164.016 840.515 -155.321 794.199C-141.733 721.682 -127.715 646.717 -102.82 596.167C-82.7516 555.41 -54.7819 531.359 -21.9851 526.694C19.3414 520.739 66.0569 544.757 113.037 596.167C154.76 641.06 196.12 706.431 236.19 769.586C255.035 799.36 274.541 830.061 293.816 858.346C365.261 963.284 439.285 1043.05 513.772 1095.42C582.539 1143.75 652.398 1169.29 721.429 1171.31C724.438 1171.31 727.447 1171.31 730.455 1171.31C848.153 1171.31 962.842 1103.16 1062.69 973.705C1141.57 871.414 1212.29 741.168 1280.66 615.223C1377.66 436.577 1478 251.679 1603.01 144.79C1669.13 88.2185 1743.68 52.7211 1824.52 39.2234C1902.38 26.2882 1987.15 33.5331 2076.44 60.8262C2162.9 87.2922 2254.48 132.714 2348.64 195.869C2440.55 257.535 2535.56 336.569 2631.05 430.755C2657.49 456.692 2684.24 484.216 2710.39 510.848C2815.26 618.2 2923.67 729.192 3022.66 765.781C3077.9 786.16 3130.5 783.315 3179 757.345C3311.08 686.648 3389.24 460.595 3431.59 283.405C3472.88 110.45 3501.35 -89.5337 3528.86 -282.901C3552 -444.74 3575.67 -612.072 3606.91 -762.928C3644.77 -945.676 3692.67 -1088.06 3749.34 -1186.12C3815.99 -1301.54 3894.81 -1355.24 3983.88 -1345.71V-1344.72C3895.37 -1354.18 3816.75 -1300.68 3750.3 -1185.62C3693.7 -1087.67 3645.83 -945.378 3607.97 -762.73C3576.76 -611.906 3552.96 -444.575 3529.95 -282.769C3502.41 -89.3683 3473.97 110.649 3432.65 283.637C3390.23 461.092 3311.78 687.376 3179.37 758.305C3130.6 784.407 3077.74 787.252 3022.23 766.774C2923.04 730.118 2814.5 619.06 2709.6 511.608C2683.58 485.142 2656.7 457.452 2630.25 431.549C2534.8 337.429 2439.82 258.461 2347.98 196.828C2253.92 133.707 2162.44 88.3179 2076.08 61.918C1986.81 34.658 1902.28 27.4128 1824.58 40.3481C1743.85 53.7797 1669.46 89.2111 1603.44 145.65C1478.56 252.473 1378.29 437.173 1281.32 615.818C1212.95 741.83 1142.23 872.109 1063.28 974.433C963.537 1104.22 848.417 1172.43 730.389 1172.43Z" fill="url(#paint13_radial)"/>
<path d="M712.273 1195.26H704.537C635.108 1193.47 565.118 1167.77 495.92 1118.84C421.037 1065.91 346.517 985.019 274.41 878.56C255.036 849.91 235.398 818.813 216.454 788.741C176.218 724.925 134.627 658.958 93.0033 613.205C46.0895 561.596 -0.361572 537.512 -41.1921 543.467C-73.6252 548.231 -101.165 572.381 -120.837 613.404C-145.368 664.483 -159.022 740.341 -172.181 813.685C-180.644 860.629 -189.373 909.194 -200.911 951.044C-216.516 1007.81 -238.634 1051.91 -266.571 1082.12C-293.35 1111.06 -325.089 1126.88 -360.894 1129.09C-393.625 1131.15 -429.133 1121.72 -466.359 1101.11C-503.586 1080.5 -541.805 1049.1 -579.892 1007.81C-660.032 920.773 -735.808 794.398 -798.625 642.185C-857.209 500.791 -905.975 341.598 -953.12 187.632C-995.438 49.5782 -1039.08 -93.1727 -1089.89 -223.055C-1130.26 -326.371 -1180.75 -422.344 -1232.06 -493.306C-1284.29 -565.558 -1333.03 -605.158 -1369.56 -605.158H-1371.51C-1397.79 -604.099 -1417.43 -582.728 -1429.9 -541.54L-1430.82 -541.838C-1418.22 -583.456 -1398.29 -605.091 -1371.58 -606.117H-1369.59C-1332.7 -606.117 -1283.63 -566.418 -1231.26 -493.835C-1179.92 -422.84 -1129.4 -326.801 -1089.1 -223.385C-1038.35 -93.4705 -994.612 49.3136 -952.326 187.367C-905.181 341.3 -856.449 500.493 -797.864 641.821C-734.85 794.001 -659.206 920.244 -579.065 1007.09C-541.045 1048.31 -503.024 1079.6 -465.797 1100.18C-428.57 1120.76 -393.393 1129.95 -360.828 1128.04C-325.32 1125.85 -293.813 1110.14 -267.199 1081.36C-239.361 1051.28 -217.342 1007.32 -201.771 950.713C-190.232 908.896 -181.504 860.365 -173.073 813.42C-159.849 740.01 -146.228 664.119 -121.63 612.907C-101.793 571.587 -73.9889 547.205 -41.2582 542.408C-0.0308838 536.387 46.6846 560.604 93.8298 612.444C135.52 658.263 177.144 724.296 217.38 788.146C236.192 818.184 256.028 849.282 275.303 877.898C347.31 984.259 421.731 1065.01 496.549 1117.95C565.547 1166.74 635.406 1192.41 704.57 1194.03H712.306C829.938 1194.03 944.231 1124.86 1043.38 993.555C1121.6 889.907 1191.53 757.974 1259.14 630.375C1355.02 449.348 1454.2 262.133 1578.58 153.722C1644.34 96.39 1718.59 60.3301 1799.26 46.6008C1876.95 33.3678 1961.59 40.6129 2050.89 68.1376C2137.31 94.769 2228.96 140.621 2323.25 204.471C2415.26 266.765 2510.51 346.726 2606.28 441.805C2632.73 468.006 2659.65 495.828 2685.63 522.757C2790.83 631.301 2899.6 743.517 2998.59 780.404C3053.44 800.816 3105.61 798.07 3153.61 772.2C3226.35 732.931 3329.17 617.671 3404.38 291.577C3444.75 116.438 3472.16 -86.0599 3498.67 -281.875C3520.86 -445.7 3543.77 -615.115 3574.22 -767.857C3611.08 -952.921 3658.23 -1097.13 3714.27 -1196.44C3780.39 -1313.35 3858.81 -1367.81 3947.61 -1358.28V-1357.32C3859.17 -1366.78 3781.02 -1312.49 3715.26 -1195.98C3659.05 -1096.73 3612.14 -952.623 3575.28 -767.692C3544.86 -614.95 3521.91 -445.568 3499.76 -281.71C3473.31 -85.8945 3445.84 116.603 3405.44 291.775C3363.78 472.34 3286.58 701.999 3154.24 773.391C3105.94 799.394 3053.5 802.206 2998.39 781.661C2899.21 744.708 2790.34 632.393 2685.07 523.618C2658.95 496.688 2631.97 468.866 2605.72 442.665C2509.84 347.52 2414.79 267.724 2322.82 205.463C2228.59 141.68 2137.05 95.8606 2050.72 69.2623C1961.46 41.7708 1877.09 34.5587 1799.46 47.7587C1718.95 61.4548 1644.86 97.3824 1579.27 154.648C1455.16 262.927 1355.98 450.042 1260.06 631.036C1192.42 758.669 1122.46 890.635 1044.21 994.349C944.859 1125.95 830.269 1195.26 712.273 1195.26Z" fill="url(#paint14_radial)"/>
<path d="M694.25 1218.09C692.068 1218.09 689.918 1218.09 687.637 1218.09C618.374 1216.56 548.086 1190.73 478.657 1141.33C403.575 1087.67 328.758 1005.89 256.023 898.012C236.55 869.065 216.812 837.603 197.736 807.167C157.269 742.656 115.414 675.929 73.6575 629.68C26.5784 577.509 -19.8397 553.193 -60.6041 559.28C-92.938 564.11 -120.346 588.624 -139.786 630.176C-164.02 681.884 -177.277 758.668 -190.072 832.939C-198.271 880.478 -206.603 929.639 -218.042 971.885C-233.349 1029.28 -255.169 1073.91 -282.875 1104.51C-309.324 1133.86 -340.996 1149.94 -376.669 1152.28C-409.4 1154.43 -444.842 1145.01 -482.135 1124.23C-519.428 1103.45 -557.713 1071.73 -595.964 1029.98C-676.502 942.111 -752.741 814.214 -816.45 660.149C-875.629 517.133 -925.089 356.054 -972.895 200.302C-1015.87 60.6274 -1060.14 -83.7777 -1111.42 -215.182C-1152.25 -319.755 -1203.13 -416.985 -1254.71 -488.608C-1308.17 -563.011 -1357.86 -603.14 -1394.49 -601.486C-1420.64 -600.361 -1440.08 -578.692 -1452.32 -537.074L-1453.27 -537.339C-1440.91 -579.42 -1421.14 -601.321 -1394.53 -602.478H-1392.38C-1355.58 -602.478 -1306.42 -562.349 -1253.88 -489.138C-1202.27 -417.316 -1151.39 -320.119 -1110.5 -215.479C-1059.19 -84.0422 -1014.85 60.3959 -971.937 200.07C-924.13 355.823 -874.67 516.868 -815.557 659.917C-751.881 813.85 -675.708 941.648 -595.237 1029.45C-557.051 1071.1 -518.833 1102.76 -481.639 1123.5C-444.445 1144.25 -409.268 1153.54 -376.735 1151.42C-341.327 1149.11 -310.018 1133.13 -283.635 1103.98C-256.029 1073.48 -234.275 1029.02 -219 971.654C-207.727 929.341 -199.164 880.18 -191.064 832.707C-178.236 758.371 -164.978 681.52 -140.711 629.68C-121.073 587.797 -93.434 563.118 -60.7694 558.222C-19.6743 552.101 27.0742 576.516 74.3849 628.919C116.207 675.234 158.096 742.028 198.563 806.572C217.639 837.008 237.377 868.436 256.85 897.383C329.584 1005.17 404.27 1086.91 479.319 1140.37C548.747 1189.67 618.705 1215.44 687.77 1216.96C689.918 1216.96 692.067 1216.96 694.382 1216.96C811.914 1216.96 925.81 1146.79 1024.23 1013.6C1101.83 908.598 1170.96 774.978 1237.84 645.758C1332.73 462.381 1430.89 272.752 1554.37 162.753C1619.7 104.627 1693.66 68.0378 1774.13 54.0109C1851.62 40.5463 1936.13 47.7583 2025.39 75.4814C2111.78 102.344 2203.49 148.627 2297.92 213.138C2390.09 275.995 2485.54 356.749 2581.65 452.953C2608.1 479.419 2635.17 507.605 2661.36 534.799C2766.89 644.534 2876.03 757.974 2975.01 795.158C3029.5 815.636 3081.2 812.957 3128.75 787.186C3201.48 747.685 3303.97 631.102 3377.66 299.847C3417.11 122.525 3443.49 -82.4543 3468.98 -280.685C3490.3 -446.527 3512.39 -618.126 3542.01 -772.688C3577.92 -960.034 3624.23 -1106.03 3679.71 -1206.63C3745.01 -1325.07 3823.13 -1380.28 3911.83 -1370.75V-1369.76C3823.49 -1379.26 3745.77 -1324.21 3680.67 -1206.17C3624.96 -1105.37 3578.68 -959.472 3542.84 -772.225C3513.08 -617.63 3491.16 -446.13 3469.84 -280.288C3444.35 -82.0243 3417.96 122.955 3378.49 300.31C3337.76 483.356 3261.29 716.621 3129.04 788.31C3081.24 814.214 3029.23 816.927 2974.48 796.349C2875.3 759.065 2766.2 645.559 2660.4 535.758C2634.22 508.565 2607.14 480.411 2580.69 453.912C2484.81 357.775 2389.27 277.119 2297.12 214.196C2202.77 149.785 2111.19 103.502 2024.86 76.7054C1935.76 49.0154 1851.39 41.8035 1774.06 55.2681C1693.79 69.262 1620 105.752 1554.8 163.745C1431.45 273.513 1333.29 463.043 1238.5 646.32C1171.82 775.607 1102.39 909.26 1024.89 1014.33C926.306 1147.75 812.113 1218.09 694.25 1218.09Z" fill="url(#paint15_radial)"/>
<path d="M676.202 1240.91H670.879C601.451 1239.65 531.196 1213.69 461.536 1163.8C386.09 1109.74 310.744 1026.9 237.612 917.597C218.007 888.319 198.17 856.527 178.962 825.76C138.263 760.488 96.3085 693.033 54.2546 646.287C7.01013 593.587 -39.4409 569.007 -80.0731 575.193C-112.341 580.122 -139.583 604.967 -158.825 647.048C-182.761 699.451 -195.589 777.162 -208.02 852.325C-215.955 900.46 -224.187 950.216 -235.262 993.091C-250.272 1051.28 -271.795 1096.31 -299.401 1127.37C-325.85 1157.15 -357.093 1173.42 -392.634 1175.91C-425.331 1178.19 -460.773 1168.73 -498.099 1147.75C-535.425 1126.78 -573.842 1094.82 -612.226 1052.57C-693.094 963.714 -769.862 834.229 -834.232 678.477C-893.974 533.774 -944.128 370.809 -992.629 213.27C-1036.1 71.9749 -1081.07 -74.1176 -1132.91 -206.878C-1174.2 -312.742 -1225.48 -410.931 -1277.32 -483.481C-1329.95 -557.155 -1378.78 -597.516 -1415.15 -597.516H-1417.43C-1443.48 -596.292 -1462.76 -574.358 -1474.76 -532.244L-1475.72 -532.509C-1463.59 -575.053 -1444.01 -597.251 -1417.5 -598.508C-1380.47 -600.229 -1330.48 -559.636 -1276.53 -484.142C-1224.62 -411.526 -1173.31 -313.205 -1131.98 -207.308C-1080.14 -74.3491 -1035.18 71.7764 -991.67 213.072C-943.169 370.644 -893.048 533.542 -833.307 678.179C-768.97 833.964 -692.268 963.218 -611.499 1052.01C-573.181 1094.12 -534.863 1126.12 -497.603 1147.02C-460.343 1167.93 -425.166 1177.33 -392.7 1175.04C-357.457 1172.6 -326.28 1156.39 -300.129 1126.84C-272.754 1095.94 -251.297 1050.92 -236.354 993.025C-225.311 950.018 -217.079 900.394 -209.144 852.325C-196.68 777.095 -183.819 699.318 -159.85 646.817C-140.476 604.405 -112.969 579.361 -80.5028 574.399C-39.4408 568.113 7.27454 592.826 54.7174 645.758C96.7052 692.603 138.825 760.091 179.557 825.396C198.732 856.163 218.569 887.955 238.174 917.233C311.239 1026.41 386.52 1109.11 461.866 1163.14C531.295 1212.76 601.583 1238.83 670.648 1240.08H675.938C793.371 1240.08 906.903 1168.89 1004.6 1033.85C1081.5 927.489 1149.9 792.346 1216.03 661.307C1309.85 475.615 1406.89 283.604 1529.64 172.248C1594.58 113.328 1668.2 76.3086 1748.48 61.9177C1825.74 48.1554 1910.15 55.3011 1999.38 83.322C2085.77 110.35 2177.51 157.096 2272.1 222.269C2364.41 285.853 2460.09 367.369 2556.43 464.631C2582.88 491.395 2610.12 519.846 2636.4 547.337C2742.2 658.197 2851.76 772.861 2950.75 810.376C3004.87 830.888 3056.15 828.274 3103.23 802.635C3175.96 762.936 3278.05 644.997 3350.26 308.614C3388.78 129.108 3414.1 -78.4513 3438.6 -278.997C3459.1 -446.891 3480.29 -620.475 3509.12 -777.022C3544.33 -966.75 3589.89 -1114.63 3644.8 -1216.52C3709.4 -1336.45 3786.96 -1392.42 3875.7 -1382.93V-1381.94C3787.53 -1391.4 3710.16 -1335.62 3645.76 -1216.06C3590.94 -1114.26 3545.42 -966.551 3510.51 -776.989C3481.71 -620.508 3460.52 -446.924 3440.02 -279.064C3415.52 -78.3851 3390.2 129.108 3351.65 308.647C3311.78 494.538 3236.43 731.243 3104.12 803.33C3056.77 829.134 3005.2 831.748 2950.85 811.137C2851.66 773.556 2742.07 658.958 2636.1 547.834C2609.85 520.342 2582.68 491.891 2556.16 465.127C2459.82 367.931 2364.21 286.482 2271.84 222.897C2177.35 157.824 2085.67 111.111 1999.38 83.9506C1910.31 56.062 1826.07 48.8833 1748.94 62.6125C1668.87 76.838 1595.4 113.89 1530.74 172.678C1408.11 283.901 1311.14 475.846 1217.35 661.472C1151.23 792.346 1082.79 927.72 1005.76 1034.15C907.796 1169.59 793.966 1240.91 676.202 1240.91Z" fill="url(#paint16_radial)"/>
<path d="M658.154 1263.74H653.988C584.758 1262.75 514.205 1236.68 444.314 1186.29C368.604 1131.68 292.86 1047.88 219.167 937.184C199.33 907.409 179.493 875.385 160.186 844.288C119.256 778.321 76.9044 710.105 34.8506 662.83C-12.5262 609.601 -58.9772 584.822 -99.5433 591.108C-131.745 596.103 -158.822 621.279 -177.832 663.889C-201.471 716.821 -213.902 795.59 -225.969 871.647C-233.673 920.344 -241.64 970.729 -252.418 1014.13C-267.098 1072.85 -288.323 1118.54 -315.565 1149.97C-341.684 1180.08 -372.894 1196.68 -408.335 1199.26C-440.901 1201.68 -476.375 1192.15 -513.734 1171.01C-551.094 1149.87 -589.775 1117.52 -628.192 1074.87C-709.358 985.12 -786.721 854.246 -851.752 696.508C-912.089 550.184 -962.904 385.533 -1012.07 226.009C-1056.17 83.0923 -1101.76 -64.6871 -1154.23 -199.134C-1195.95 -306.189 -1247.66 -405.569 -1299.7 -478.913C-1352.6 -553.316 -1401.43 -594.04 -1437.73 -594.04H-1440.14C-1466.1 -592.717 -1485.21 -570.453 -1496.94 -527.875L-1497.9 -528.14C-1486.03 -571.147 -1466.62 -593.643 -1440.21 -595C-1403.31 -596.919 -1353.16 -555.863 -1298.91 -479.542C-1246.73 -406.099 -1194.99 -306.653 -1153.24 -199.532C-1100.84 -65.0511 -1055.24 82.7285 -1011.07 225.678C-961.912 385.036 -911.064 549.887 -850.76 696.078C-785.762 853.716 -708.597 984.458 -627.465 1074.18C-588.982 1116.72 -550.565 1149.01 -513.271 1170.12C-475.978 1191.22 -440.735 1200.62 -408.401 1198.24C-373.257 1195.66 -342.279 1179.18 -316.326 1149.28C-289.182 1117.98 -268.023 1072.42 -253.509 1013.87C-242.665 970.498 -234.698 920.146 -227.06 871.614C-215.026 795.524 -202.562 716.722 -178.857 663.591C-159.715 620.584 -132.373 595.243 -99.8079 590.181C-58.9111 583.829 -12.1625 608.74 35.4788 662.268C77.5657 709.576 119.95 777.825 160.913 843.825C180.188 874.922 200.157 907.078 219.861 936.687C293.488 1047.28 369.133 1131.01 444.677 1185.53C514.404 1235.82 584.791 1261.82 653.823 1262.85H657.955C775.323 1262.85 888.458 1190.66 985.261 1053.77C1061.53 946.05 1129.14 808.956 1194.54 676.626C1287.31 488.618 1383.25 294.192 1505.31 181.347C1569.88 121.799 1643.18 84.0186 1723.25 69.4623C1800.32 55.4353 1884.59 62.6143 1973.82 90.7675C2060.15 118.027 2151.96 165.203 2246.71 231.004C2339.28 295.217 2435.16 377.593 2531.7 475.815C2558.31 502.876 2585.56 531.625 2611.94 559.448C2718.36 671.3 2828.19 787.187 2927.38 825.001C2981.13 845.545 3031.98 842.998 3078.57 817.491C3151.3 777.594 3253.06 658.331 3323.75 316.754C3361.34 135.065 3385.64 -74.9095 3409.11 -277.937C3428.95 -447.849 3449.08 -623.517 3477.12 -781.949C3511.07 -973.828 3555.8 -1123.53 3610.12 -1226.68C3674.03 -1348.12 3751.3 -1404.89 3839.83 -1395.4V-1394.41C3751.76 -1403.87 3674.83 -1347.3 3611.12 -1226.25C3556.86 -1123.16 3512.16 -973.629 3478.21 -781.817C3450.21 -623.418 3429.87 -447.683 3410.24 -277.871C3386.76 -74.8104 3362.46 135.197 3324.87 316.92C3285.79 505.655 3211.47 745.834 3079.19 818.318C3032.35 843.99 2981.2 846.537 2927.11 825.894C2827.93 787.981 2718 672.027 2611.71 559.878C2585.26 532.088 2558.12 503.339 2531.5 476.278C2434.76 378.089 2338.89 295.747 2246.32 231.6C2151.69 165.865 2059.95 118.722 1973.73 91.4954C1884.66 63.3752 1800.52 56.1963 1723.62 70.1902C1643.74 84.7135 1570.61 122.295 1506.21 181.844C1384.34 294.556 1288.47 488.916 1195.73 676.857C1130.33 809.386 1062.69 946.447 986.353 1054.23C889.252 1191.39 775.852 1263.74 658.154 1263.74Z" fill="url(#paint17_radial)"/>
</g>
<defs>
<radialGradient id="paint0_radial" cx="0" cy="0" r="1" gradientUnits="userSpaceOnUse" gradientTransform="translate(1666.9 -154.79) rotate(90) scale(1030.54 2785.59)">
<stop stop-color="#F1D881"/>
<stop offset="0.505208" stop-color="#F6884A"/>
<stop offset="1" stop-color="#642ADF"/>
</radialGradient>
<radialGradient id="paint1_radial" cx="0" cy="0" r="1" gradientUnits="userSpaceOnUse" gradientTransform="translate(1637.66 -149.594) rotate(90) scale(1048.17 2778.56)">
<stop stop-color="#F1D881"/>
<stop offset="0.505208" stop-color="#F6884A"/>
<stop offset="1" stop-color="#642ADF"/>
</radialGradient>
<radialGradient id="paint2_radial" cx="0" cy="0" r="1" gradientUnits="userSpaceOnUse" gradientTransform="translate(1608.46 -144.395) rotate(90) scale(1065.8 2771.85)">
<stop stop-color="#F1D881"/>
<stop offset="0.505208" stop-color="#F6884A"/>
<stop offset="1" stop-color="#642ADF"/>
</radialGradient>
<radialGradient id="paint3_radial" cx="0" cy="0" r="1" gradientUnits="userSpaceOnUse" gradientTransform="translate(1579.2 -139.245) rotate(90) scale(1083.44 2764.91)">
<stop stop-color="#F1D881"/>
<stop offset="0.505208" stop-color="#F6884A"/>
<stop offset="1" stop-color="#642ADF"/>
</radialGradient>
<radialGradient id="paint4_radial" cx="0" cy="0" r="1" gradientUnits="userSpaceOnUse" gradientTransform="translate(1550.21 -133.927) rotate(90) scale(1100.95 2757.87)">
<stop stop-color="#F1D881"/>
<stop offset="0.505208" stop-color="#F6884A"/>
<stop offset="1" stop-color="#642ADF"/>
</radialGradient>
<radialGradient id="paint5_radial" cx="0" cy="0" r="1" gradientUnits="userSpaceOnUse" gradientTransform="translate(1520.9 -128.556) rotate(90) scale(1118.4 2751.14)">
<stop stop-color="#F1D881"/>
<stop offset="0.505208" stop-color="#F6884A"/>
<stop offset="1" stop-color="#642ADF"/>
</radialGradient>
<radialGradient id="paint6_radial" cx="0" cy="0" r="1" gradientUnits="userSpaceOnUse" gradientTransform="translate(1491.74 -123.618) rotate(90) scale(1136.29 2744.23)">
<stop stop-color="#F1D881"/>
<stop offset="0.505208" stop-color="#F6884A"/>
<stop offset="1" stop-color="#642ADF"/>
</radialGradient>
<radialGradient id="paint7_radial" cx="0" cy="0" r="1" gradientUnits="userSpaceOnUse" gradientTransform="translate(1462.58 -118.321) rotate(90) scale(1153.82 2737.42)">
<stop stop-color="#F1D881"/>
<stop offset="0.505208" stop-color="#F6884A"/>
<stop offset="1" stop-color="#642ADF"/>
</radialGradient>
<radialGradient id="paint8_radial" cx="0" cy="0" r="1" gradientUnits="userSpaceOnUse" gradientTransform="translate(1433.4 -112.968) rotate(90) scale(1171.3 2730.56)">
<stop stop-color="#F1D881"/>
<stop offset="0.505208" stop-color="#F6884A"/>
<stop offset="1" stop-color="#642ADF"/>
</radialGradient>
<radialGradient id="paint9_radial" cx="0" cy="0" r="1" gradientUnits="userSpaceOnUse" gradientTransform="translate(1404.31 -108.048) rotate(90) scale(1189.1 2723.48)">
<stop stop-color="#F1D881"/>
<stop offset="0.505208" stop-color="#F6884A"/>
<stop offset="1" stop-color="#642ADF"/>
</radialGradient>
<radialGradient id="paint10_radial" cx="0" cy="0" r="1" gradientUnits="userSpaceOnUse" gradientTransform="translate(1375.04 -102.615) rotate(90) scale(1206.57 2716.79)">
<stop stop-color="#F1D881"/>
<stop offset="0.505208" stop-color="#F6884A"/>
<stop offset="1" stop-color="#642ADF"/>
</radialGradient>
<radialGradient id="paint11_radial" cx="0" cy="0" r="1" gradientUnits="userSpaceOnUse" gradientTransform="translate(1345.76 -97.5006) rotate(90) scale(1224.28 2710.03)">
<stop stop-color="#F1D881"/>
<stop offset="0.505208" stop-color="#F6884A"/>
<stop offset="1" stop-color="#642ADF"/>
</radialGradient>
<radialGradient id="paint12_radial" cx="0" cy="0" r="1" gradientUnits="userSpaceOnUse" gradientTransform="translate(1316.72 -92.3457) rotate(90) scale(1241.95 2703.1)">
<stop stop-color="#F1D881"/>
<stop offset="0.505208" stop-color="#F6884A"/>
<stop offset="1" stop-color="#642ADF"/>
</radialGradient>
<radialGradient id="paint13_radial" cx="0" cy="0" r="1" gradientUnits="userSpaceOnUse" gradientTransform="translate(1287.6 -87.1779) rotate(90) scale(1259.61 2696.27)">
<stop stop-color="#F1D881"/>
<stop offset="0.505208" stop-color="#F6884A"/>
<stop offset="1" stop-color="#642ADF"/>
</radialGradient>
<radialGradient id="paint14_radial" cx="0" cy="0" r="1" gradientUnits="userSpaceOnUse" gradientTransform="translate(1258.39 -82.0435) rotate(90) scale(1277.3 2689.22)">
<stop stop-color="#F1D881"/>
<stop offset="0.505208" stop-color="#F6884A"/>
<stop offset="1" stop-color="#642ADF"/>
</radialGradient>
<radialGradient id="paint15_radial" cx="0" cy="0" r="1" gradientUnits="userSpaceOnUse" gradientTransform="translate(1229.28 -76.8602) rotate(90) scale(1294.95 2682.55)">
<stop stop-color="#F1D881"/>
<stop offset="0.505208" stop-color="#F6884A"/>
<stop offset="1" stop-color="#642ADF"/>
</radialGradient>
<radialGradient id="paint16_radial" cx="0" cy="0" r="1" gradientUnits="userSpaceOnUse" gradientTransform="translate(1199.99 -71.5244) rotate(90) scale(1312.44 2675.71)">
<stop stop-color="#F1D881"/>
<stop offset="0.505208" stop-color="#F6884A"/>
<stop offset="1" stop-color="#642ADF"/>
</radialGradient>
<radialGradient id="paint17_radial" cx="0" cy="0" r="1" gradientUnits="userSpaceOnUse" gradientTransform="translate(1170.97 -66.339) rotate(90) scale(1330.08 2668.87)">
<stop stop-color="#F1D881"/>
<stop offset="0.505208" stop-color="#F6884A"/>
<stop offset="1" stop-color="#642ADF"/>
</radialGradient>
<clipPath id="clip0">
<rect width="1920" height="1266" fill="white"/>
</clipPath>
</defs>
</svg>
