<?xml version="1.0" encoding="UTF-8"?>
<svg width="1920px" height="1065px" viewBox="0 0 1920 1065" version="1.1" xmlns="http://www.w3.org/2000/svg" xmlns:xlink="http://www.w3.org/1999/xlink">
    <!-- Generator: Sketch 58 (84663) - https://sketch.com -->
    <title>healthify-case-1</title>
    <desc>Created with Sketch.</desc>
    <g id="Case-Studies" stroke="none" stroke-width="1" fill="none" fill-rule="evenodd">
        <g id="work-item---healthify-copy" transform="translate(0.000000, -2174.000000)">
            <rect fill="#F5F5F5" x="0" y="0" width="1920" height="15118"></rect>
            <g id="healthify-case-1" transform="translate(0.000000, 2174.000000)">
                <rect id="Rectangle" fill="#087770" x="0" y="0" width="960" height="1065"></rect>
                <rect id="Rectangle" fill="#D4E9E7" x="960" y="0" width="960" height="532.5"></rect>
                <rect id="Rectangle" fill="#F2F2F2" x="960" y="533" width="960" height="532.5"></rect>
                <g id="logo-full-colour" transform="translate(1226.000000, 214.000000)" fill="#087770">
                    <path d="M289.7,14.85 C286.45896,14.8656091 283.356899,16.1682341 281.076391,18.4712471 C278.795883,20.7742601 277.523782,23.8889627 277.54,27.13 L277.54,30.77 L267.18,30.77 L267.18,42.6 L277.54,42.6 L277.54,69.9 C277.54,84.79 285.08,89.91 303.66,87.64 L303.66,76.61 C294.43,77.06 289.7,77.18 289.7,69.9 L289.7,42.6 L303.66,42.6 L303.66,30.77 L289.7,30.77 L289.7,14.85 L289.7,14.85 Z M246.96,18.81 L246.96,87.64 L259.12,87.64 L259.12,6.53 C255.87896,6.54560912 252.776899,7.84823408 250.496391,10.1512471 C248.215883,12.4542601 246.943782,15.5689627 246.96,18.81 L246.96,18.81 Z M41.5,38.18 L49.14,38.18 L49.14,16.22 C49.1599405,12.2006293 47.5823501,8.33796542 44.7542909,5.48177565 C41.9262317,2.62558589 38.0793712,1.00984209 34.0599248,0.99 L34.0599248,30.56 C34.0417272,34.7060535 37.3546942,38.0991729 41.5,38.18 L41.5,38.18 Z M7.83,38.03 C5.74240708,38.0395215 3.74422159,38.8785076 2.27557685,40.3621576 C0.80693211,41.8458077 -0.0116991919,43.8524182 -0.000123692589,45.94 L0.14,53.26 L26.67,53.26 C30.6922577,53.237964 33.9366131,49.9622838 33.92,45.94 L33.92,45.54 L33.91,45.54 L34.06,38.03 L7.83,38.03 L7.83,38.03 Z M41.7,53.4 L34.06,53.4 L34.06,74.78 C34.0400595,78.7993707 35.6176499,82.6620346 38.4457091,85.5182243 C41.2737683,88.3744141 45.1206288,89.9901579 49.1400752,90.01 L49.1400752,61.02 C49.1582728,56.8739465 45.8453058,53.4808271 41.7,53.4 L41.7,53.4 Z M223.45,38.85 C218.83,32.48 212.3,29.29 203.75,29.29 C196.207183,29.1907255 188.986401,32.3420761 183.93,37.94 C178.41,43.74 175.71,50.79 175.71,59.21 C175.519521,67.1068051 178.476746,74.7552966 183.93,80.47 C188.986401,86.0679239 196.207183,89.2192745 203.75,89.12 C212.3,89.12 218.83,85.93 223.45,79.45 L223.45,87.64 L235.61,87.64 L235.61,30.77 L223.45,30.77 L223.45,38.85 L223.45,38.85 Z M218.38,72.28 C211.273843,79.1064733 200.046157,79.1064733 192.94,72.28 C189.560901,68.7825601 187.733329,64.0712463 187.87,59.21 C187.711184,54.3745566 189.544005,49.6858605 192.94,46.24 C199.986343,39.2665048 211.333657,39.2665048 218.38,46.24 C221.775995,49.6858605 223.608816,54.3745566 223.45,59.21 C223.586671,64.0712463 221.759099,68.7825601 218.38,72.28 L218.38,72.28 Z M142.13,29.29 C133.46,29.29 126.26,32.14 120.74,37.94 C115.23,43.63 112.41,50.67 112.41,59.21 C112.41,67.85 115.226667,75.0133333 120.86,80.7 C126.48,86.27 133.91,89.12 143.03,89.12 C153.96,89.12 162.17,85.02 167.69,76.72 L157.67,70.81 C154.41,75.47 149.57,77.86 143.15,77.86 C133.8,77.86 126.93,73.08 125.13,64.44 L169.94,64.44 C170.22124,62.7474192 170.371685,61.0356894 170.39,59.32 C170.555166,51.4673189 167.694425,43.8518053 162.4,38.05 C157.258213,32.2941543 149.845437,29.0906065 142.13,29.29 L142.13,29.29 Z M125.02,54.43 C126.71,45.78 133.01,40.44 142.02,40.44 C150.01,40.44 156.43,45.22 158.12,54.43 L125.02,54.43 Z M56.55,38.03 C52.5277423,38.052036 49.2833869,41.3277162 49.3,45.35 L49.3,45.75 L49.31,45.75 L49.16,53.26 L75.39,53.26 C77.4775929,53.2504785 79.4757784,52.4114924 80.9444232,50.9278424 C82.4130679,49.4441923 83.2316992,47.4375818 83.2201237,45.35 L83.08,38.03 L56.55,38.03 L56.55,38.03 Z M88.79,15.26 L88.79,75.73 C88.768727,79.4978157 90.2457972,83.119614 92.8959837,85.7979342 C95.5461703,88.4762543 99.1521697,89.991486 102.92,90.01 L102.92,0.99 C99.1539116,1.00851946 95.5494343,2.52237681 92.8995354,5.1985309 C90.2496366,7.87468499 88.771389,11.493912 88.79,15.26 L88.79,15.26 Z M308.4,59.21 C308.460698,42.7663703 321.829371,29.4796618 338.273063,29.519998 C354.716755,29.5605184 368.019933,42.9128021 367.999797,59.3565314 C367.979616,75.8002607 354.643742,89.119888 338.2,89.12 C330.259149,89.1801052 322.627664,86.0446113 317.022828,80.4190862 C311.417992,74.793561 308.310637,67.1505753 308.4,59.21 L308.4,59.21 Z M355.81,59.21 C355.81,48.86 348.13,41.24 338.2,41.24 C328.27,41.24 320.59,48.86 320.59,59.21 C320.59,69.56 328.27,77.17 338.2,77.17 C348.13,77.17 355.81,69.56 355.81,59.21 L355.81,59.21 Z" id="Shape"></path>
                </g>
                <g id="logo-gray" transform="translate(1226.000000, 751.000000)" fill="#D0D1D2">
                    <path d="M289.7,14.85 C286.45896,14.8656091 283.356899,16.1682341 281.076391,18.4712471 C278.795883,20.7742601 277.523782,23.8889627 277.54,27.13 L277.54,30.77 L267.18,30.77 L267.18,42.6 L277.54,42.6 L277.54,69.9 C277.54,84.79 285.08,89.91 303.66,87.64 L303.66,76.61 C294.43,77.06 289.7,77.18 289.7,69.9 L289.7,42.6 L303.66,42.6 L303.66,30.77 L289.7,30.77 L289.7,14.85 L289.7,14.85 Z M246.96,18.81 L246.96,87.64 L259.12,87.64 L259.12,6.53 C255.87896,6.54560912 252.776899,7.84823408 250.496391,10.1512471 C248.215883,12.4542601 246.943782,15.5689627 246.96,18.81 L246.96,18.81 Z M41.5,38.18 L49.14,38.18 L49.14,16.22 C49.1599405,12.2006293 47.5823501,8.33796542 44.7542909,5.48177565 C41.9262317,2.62558589 38.0793712,1.00984209 34.0599248,0.99 L34.0599248,30.56 C34.0417272,34.7060535 37.3546942,38.0991729 41.5,38.18 L41.5,38.18 Z M7.83,38.03 C5.74240708,38.0395215 3.74422159,38.8785076 2.27557685,40.3621576 C0.80693211,41.8458077 -0.0116991919,43.8524182 -0.000123692589,45.94 L0.14,53.26 L26.67,53.26 C30.6922577,53.237964 33.9366131,49.9622838 33.92,45.94 L33.92,45.54 L33.91,45.54 L34.06,38.03 L7.83,38.03 L7.83,38.03 Z M41.7,53.4 L34.06,53.4 L34.06,74.78 C34.0400595,78.7993707 35.6176499,82.6620346 38.4457091,85.5182243 C41.2737683,88.3744141 45.1206288,89.9901579 49.1400752,90.01 L49.1400752,61.02 C49.1582728,56.8739465 45.8453058,53.4808271 41.7,53.4 L41.7,53.4 Z M223.45,38.85 C218.83,32.48 212.3,29.29 203.75,29.29 C196.207183,29.1907255 188.986401,32.3420761 183.93,37.94 C178.41,43.74 175.71,50.79 175.71,59.21 C175.519521,67.1068051 178.476746,74.7552966 183.93,80.47 C188.986401,86.0679239 196.207183,89.2192745 203.75,89.12 C212.3,89.12 218.83,85.93 223.45,79.45 L223.45,87.64 L235.61,87.64 L235.61,30.77 L223.45,30.77 L223.45,38.85 L223.45,38.85 Z M218.38,72.28 C211.273843,79.1064733 200.046157,79.1064733 192.94,72.28 C189.560901,68.7825601 187.733329,64.0712463 187.87,59.21 C187.711184,54.3745566 189.544005,49.6858605 192.94,46.24 C199.986343,39.2665048 211.333657,39.2665048 218.38,46.24 C221.775995,49.6858605 223.608816,54.3745566 223.45,59.21 C223.586671,64.0712463 221.759099,68.7825601 218.38,72.28 L218.38,72.28 Z M142.13,29.3 C133.46,29.3 126.26,32.14 120.74,37.94 C115.23,43.62 112.41,50.67 112.41,59.21 C112.41,67.85 115.226667,75.0133333 120.86,80.7 C126.48,86.27 133.91,89.12 143.03,89.12 C153.96,89.12 162.17,85.02 167.69,76.72 L157.67,70.81 C154.41,75.47 149.57,77.86 143.15,77.86 C133.8,77.86 126.93,73.08 125.13,64.44 L169.94,64.44 C170.22124,62.7474192 170.371685,61.0356894 170.39,59.32 C170.555166,51.4673189 167.694425,43.8518053 162.4,38.05 C157.257012,32.2969546 149.844055,29.0969858 142.13,29.3 L142.13,29.3 Z M125.02,54.43 C126.71,45.78 133.01,40.44 142.02,40.44 C150.01,40.44 156.43,45.22 158.12,54.43 L125.02,54.43 Z M56.55,38.03 C52.5277423,38.052036 49.2833869,41.3277162 49.3,45.35 L49.3,45.75 L49.31,45.75 L49.16,53.26 L75.39,53.26 C77.4775929,53.2504785 79.4757784,52.4114924 80.9444232,50.9278424 C82.4130679,49.4441923 83.2316992,47.4375818 83.2201237,45.35 L83.08,38.03 L56.55,38.03 L56.55,38.03 Z M88.79,15.26 L88.79,75.73 C88.768727,79.4978157 90.2457972,83.119614 92.8959837,85.7979342 C95.5461703,88.4762543 99.1521697,89.991486 102.92,90.01 L102.92,0.99 C99.1539116,1.00851946 95.5494343,2.52237681 92.8995354,5.1985309 C90.2496366,7.87468499 88.771389,11.493912 88.79,15.26 L88.79,15.26 Z M308.4,59.21 C308.460698,42.7663703 321.829371,29.4796618 338.273063,29.519998 C354.716755,29.5605184 368.019933,42.9128021 367.999797,59.3565314 C367.979616,75.8002607 354.643742,89.119888 338.2,89.12 C330.258486,89.1823 322.625719,86.0475093 317.020403,80.4215023 C311.415087,74.7954954 308.30844,67.1512305 308.4,59.21 L308.4,59.21 Z M355.81,59.21 C355.81,48.86 348.13,41.24 338.2,41.24 C328.27,41.24 320.59,48.86 320.59,59.21 C320.59,69.56 328.27,77.17 338.2,77.17 C348.13,77.17 355.81,69.56 355.81,59.21 L355.81,59.21 Z" id="Shape_5_copy"></path>
                </g>
                <g id="logo-symbol-white" transform="translate(369.000000, 440.000000)" fill="#FFFFFF">
                    <path d="M119.236,77.4 C110.794852,77.4044168 103.954447,84.2488512 103.955,92.69 L103.955,93.51 L103.961,93.51 L103.65,109.21 L158.969,109.21 C168.086764,109.203375 175.47342,101.807765 175.469002,92.69 L175.164,77.4 L119.236,77.4 Z M187.206996,29.82 L187.206996,156.17 C187.19816,172.633867 200.536135,185.988406 217,186 L217,0 C209.094702,0.00318180613 201.514493,3.14680633 195.927135,8.73922759 C190.339778,14.3316489 187.203021,21.9147027 187.206996,29.82 L187.206996,29.82 Z M87.494,77.7 L103.594006,77.7 L103.594006,31.82 C103.599306,23.3861151 100.254046,15.2955526 94.2941396,9.32814465 C88.3342332,3.36073673 80.2478849,0.00530266209 71.814,4.54747351e-13 L71.814,61.8 C71.8131675,70.4961247 78.7987077,77.5796763 87.494,77.7 Z M87.919,109.52 L71.8189984,109.52 L71.8189984,154.18 C71.8134758,171.740704 86.0432975,185.981718 103.604004,185.99 L103.604004,125.43 C103.610268,116.728061 96.6201462,109.637666 87.919,109.52 L87.919,109.52 Z M16.499997,77.4 C12.1221948,77.4 7.92383902,79.1397597 4.82920115,82.2362731 C1.73456329,85.3327865 -0.0026532153,89.5321956 -3.03468619e-06,93.91 L0.3,109.21 L56.229,109.21 C60.2843337,109.207614 64.1726089,107.594281 67.0383812,104.724946 C69.9041535,101.85561 71.512653,97.9653335 71.51,93.91 L71.51,93.09 L71.499997,93.09 L71.811,77.4 L16.499997,77.4 Z" id="Shape"></path>
                </g>
            </g>
        </g>
    </g>
</svg>