<svg width="1920" height="1089" viewBox="0 0 1920 1089" fill="none" xmlns="http://www.w3.org/2000/svg">
<g clip-path="url(#clip0)">
<rect width="1920" height="1089" fill="#F8D951"/>
<rect x="240" y="506.992" width="690" height="2" fill="#151414"/>
<rect opacity="0.1" x="988" y="506.988" width="690" height="1" fill="#151414"/>
<mask id="mask0" mask-type="alpha" maskUnits="userSpaceOnUse" x="997" y="636" width="688" height="285">
<path d="M1684.8 917.855C1684.8 917.203 1684.8 916.55 1684.8 916.55V913.941C1684.8 913.941 1684.8 913.941 1684.66 913.941C1684.66 913.289 1684.66 912.636 1684.66 912.636V909.896C1684.66 909.896 1684.66 909.896 1684.52 909.896C1684.52 909.244 1684.52 908.591 1684.66 908.591V905.852C1684.66 905.852 1684.66 905.852 1684.52 905.852C1684.52 905.199 1684.66 904.677 1684.66 904.677V901.937H1684.52C1684.52 901.285 1684.66 900.763 1684.66 900.763V898.023H1684.52C1684.52 897.501 1684.66 896.849 1684.66 896.849V893.978H1684.52C1684.52 893.456 1684.66 892.935 1684.66 892.935V890.064C1684.66 890.064 1684.52 890.064 1684.39 890.064C1684.39 889.542 1684.52 889.02 1684.52 889.02V886.15C1684.52 886.15 1684.39 886.15 1684.25 886.15C1684.39 885.628 1684.39 885.106 1684.52 885.106V882.105C1684.52 882.105 1684.39 882.105 1684.25 882.105C1684.39 881.583 1684.39 881.061 1684.52 881.061V878.061C1684.52 878.061 1684.39 878.061 1684.25 878.061C1684.39 877.539 1684.39 877.147 1684.52 877.147V874.146C1684.39 874.146 1684.39 874.146 1684.25 874.146C1684.39 873.624 1684.39 873.233 1684.52 873.233V870.232C1684.39 870.232 1684.39 870.232 1684.25 870.232C1684.39 869.71 1684.39 869.319 1684.52 869.319V866.187C1684.39 866.187 1684.25 866.187 1684.11 866.187C1684.25 865.796 1684.39 865.405 1684.39 865.405V862.273C1684.25 862.273 1684.11 862.273 1683.98 862.273C1684.11 861.882 1684.25 861.49 1684.25 861.49V858.359C1684.11 858.359 1683.98 858.359 1683.84 858.359C1683.98 857.968 1684.11 857.576 1684.25 857.576V854.314C1684.11 854.314 1683.98 854.314 1683.84 854.314C1683.98 853.923 1684.11 853.531 1684.25 853.531V850.27C1684.11 850.27 1683.98 850.27 1683.84 850.27C1683.98 849.878 1684.11 849.617 1684.25 849.617V846.355C1684.11 846.355 1683.98 846.355 1683.84 846.355C1683.98 845.964 1684.11 845.703 1684.25 845.703V842.441C1684.11 842.441 1683.98 842.441 1683.84 842.441C1683.98 842.05 1684.11 841.789 1684.25 841.789V838.396C1684.11 838.396 1683.98 838.396 1683.84 838.396C1683.98 838.005 1684.11 837.744 1684.25 837.744V834.352C1684.11 834.352 1683.98 834.352 1683.84 834.352C1683.98 834.091 1684.11 833.83 1684.25 833.83V830.438C1684.11 830.438 1683.98 830.438 1683.84 830.438C1683.98 830.177 1684.11 829.916 1684.25 829.916V826.523C1684.11 826.523 1683.98 826.523 1683.84 826.523C1683.98 826.262 1684.11 826.001 1684.25 826.001V822.609C1684.11 822.609 1683.98 822.609 1683.84 822.609C1683.98 822.348 1684.11 822.218 1684.25 822.218V818.695C1684.11 818.695 1683.98 818.695 1683.84 818.695C1683.98 818.434 1684.11 818.303 1684.25 818.303V814.781C1684.11 814.781 1683.98 814.781 1683.84 814.781C1683.98 814.52 1684.11 814.389 1684.25 814.389V810.736C1684.11 810.736 1683.98 810.736 1683.84 810.736C1683.98 810.605 1684.11 810.345 1684.25 810.345V806.691C1684.11 806.691 1683.98 806.691 1683.84 806.691C1683.98 806.561 1684.11 806.43 1684.25 806.43V802.777C1684.11 802.777 1683.98 802.777 1683.84 802.777C1683.98 802.647 1684.11 802.516 1684.25 802.516V798.863C1684.11 798.863 1683.98 798.863 1683.84 798.863C1683.98 798.732 1684.11 798.602 1684.25 798.602V794.818C1684.11 794.818 1683.98 794.818 1683.84 794.818C1683.98 794.688 1684.11 794.688 1684.25 794.688V790.904C1684.11 790.904 1683.98 790.904 1683.84 790.904C1683.98 790.773 1684.11 790.773 1684.25 790.773V786.99C1684.11 786.99 1683.98 786.99 1683.98 786.99C1684.11 786.859 1684.11 786.859 1684.25 786.859V782.945C1684.11 782.945 1684.11 782.945 1683.98 782.945C1684.11 782.945 1684.11 782.815 1684.25 782.815V778.9V774.986V771.072V767.158V763.243V759.329V755.415V751.501V747.587V743.672V739.758V735.844V731.93V728.015V724.101V720.187V716.273V712.359V708.444V704.53V700.616V696.702V692.787V688.873V684.959V681.045V677.131V673.216V669.302V665.388V661.474V657.559V653.645V649.731V645.817V639.945V636.031C1657.33 636.031 1637.52 647.122 1616.61 658.864C1608.55 663.431 1600.22 667.997 1591.47 672.042C1575.21 679.479 1557.45 680.914 1540.37 682.48C1524.11 683.915 1507.17 685.35 1491.32 691.874C1474.51 698.789 1461.25 710.401 1448.41 721.622C1439.8 729.059 1430.92 736.888 1421.22 743.02C1401 755.806 1380.5 757.503 1358.91 759.46C1347.84 760.373 1336.37 761.417 1324.62 763.896C1297.29 769.767 1279.72 786.98 1259.36 803.028C1257.45 804.463 1254.53 806.895 1252.62 808.33C1224.88 829.988 1199.36 836.163 1162.27 836.163C1128.8 837.728 1101.58 847.7 1065.78 865.706C1061.13 868.054 1056.48 870.533 1051.7 873.273C1034.9 882.406 1015.4 891.671 997.09 892.976V893.367V893.759V894.15V894.542V894.933V895.324V895.716V896.107V896.499V896.89V897.281V897.673V898.064V898.456V898.847V899.239V899.63V900.021V900.413V900.804V901.196V901.587V901.979V902.37V902.761V900.502V900.893V901.285V901.676V902.068V902.459V902.851V903.242V903.633V904.025V904.416V904.808V905.199V905.591V905.982V906.373V906.765V907.156V907.548V907.939V908.331V908.722V909.113V909.505V909.896V910.288V910.679V911.07V911.462V911.853V912.245V912.636V913.028V913.419V913.81V914.202V914.854V915.637V916.42V917.203V917.986V918.768V919.421V919.812V920.204V920.595V920.986H1340.74H1684.39V918.377L1684.8 917.855Z" fill="#151414"/>
</mask>
<g mask="url(#mask0)">
<path opacity="0.4" d="M1684.8 917.855C1684.8 917.203 1684.8 916.55 1684.8 916.55V913.941C1684.8 913.941 1684.8 913.941 1684.66 913.941C1684.66 913.289 1684.66 912.636 1684.66 912.636V909.896C1684.66 909.896 1684.66 909.896 1684.52 909.896C1684.52 909.244 1684.52 908.591 1684.66 908.591V905.852C1684.66 905.852 1684.66 905.852 1684.52 905.852C1684.52 905.199 1684.66 904.677 1684.66 904.677V901.937H1684.52C1684.52 901.285 1684.66 900.763 1684.66 900.763V898.023H1684.52C1684.52 897.501 1684.66 896.849 1684.66 896.849V893.978H1684.52C1684.52 893.456 1684.66 892.935 1684.66 892.935V890.064C1684.66 890.064 1684.52 890.064 1684.39 890.064C1684.39 889.542 1684.52 889.02 1684.52 889.02V886.15C1684.52 886.15 1684.39 886.15 1684.25 886.15C1684.39 885.628 1684.39 885.106 1684.52 885.106V882.105C1684.52 882.105 1684.39 882.105 1684.25 882.105C1684.39 881.583 1684.39 881.061 1684.52 881.061V878.061C1684.52 878.061 1684.39 878.061 1684.25 878.061C1684.39 877.539 1684.39 877.147 1684.52 877.147V874.146C1684.39 874.146 1684.39 874.146 1684.25 874.146C1684.39 873.624 1684.39 873.233 1684.52 873.233V870.232C1684.39 870.232 1684.39 870.232 1684.25 870.232C1684.39 869.71 1684.39 869.319 1684.52 869.319V866.187C1684.39 866.187 1684.25 866.187 1684.11 866.187C1684.25 865.796 1684.39 865.405 1684.39 865.405V862.273C1684.25 862.273 1684.11 862.273 1683.98 862.273C1684.11 861.882 1684.25 861.49 1684.25 861.49V858.359C1684.11 858.359 1683.98 858.359 1683.84 858.359C1683.98 857.968 1684.11 857.576 1684.25 857.576V854.314C1684.11 854.314 1683.98 854.314 1683.84 854.314C1683.98 853.923 1684.11 853.531 1684.25 853.531V850.27C1684.11 850.27 1683.98 850.27 1683.84 850.27C1683.98 849.878 1684.11 849.617 1684.25 849.617V846.355C1684.11 846.355 1683.98 846.355 1683.84 846.355C1683.98 845.964 1684.11 845.703 1684.25 845.703V842.441C1684.11 842.441 1683.98 842.441 1683.84 842.441C1683.98 842.05 1684.11 841.789 1684.25 841.789V838.396C1684.11 838.396 1683.98 838.396 1683.84 838.396C1683.98 838.005 1684.11 837.744 1684.25 837.744V834.352C1684.11 834.352 1683.98 834.352 1683.84 834.352C1683.98 834.091 1684.11 833.83 1684.25 833.83V830.438C1684.11 830.438 1683.98 830.438 1683.84 830.438C1683.98 830.177 1684.11 829.916 1684.25 829.916V826.523C1684.11 826.523 1683.98 826.523 1683.84 826.523C1683.98 826.262 1684.11 826.001 1684.25 826.001V822.609C1684.11 822.609 1683.98 822.609 1683.84 822.609C1683.98 822.348 1684.11 822.218 1684.25 822.218V818.695C1684.11 818.695 1683.98 818.695 1683.84 818.695C1683.98 818.434 1684.11 818.303 1684.25 818.303V814.781C1684.11 814.781 1683.98 814.781 1683.84 814.781C1683.98 814.52 1684.11 814.389 1684.25 814.389V810.736C1684.11 810.736 1683.98 810.736 1683.84 810.736C1683.98 810.605 1684.11 810.345 1684.25 810.345V806.691C1684.11 806.691 1683.98 806.691 1683.84 806.691C1683.98 806.561 1684.11 806.43 1684.25 806.43V802.777C1684.11 802.777 1683.98 802.777 1683.84 802.777C1683.98 802.647 1684.11 802.516 1684.25 802.516V798.863C1684.11 798.863 1683.98 798.863 1683.84 798.863C1683.98 798.732 1684.11 798.602 1684.25 798.602V794.818C1684.11 794.818 1683.98 794.818 1683.84 794.818C1683.98 794.688 1684.11 794.688 1684.25 794.688V790.904C1684.11 790.904 1683.98 790.904 1683.84 790.904C1683.98 790.773 1684.11 790.773 1684.25 790.773V786.99C1684.11 786.99 1683.98 786.99 1683.98 786.99C1684.11 786.859 1684.11 786.859 1684.25 786.859V782.945C1684.11 782.945 1684.11 782.945 1683.98 782.945C1684.11 782.945 1684.11 782.815 1684.25 782.815V778.9V774.986V771.072V767.158V763.243V759.329V755.415V751.501V747.587V743.672V739.758V735.844V731.93V728.015V724.101V720.187V716.273V712.359V708.444V704.53V700.616V696.702V692.787V688.873V684.959V681.045V677.131V673.216V669.302V665.388V661.474V657.559V653.645V649.731V645.817V639.945V636.031C1657.33 636.031 1637.52 647.122 1616.61 658.864C1608.55 663.431 1600.22 667.997 1591.47 672.042C1575.21 679.479 1557.45 680.914 1540.37 682.48C1524.11 683.915 1507.17 685.35 1491.32 691.874C1474.51 698.789 1461.25 710.401 1448.41 721.622C1439.8 729.059 1430.92 736.888 1421.22 743.02C1401 755.806 1380.5 757.503 1358.91 759.46C1347.84 760.373 1336.37 761.417 1324.62 763.896C1297.29 769.767 1279.72 786.98 1259.36 803.028C1257.45 804.463 1254.53 806.895 1252.62 808.33C1224.88 829.988 1199.36 836.163 1162.27 836.163C1128.8 837.728 1101.58 847.7 1065.78 865.706C1061.13 868.054 1056.48 870.533 1051.7 873.273C1034.9 882.406 1015.4 891.671 997.09 892.976V893.367V893.759V894.15V894.542V894.933V895.324V895.716V896.107V896.499V896.89V897.281V897.673V898.064V898.456V898.847V899.239V899.63V900.021V900.413V900.804V901.196V901.587V901.979V902.37V902.761V900.502V900.893V901.285V901.676V902.068V902.459V902.851V903.242V903.633V904.025V904.416V904.808V905.199V905.591V905.982V906.373V906.765V907.156V907.548V907.939V908.331V908.722V909.113V909.505V909.896V910.288V910.679V911.07V911.462V911.853V912.245V912.636V913.028V913.419V913.81V914.202V914.854V915.637V916.42V917.203V917.986V918.768V919.421V919.812V920.204V920.595V920.986H1340.74H1684.39V918.377L1684.8 917.855Z" fill="#FFEB7B"/>
<rect x="1682.1" y="634.707" width="2" height="286.281" fill="#F8D951"/>
<rect x="995.741" y="634.707" width="2" height="286.281" fill="#151414"/>
<rect x="1166.99" y="634.707" width="2" height="286.281" fill="#F8D951"/>
<rect x="996.974" y="634.707" width="2" height="286.281" fill="#F8D951"/>
<rect x="1509.5" y="634.707" width="2" height="286.281" fill="#F8D951"/>
<rect x="1338.92" y="634.707" width="2" height="286.281" fill="#F8D951"/>
</g>
<path d="M997.093 893.153C1041.94 893.153 1085.44 835.5 1175.82 835.5C1266.2 835.5 1262.12 761.279 1356.58 761.279C1451.04 761.279 1451.04 683.744 1531.23 683.744C1611.42 683.744 1620.93 634.706 1683.45 634.706" stroke="white" stroke-width="2.65075"/>
<circle cx="1682.65" cy="632.718" r="5.96418" fill="#F8D951" stroke="white" stroke-width="3.97612"/>
<circle cx="998.964" cy="891.167" r="5.96418" fill="#F8D951" stroke="white" stroke-width="3.97612"/>
<circle cx="1168.61" cy="834.174" r="5.96418" fill="#F8D951" stroke="white" stroke-width="3.97612"/>
<circle cx="1339.59" cy="759.952" r="5.96418" fill="#F8D951" stroke="white" stroke-width="3.97612"/>
<circle cx="1510.56" cy="684.409" r="5.96418" fill="#F8D951" stroke="white" stroke-width="3.97612"/>
<path d="M376.875 765.504C417.637 751.345 448.101 726.458 448.101 689.987C448.101 655.661 421.928 631.204 374.3 631.204C330.106 631.204 298.354 660.81 280.762 696.852L286.34 701.572C301.358 683.122 317.233 670.679 342.978 670.679C373.442 670.679 389.318 687.842 389.318 709.724C389.318 729.033 381.595 744.05 365.719 755.206C349.843 766.791 330.535 774.086 308.652 777.947L306.936 784.383C344.265 792.965 376.446 832.869 376.446 872.773C376.446 908.815 361.428 932.843 337.829 932.843C323.67 932.843 317.233 925.12 300.07 897.23C290.631 882.213 280.333 874.918 269.606 874.918C254.159 874.918 240.858 883.5 232.277 898.947C241.716 918.255 280.333 943.57 329.677 943.57C384.169 944.858 434.8 898.517 433.513 848.316C433.513 813.99 410.772 783.954 376.875 765.504Z" fill="#151414"/>
<path d="M535.814 944.428C562.845 944.428 587.732 934.56 610.044 914.822C631.927 895.514 649.519 870.628 661.962 840.163C674.405 809.699 680.841 779.235 680.841 748.77C680.841 682.264 643.941 631.204 593.31 631.204C565.849 631.204 540.963 641.072 519.08 660.381C496.768 679.689 479.176 704.575 466.733 735.04C454.289 765.504 447.853 795.968 447.853 826.433C447.853 892.939 484.325 944.428 535.814 944.428ZM535.814 933.273C522.512 933.273 516.505 913.535 516.505 869.34C516.505 837.16 520.367 802.834 528.09 767.22C535.385 731.607 545.253 702.001 557.267 677.973C569.282 654.374 581.296 642.36 593.739 642.36C607.04 642.36 612.618 661.239 612.618 704.575C612.618 737.185 608.756 771.511 601.033 807.124C593.31 843.167 583.441 873.202 571.856 897.23C559.842 921.258 547.828 933.273 535.814 933.273Z" fill="#151414"/>
<path d="M841.573 632.71H809.888L767.92 700.666L756.246 632.71H726.785L726.229 635.073L728.036 635.351C732.622 635.907 735.123 637.296 735.123 640.771C735.123 641.743 734.984 642.577 734.845 643.133L717.752 716.786C716.085 724.152 712.888 726.653 706.913 727.348L704.689 727.626L704.133 729.988H730.12L730.676 727.626L728.731 727.348C724.145 726.653 721.921 725.263 721.921 720.955C721.921 719.705 722.06 718.315 722.477 716.786L738.042 649.248L751.938 729.988H754.857L804.746 649.387L788.626 719.566C787.514 724.708 784.596 726.097 778.342 727.209L776.119 727.626L775.563 729.988H819.06L819.616 727.626L817.809 727.209C812.946 726.097 810.722 725.124 810.722 721.65C810.722 721.372 810.861 720.677 811 719.566L828.649 643.133C829.761 637.991 833.235 636.046 838.933 635.351L841.017 635.073L841.573 632.71Z" fill="#151414"/>
<path d="M893.173 681.766H866.213V654.667H861.766V681.766H834.806V685.935H861.766V713.034H866.213V685.935H893.173V681.766Z" fill="#151414"/>
<g opacity="0.4">
<path d="M1011.1 972.521C1009.68 973.507 1008.06 974 1006.23 974C1004.66 974 1003.23 973.642 1001.96 972.926C1000.69 972.195 999.688 971.193 998.956 969.92C998.24 968.648 997.883 967.225 997.883 965.65C997.883 964.076 998.24 962.652 998.956 961.38C999.688 960.107 1000.69 959.113 1001.96 958.398C1003.23 957.666 1004.66 957.3 1006.23 957.3C1007.81 957.3 1009.23 957.666 1010.5 958.398C1011.78 959.113 1012.77 960.107 1013.48 961.38C1014.22 962.652 1014.58 964.076 1014.58 965.65C1014.58 966.589 1014.45 967.487 1014.18 968.346C1013.91 969.189 1013.52 969.952 1013.03 970.636L1017.11 974.74L1015.23 976.672L1011.1 972.521ZM1006.23 971.28C1007.31 971.28 1008.27 971.026 1009.1 970.517L1004.9 966.318L1006.78 964.386L1011 968.608C1011.58 967.797 1011.86 966.811 1011.86 965.65C1011.86 964.569 1011.62 963.606 1011.12 962.763C1010.65 961.905 1009.98 961.237 1009.12 960.76C1008.28 960.266 1007.31 960.02 1006.23 960.02C1005.15 960.02 1004.18 960.266 1003.32 960.76C1002.48 961.237 1001.81 961.905 1001.32 962.763C1000.84 963.606 1000.6 964.569 1000.6 965.65C1000.6 966.732 1000.84 967.702 1001.32 968.561C1001.81 969.404 1002.48 970.072 1003.32 970.565C1004.18 971.042 1005.15 971.28 1006.23 971.28Z" fill="#151414"/>
<path d="M1025.42 974H1022.7V961.428L1019.12 964.982L1017.24 963.05L1023.04 957.3H1025.42V974Z" fill="#151414"/>
</g>
<g opacity="0.4">
<path d="M1166.14 972.521C1164.73 973.507 1163.1 974 1161.28 974C1159.7 974 1158.28 973.642 1157.01 972.926C1155.73 972.195 1154.73 971.193 1154 969.92C1153.28 968.648 1152.93 967.225 1152.93 965.65C1152.93 964.076 1153.28 962.652 1154 961.38C1154.73 960.107 1155.73 959.113 1157.01 958.398C1158.28 957.666 1159.7 957.3 1161.28 957.3C1162.85 957.3 1164.27 957.666 1165.55 958.398C1166.82 959.113 1167.81 960.107 1168.53 961.38C1169.26 962.652 1169.63 964.076 1169.63 965.65C1169.63 966.589 1169.49 967.487 1169.22 968.346C1168.95 969.189 1168.57 969.952 1168.07 970.636L1172.15 974.74L1170.27 976.672L1166.14 972.521ZM1161.28 971.28C1162.36 971.28 1163.31 971.026 1164.14 970.517L1159.94 966.318L1161.82 964.386L1166.05 968.608C1166.62 967.797 1166.91 966.811 1166.91 965.65C1166.91 964.569 1166.66 963.606 1166.17 962.763C1165.69 961.905 1165.02 961.237 1164.16 960.76C1163.32 960.266 1162.36 960.02 1161.28 960.02C1160.19 960.02 1159.22 960.266 1158.36 960.76C1157.52 961.237 1156.85 961.905 1156.36 962.763C1155.88 963.606 1155.65 964.569 1155.65 965.65C1155.65 966.732 1155.88 967.702 1156.36 968.561C1156.85 969.404 1157.52 970.072 1158.36 970.565C1159.22 971.042 1160.19 971.28 1161.28 971.28Z" fill="#151414"/>
<path d="M1172.35 960.95C1172.93 959.869 1173.69 958.994 1174.64 958.326C1175.61 957.642 1176.72 957.3 1177.96 957.3C1178.98 957.3 1179.9 957.523 1180.73 957.968C1181.55 958.414 1182.2 959.034 1182.66 959.829C1183.14 960.624 1183.38 961.523 1183.38 962.525C1183.38 963.352 1183.22 964.131 1182.9 964.863C1182.58 965.594 1182.14 966.239 1181.59 966.795L1177.13 971.28H1183.38V974H1172.88V971.734L1179.53 965.054C1180.28 964.306 1180.66 963.511 1180.66 962.668C1180.66 961.889 1180.39 961.253 1179.87 960.76C1179.36 960.266 1178.72 960.02 1177.96 960.02C1177.23 960.02 1176.55 960.266 1175.93 960.76C1175.33 961.237 1174.84 961.889 1174.45 962.716L1172.35 960.95Z" fill="#151414"/>
</g>
<g opacity="0.4">
<path d="M1337.12 972.521C1335.7 973.507 1334.08 974 1332.25 974C1330.68 974 1329.25 973.642 1327.98 972.926C1326.71 972.195 1325.71 971.193 1324.97 969.92C1324.26 968.648 1323.9 967.225 1323.9 965.65C1323.9 964.076 1324.26 962.652 1324.97 961.38C1325.71 960.107 1326.71 959.113 1327.98 958.398C1329.25 957.666 1330.68 957.3 1332.25 957.3C1333.82 957.3 1335.25 957.666 1336.52 958.398C1337.79 959.113 1338.79 960.107 1339.5 961.38C1340.23 962.652 1340.6 964.076 1340.6 965.65C1340.6 966.589 1340.46 967.487 1340.19 968.346C1339.92 969.189 1339.54 969.952 1339.05 970.636L1343.13 974.74L1341.24 976.672L1337.12 972.521ZM1332.25 971.28C1333.33 971.28 1334.29 971.026 1335.11 970.517L1330.91 966.318L1332.8 964.386L1337.02 968.608C1337.59 967.797 1337.88 966.811 1337.88 965.65C1337.88 964.569 1337.63 963.606 1337.14 962.763C1336.66 961.905 1336 961.237 1335.14 960.76C1334.29 960.266 1333.33 960.02 1332.25 960.02C1331.17 960.02 1330.2 960.266 1329.34 960.76C1328.5 961.237 1327.83 961.905 1327.34 962.763C1326.86 963.606 1326.62 964.569 1326.62 965.65C1326.62 966.732 1326.86 967.702 1327.34 968.561C1327.83 969.404 1328.5 970.072 1329.34 970.565C1330.2 971.042 1331.17 971.28 1332.25 971.28Z" fill="#151414"/>
<path d="M1343.52 960.545C1343.95 959.606 1344.63 958.835 1345.55 958.231C1346.49 957.61 1347.54 957.3 1348.72 957.3C1349.72 957.3 1350.62 957.499 1351.42 957.897C1352.21 958.278 1352.83 958.827 1353.28 959.543C1353.74 960.259 1353.97 961.07 1353.97 961.976C1353.97 962.803 1353.78 963.535 1353.4 964.171C1353.03 964.807 1352.54 965.292 1351.92 965.626C1352.55 965.96 1353.05 966.453 1353.42 967.105C1353.79 967.757 1353.97 968.505 1353.97 969.348C1353.97 970.302 1353.75 971.129 1353.3 971.829C1352.86 972.529 1352.24 973.07 1351.44 973.451C1350.66 973.817 1349.77 974 1348.77 974C1347.54 974 1346.45 973.698 1345.5 973.093C1344.56 972.473 1343.89 971.662 1343.5 970.66L1345.57 968.728C1345.81 969.507 1346.21 970.127 1346.76 970.588C1347.34 971.05 1348.01 971.28 1348.79 971.28C1349.52 971.28 1350.11 971.089 1350.56 970.708C1351.02 970.31 1351.25 969.777 1351.25 969.109C1351.25 968.457 1351.03 967.948 1350.58 967.583C1350.15 967.217 1349.59 967.018 1348.89 966.986H1347.77V964.29H1348.89C1349.57 964.259 1350.14 964.06 1350.58 963.694C1351.03 963.312 1351.25 962.803 1351.25 962.167C1351.25 961.515 1351.02 960.998 1350.56 960.616C1350.1 960.219 1349.51 960.02 1348.79 960.02C1348.04 960.02 1347.38 960.251 1346.81 960.712C1346.24 961.173 1345.83 961.769 1345.57 962.501L1343.52 960.545Z" fill="#151414"/>
</g>
<g opacity="0.4">
<path d="M1507.34 972.521C1505.92 973.507 1504.3 974 1502.47 974C1500.9 974 1499.47 973.642 1498.2 972.926C1496.93 972.195 1495.93 971.193 1495.19 969.92C1494.48 968.648 1494.12 967.225 1494.12 965.65C1494.12 964.076 1494.48 962.652 1495.19 961.38C1495.93 960.107 1496.93 959.113 1498.2 958.398C1499.47 957.666 1500.9 957.3 1502.47 957.3C1504.04 957.3 1505.47 957.666 1506.74 958.398C1508.01 959.113 1509.01 960.107 1509.72 961.38C1510.45 962.652 1510.82 964.076 1510.82 965.65C1510.82 966.589 1510.68 967.487 1510.41 968.346C1510.14 969.189 1509.76 969.952 1509.27 970.636L1513.35 974.74L1511.46 976.672L1507.34 972.521ZM1502.47 971.28C1503.55 971.28 1504.51 971.026 1505.33 970.517L1501.13 966.318L1503.02 964.386L1507.24 968.608C1507.81 967.797 1508.1 966.811 1508.1 965.65C1508.1 964.569 1507.85 963.606 1507.36 962.763C1506.88 961.905 1506.22 961.237 1505.36 960.76C1504.51 960.266 1503.55 960.02 1502.47 960.02C1501.39 960.02 1500.42 960.266 1499.56 960.76C1498.72 961.237 1498.05 961.905 1497.56 962.763C1497.08 963.606 1496.84 964.569 1496.84 965.65C1496.84 966.732 1497.08 967.702 1497.56 968.561C1498.05 969.404 1498.72 970.072 1499.56 970.565C1500.42 971.042 1501.39 971.28 1502.47 971.28Z" fill="#151414"/>
<path d="M1525.14 968.251H1528.05V970.97H1525.14V974H1522.42V970.97H1513.45V968.561L1522.88 957.3H1525.14V968.251ZM1517.29 968.251H1522.42V962.095L1517.29 968.251Z" fill="#151414"/>
</g>
<g opacity="0.4">
<path d="M1665.81 972.521C1664.39 973.507 1662.77 974 1660.94 974C1659.37 974 1657.94 973.642 1656.67 972.926C1655.4 972.195 1654.4 971.193 1653.67 969.92C1652.95 968.648 1652.59 967.225 1652.59 965.65C1652.59 964.076 1652.95 962.652 1653.67 961.38C1654.4 960.107 1655.4 959.113 1656.67 958.398C1657.94 957.666 1659.37 957.3 1660.94 957.3C1662.52 957.3 1663.94 957.666 1665.21 958.398C1666.48 959.113 1667.48 960.107 1668.19 961.38C1668.93 962.652 1669.29 964.076 1669.29 965.65C1669.29 966.589 1669.16 967.487 1668.89 968.346C1668.62 969.189 1668.23 969.952 1667.74 970.636L1671.82 974.74L1669.94 976.672L1665.81 972.521ZM1660.94 971.28C1662.02 971.28 1662.98 971.026 1663.8 970.517L1659.61 966.318L1661.49 964.386L1665.71 968.608C1666.29 967.797 1666.57 966.811 1666.57 965.65C1666.57 964.569 1666.33 963.606 1665.83 962.763C1665.36 961.905 1664.69 961.237 1663.83 960.76C1662.99 960.266 1662.02 960.02 1660.94 960.02C1659.86 960.02 1658.89 960.266 1658.03 960.76C1657.19 961.237 1656.52 961.905 1656.03 962.763C1655.55 963.606 1655.31 964.569 1655.31 965.65C1655.31 966.732 1655.55 967.702 1656.03 968.561C1656.52 969.404 1657.19 970.072 1658.03 970.565C1658.89 971.042 1659.86 971.28 1660.94 971.28Z" fill="#151414"/>
<path d="M1677.32 974C1676.44 974 1675.56 973.865 1674.67 973.594C1673.79 973.308 1673.02 972.911 1672.35 972.402L1673.59 969.968C1674.18 970.398 1674.8 970.724 1675.43 970.946C1676.07 971.169 1676.7 971.28 1677.32 971.28C1678.25 971.28 1679.02 971.026 1679.61 970.517C1680.21 969.992 1680.51 969.26 1680.51 968.322C1680.51 967.4 1680.2 966.684 1679.58 966.175C1678.98 965.666 1678.14 965.412 1677.08 965.412C1676.54 965.412 1675.93 965.483 1675.26 965.626C1674.61 965.754 1673.98 965.936 1673.36 966.175V957.3H1683.23V960.02H1676.08V962.859C1676.55 962.763 1677.01 962.716 1677.46 962.716C1678.64 962.716 1679.65 962.946 1680.51 963.408C1681.39 963.869 1682.06 964.521 1682.52 965.364C1682.99 966.207 1683.23 967.193 1683.23 968.322C1683.23 969.515 1682.97 970.541 1682.45 971.4C1681.92 972.258 1681.21 972.911 1680.3 973.356C1679.41 973.785 1678.41 974 1677.32 974Z" fill="#151414"/>
</g>
<path d="M997.763 843.184C998.272 842.388 999.012 841.744 999.982 841.251C1000.97 840.742 1002.05 840.488 1003.23 840.488C1004.34 840.488 1005.33 840.679 1006.18 841.06C1007.04 841.442 1007.7 841.983 1008.16 842.683C1008.64 843.382 1008.88 844.194 1008.88 845.116C1008.88 845.991 1008.67 846.762 1008.24 847.43C1007.81 848.082 1007.24 848.551 1006.54 848.838C1007.26 849.108 1007.82 849.577 1008.24 850.245C1008.67 850.913 1008.88 851.685 1008.88 852.559C1008.88 853.991 1008.36 855.12 1007.33 855.947C1006.31 856.774 1004.94 857.187 1003.23 857.187C1002.03 857.187 1000.94 856.933 999.958 856.424C998.972 855.915 998.233 855.247 997.74 854.42L1000.03 851.939C1000.35 852.527 1000.79 852.997 1001.34 853.347C1001.9 853.681 1002.53 853.848 1003.25 853.848C1003.97 853.848 1004.52 853.704 1004.92 853.418C1005.33 853.116 1005.54 852.694 1005.54 852.154C1005.54 851.629 1005.34 851.223 1004.94 850.937C1004.55 850.635 1004.01 850.476 1003.32 850.46H1002.06V847.192H1003.32C1004.01 847.176 1004.55 847.025 1004.94 846.738C1005.34 846.436 1005.54 846.023 1005.54 845.498C1005.54 844.973 1005.33 844.567 1004.92 844.281C1004.51 843.979 1003.95 843.828 1003.25 843.828C1002.55 843.828 1001.92 844.003 1001.37 844.353C1000.81 844.687 1000.36 845.14 1000.03 845.712L997.763 843.184Z" fill="#151414"/>
<path d="M1011.83 840.488H1015.05L1022.09 852.822L1029.1 840.488H1032.32V857.187H1028.98V847.478L1023.45 857.187H1020.7L1015.17 847.478V857.187H1011.83V840.488Z" fill="#151414"/>
<path d="M1155.38 813.449C1154 813.449 1152.59 813.115 1151.16 812.447L1152.35 809.417C1152.84 809.624 1153.36 809.791 1153.9 809.918C1154.44 810.045 1154.94 810.109 1155.4 810.109C1156.3 810.109 1157.04 809.846 1157.62 809.322C1158.21 808.781 1158.55 808.073 1158.63 807.198C1158.21 807.453 1157.8 807.652 1157.39 807.795C1156.97 807.938 1156.5 808.009 1155.98 808.009C1154.93 808.009 1153.99 807.779 1153.16 807.318C1152.35 806.84 1151.72 806.188 1151.25 805.361C1150.81 804.518 1150.59 803.564 1150.59 802.498C1150.59 801.369 1150.82 800.375 1151.3 799.516C1151.79 798.642 1152.48 797.966 1153.35 797.489C1154.24 796.996 1155.26 796.749 1156.41 796.749C1158.35 796.749 1159.83 797.457 1160.87 798.872C1161.79 800.176 1162.25 802.069 1162.25 804.55C1162.25 807.445 1161.66 809.656 1160.49 811.182C1159.31 812.693 1157.61 813.449 1155.38 813.449ZM1156.34 804.669C1157.05 804.669 1157.63 804.455 1158.08 804.025C1158.54 803.596 1158.77 803.039 1158.77 802.355C1158.77 801.687 1158.54 801.147 1158.08 800.733C1157.62 800.304 1157.04 800.089 1156.34 800.089C1155.62 800.089 1155.04 800.304 1154.59 800.733C1154.15 801.163 1153.93 801.719 1153.93 802.403C1153.93 803.087 1154.15 803.636 1154.59 804.049C1155.04 804.463 1155.62 804.669 1156.34 804.669Z" fill="#151414"/>
<path d="M1164.74 796.749H1167.96L1174.99 809.083L1182.01 796.749H1185.23V813.449H1181.89V803.739L1176.35 813.449H1173.61L1168.08 803.739V813.449H1164.74V796.749Z" fill="#151414"/>
<path d="M1324.39 735.25H1321.05V723.727L1317.88 726.852L1315.57 724.443L1321.58 718.55H1324.39V735.25Z" fill="#151414"/>
<path d="M1334.01 721.89H1326.66V718.55H1338.04V721.342L1330.76 735.25H1326.99L1334.01 721.89Z" fill="#151414"/>
<path d="M1340.21 718.55H1343.43L1350.47 730.884L1357.48 718.55H1360.7V735.25H1357.36V725.54L1351.83 735.25H1349.08L1343.55 725.54V735.25H1340.21V718.55Z" fill="#151414"/>
<path d="M1487.15 649.259C1487.77 648.162 1488.59 647.287 1489.6 646.635C1490.64 645.983 1491.78 645.657 1493.04 645.657C1494.14 645.657 1495.11 645.879 1495.95 646.325C1496.79 646.77 1497.44 647.398 1497.91 648.209C1498.38 649.005 1498.62 649.927 1498.62 650.977C1498.62 652.694 1497.96 654.189 1496.64 655.462L1492.99 659.016H1498.62V662.356H1487.62V659.684L1494.02 653.482C1494.48 653.036 1494.8 652.639 1494.99 652.289C1495.19 651.939 1495.28 651.565 1495.28 651.168C1495.28 650.516 1495.06 649.991 1494.61 649.593C1494.18 649.195 1493.63 648.997 1492.97 648.997C1492.31 648.997 1491.69 649.203 1491.11 649.617C1490.53 650.03 1490.05 650.595 1489.65 651.311L1487.15 649.259Z" fill="#151414"/>
<path d="M1505.53 662.356C1504.66 662.356 1503.73 662.221 1502.76 661.951C1501.81 661.681 1500.97 661.315 1500.26 660.853L1501.67 657.848C1502.27 658.229 1502.91 658.523 1503.57 658.73C1504.26 658.921 1504.9 659.016 1505.51 659.016C1506.35 659.016 1507.03 658.81 1507.53 658.396C1508.06 657.967 1508.32 657.37 1508.32 656.607C1508.32 655.828 1508.04 655.239 1507.46 654.842C1506.89 654.428 1506.06 654.221 1504.96 654.221C1503.86 654.221 1502.65 654.396 1501.33 654.746V645.657H1511.69V648.997H1504.67V651.001C1504.74 651.001 1504.85 650.985 1505.03 650.953C1505.22 650.921 1505.42 650.905 1505.63 650.905C1507.52 650.905 1509 651.406 1510.06 652.408C1511.14 653.41 1511.69 654.786 1511.69 656.535C1511.69 657.744 1511.42 658.786 1510.9 659.661C1510.39 660.535 1509.67 661.203 1508.73 661.665C1507.81 662.126 1506.74 662.356 1505.53 662.356Z" fill="#151414"/>
<path d="M1514.44 645.657H1517.66L1524.7 657.991L1531.71 645.657H1534.93V662.356H1531.59V652.647L1526.06 662.356H1523.31L1517.78 652.647V662.356H1514.44V645.657Z" fill="#151414"/>
<path d="M1614.97 597.988C1615.48 597.193 1616.22 596.549 1617.19 596.056C1618.18 595.547 1619.26 595.292 1620.44 595.292C1621.55 595.292 1622.54 595.483 1623.4 595.865C1624.25 596.247 1624.91 596.788 1625.38 597.487C1625.85 598.187 1626.09 598.998 1626.09 599.921C1626.09 600.795 1625.88 601.567 1625.45 602.235C1625.02 602.887 1624.45 603.356 1623.75 603.642C1624.47 603.913 1625.03 604.382 1625.45 605.05C1625.88 605.718 1626.09 606.489 1626.09 607.364C1626.09 608.795 1625.57 609.925 1624.54 610.752C1623.52 611.579 1622.15 611.992 1620.44 611.992C1619.24 611.992 1618.15 611.738 1617.17 611.229C1616.18 610.72 1615.44 610.052 1614.95 609.225L1617.24 606.744C1617.56 607.332 1618 607.801 1618.55 608.151C1619.11 608.485 1619.75 608.652 1620.46 608.652C1621.18 608.652 1621.73 608.509 1622.13 608.223C1622.54 607.921 1622.75 607.499 1622.75 606.958C1622.75 606.434 1622.55 606.028 1622.15 605.742C1621.76 605.44 1621.22 605.28 1620.53 605.265H1619.27V601.996H1620.53C1621.22 601.98 1621.76 601.829 1622.15 601.543C1622.55 601.241 1622.75 600.827 1622.75 600.302C1622.75 599.778 1622.54 599.372 1622.13 599.086C1621.72 598.784 1621.16 598.632 1620.46 598.632C1619.76 598.632 1619.13 598.807 1618.58 599.157C1618.02 599.491 1617.57 599.945 1617.24 600.517L1614.97 597.988Z" fill="#151414"/>
<path d="M1636.53 611.992C1635.05 611.992 1633.7 611.642 1632.48 610.942C1631.27 610.243 1630.31 609.257 1629.61 607.984C1628.91 606.712 1628.56 605.265 1628.56 603.642C1628.56 602.02 1628.91 600.573 1629.61 599.3C1630.31 598.028 1631.27 597.042 1632.48 596.342C1633.7 595.642 1635.05 595.292 1636.53 595.292C1638.01 595.292 1639.35 595.642 1640.56 596.342C1641.79 597.042 1642.75 598.028 1643.45 599.3C1644.15 600.573 1644.5 602.02 1644.5 603.642C1644.5 605.265 1644.15 606.712 1643.45 607.984C1642.75 609.257 1641.79 610.243 1640.56 610.942C1639.35 611.642 1638.01 611.992 1636.53 611.992ZM1636.53 608.652C1637.42 608.652 1638.22 608.453 1638.92 608.056C1639.62 607.642 1640.17 607.054 1640.56 606.29C1640.96 605.527 1641.16 604.644 1641.16 603.642C1641.16 602.64 1640.96 601.758 1640.56 600.994C1640.17 600.231 1639.62 599.65 1638.92 599.253C1638.22 598.839 1637.42 598.632 1636.53 598.632C1635.64 598.632 1634.85 598.839 1634.15 599.253C1633.45 599.65 1632.9 600.231 1632.5 600.994C1632.1 601.758 1631.9 602.64 1631.9 603.642C1631.9 604.644 1632.1 605.527 1632.5 606.29C1632.9 607.054 1633.45 607.642 1634.15 608.056C1634.85 608.453 1635.64 608.652 1636.53 608.652Z" fill="#151414"/>
<path d="M1647.32 595.292H1650.54L1657.58 607.626L1664.6 595.292H1667.82V611.992H1664.48V602.282L1658.94 611.992H1656.2L1650.66 602.282V611.992H1647.32V595.292Z" fill="#151414"/>
<path d="M1678.64 602.712H1683.41V606.052H1678.64V610.799H1675.3V606.052H1670.53V602.712H1675.3V597.941H1678.64V602.712Z" fill="#151414"/>
<path d="M249.6 548.35C251.8 548.35 254 548.35 256.2 548.35C256.2 547.4 256.2 546.45 256.2 545.5C250.85 545.5 245.492 545.5 240.125 545.5C240.125 546.45 240.125 547.4 240.125 548.35C242.342 548.35 244.55 548.35 246.75 548.35C246.75 553.233 246.75 558.117 246.75 563C247.7 563 248.65 563 249.6 563C249.6 558.117 249.6 553.233 249.6 548.35Z" fill="#1F1F1F"/>
<path d="M256.533 546.9C256.533 547.417 256.716 547.867 257.083 548.25C257.466 548.617 257.916 548.8 258.433 548.8C258.966 548.8 259.416 548.617 259.783 548.25C260.15 547.867 260.333 547.417 260.333 546.9C260.333 546.367 260.15 545.917 259.783 545.55C259.416 545.183 258.966 545 258.433 545C257.916 545 257.466 545.183 257.083 545.55C256.716 545.917 256.533 546.367 256.533 546.9ZM259.783 550.5C258.883 550.5 257.983 550.5 257.083 550.5C257.083 554.667 257.083 558.833 257.083 563C257.983 563 258.883 563 259.783 563C259.783 558.833 259.783 554.667 259.783 550.5Z" fill="#1F1F1F"/>
<path d="M266.459 557.75C267.709 559.5 268.95 561.25 270.184 563C271.35 563 272.517 563 273.684 563C271.884 560.633 270.084 558.275 268.284 555.925C270.084 554.108 271.884 552.3 273.684 550.5C272.467 550.5 271.242 550.5 270.009 550.5C268.292 552.317 266.575 554.133 264.859 555.95C264.859 552.467 264.859 548.983 264.859 545.5C263.959 545.5 263.059 545.5 262.159 545.5C262.159 551.333 262.159 557.167 262.159 563C263.059 563 263.959 563 264.859 563C264.859 561.783 264.859 560.567 264.859 559.35C265.392 558.817 265.925 558.283 266.459 557.75Z" fill="#1F1F1F"/>
<path d="M282.489 548.35C284.689 548.35 286.889 548.35 289.089 548.35C289.089 547.4 289.089 546.45 289.089 545.5C283.739 545.5 278.38 545.5 273.014 545.5C273.014 546.45 273.014 547.4 273.014 548.35C275.23 548.35 277.439 548.35 279.639 548.35C279.639 553.233 279.639 558.117 279.639 563C280.589 563 281.539 563 282.489 563C282.489 558.117 282.489 553.233 282.489 548.35Z" fill="#1F1F1F"/>
<path d="M288.947 556.75C288.947 557.7 289.113 558.575 289.447 559.375C289.613 559.792 289.813 560.167 290.047 560.5C290.28 560.85 290.547 561.167 290.847 561.45C291.43 562.017 292.13 562.467 292.947 562.8C293.747 563.133 294.622 563.3 295.572 563.3C296.522 563.3 297.405 563.133 298.222 562.8C299.022 562.467 299.722 562.017 300.322 561.45C300.605 561.167 300.863 560.85 301.097 560.5C301.33 560.167 301.53 559.792 301.697 559.375C302.03 558.575 302.197 557.7 302.197 556.75C302.197 555.8 302.03 554.917 301.697 554.1C301.53 553.7 301.33 553.325 301.097 552.975C300.863 552.625 300.605 552.308 300.322 552.025C299.722 551.442 299.022 550.992 298.222 550.675C297.405 550.358 296.522 550.2 295.572 550.2C294.622 550.2 293.747 550.358 292.947 550.675C292.13 550.992 291.43 551.442 290.847 552.025C290.247 552.608 289.78 553.3 289.447 554.1C289.113 554.917 288.947 555.8 288.947 556.75ZM299.422 556.75C299.422 557.033 299.397 557.308 299.347 557.575C299.297 557.858 299.23 558.117 299.147 558.35C299.047 558.583 298.93 558.808 298.797 559.025C298.663 559.225 298.513 559.408 298.347 559.575C297.997 559.925 297.588 560.192 297.122 560.375C296.655 560.575 296.138 560.675 295.572 560.675C295.005 560.675 294.488 560.575 294.022 560.375C293.555 560.192 293.155 559.925 292.822 559.575C292.638 559.408 292.48 559.225 292.347 559.025C292.213 558.808 292.105 558.583 292.022 558.35C291.822 557.867 291.722 557.333 291.722 556.75C291.722 556.167 291.822 555.633 292.022 555.15C292.205 554.667 292.472 554.25 292.822 553.9C293.155 553.567 293.555 553.3 294.022 553.1C294.255 553.017 294.505 552.95 294.772 552.9C295.022 552.85 295.288 552.825 295.572 552.825C295.855 552.825 296.13 552.85 296.397 552.9C296.647 552.95 296.888 553.017 297.122 553.1C297.588 553.3 297.997 553.567 298.347 553.9C298.68 554.25 298.947 554.667 299.147 555.15C299.23 555.383 299.297 555.633 299.347 555.9C299.397 556.183 299.422 556.467 299.422 556.75Z" fill="#1F1F1F"/>
<path d="M307.819 557.75C309.069 559.5 310.311 561.25 311.544 563C312.711 563 313.877 563 315.044 563C313.244 560.633 311.444 558.275 309.644 555.925C311.444 554.108 313.244 552.3 315.044 550.5C313.827 550.5 312.602 550.5 311.369 550.5C309.652 552.317 307.936 554.133 306.219 555.95C306.219 552.467 306.219 548.983 306.219 545.5C305.319 545.5 304.419 545.5 303.519 545.5C303.519 551.333 303.519 557.167 303.519 563C304.419 563 305.319 563 306.219 563C306.219 561.783 306.219 560.567 306.219 559.35C306.752 558.817 307.286 558.283 307.819 557.75Z" fill="#1F1F1F"/>
<path d="M328.777 563C329.577 563 330.368 563 331.152 563C333.918 557.167 336.685 551.333 339.452 545.5C338.402 545.5 337.343 545.5 336.277 545.5C334.177 549.95 332.077 554.408 329.977 558.875C327.86 554.408 325.743 549.95 323.627 545.5C322.577 545.5 321.527 545.5 320.477 545.5C323.243 551.333 326.01 557.167 328.777 563Z" fill="#1F1F1F"/>
<path d="M339.694 546.9C339.694 547.417 339.877 547.867 340.244 548.25C340.627 548.617 341.077 548.8 341.594 548.8C342.127 548.8 342.577 548.617 342.944 548.25C343.311 547.867 343.494 547.417 343.494 546.9C343.494 546.367 343.311 545.917 342.944 545.55C342.577 545.183 342.127 545 341.594 545C341.077 545 340.627 545.183 340.244 545.55C339.877 545.917 339.694 546.367 339.694 546.9ZM342.944 550.5C342.044 550.5 341.144 550.5 340.244 550.5C340.244 554.667 340.244 558.833 340.244 563C341.144 563 342.044 563 342.944 563C342.944 558.833 342.944 554.667 342.944 550.5Z" fill="#1F1F1F"/>
<path d="M344.445 556.8C344.445 557.767 344.603 558.642 344.92 559.425C345.22 560.225 345.653 560.908 346.22 561.475C346.77 562.042 347.453 562.492 348.27 562.825C349.07 563.142 349.97 563.3 350.97 563.3C352.153 563.3 353.153 563.092 353.97 562.675C354.786 562.275 355.453 561.825 355.97 561.325C355.553 560.592 355.128 559.867 354.695 559.15C354.278 559.6 353.753 559.983 353.12 560.3C352.503 560.617 351.778 560.775 350.945 560.775C350.495 560.775 350.061 560.708 349.645 560.575C349.211 560.442 348.828 560.242 348.495 559.975C348.145 559.725 347.861 559.4 347.645 559C347.428 558.6 347.278 558.133 347.195 557.6C347.195 557.583 347.195 557.575 347.195 557.575C350.395 557.575 353.595 557.575 356.795 557.575C356.795 557.308 356.795 557.05 356.795 556.8C356.795 556.317 356.761 555.85 356.695 555.4C356.628 554.967 356.528 554.542 356.395 554.125C356.261 553.725 356.095 553.35 355.895 553C355.711 552.65 355.486 552.333 355.22 552.05C354.953 551.767 354.661 551.508 354.345 551.275C354.028 551.042 353.686 550.842 353.32 550.675C352.936 550.508 352.528 550.392 352.095 550.325C351.661 550.242 351.203 550.2 350.72 550.2C350.236 550.2 349.778 550.242 349.345 550.325C348.911 550.408 348.503 550.533 348.12 550.7C347.336 551.05 346.678 551.525 346.145 552.125C345.595 552.725 345.178 553.425 344.895 554.225C344.595 555.025 344.445 555.883 344.445 556.8ZM353.845 555.525C351.645 555.525 349.436 555.525 347.22 555.525C347.303 555.075 347.436 554.667 347.62 554.3C347.803 553.95 348.036 553.642 348.32 553.375C348.886 552.858 349.67 552.6 350.67 552.6C351.153 552.6 351.586 552.667 351.97 552.8C352.353 552.933 352.678 553.133 352.945 553.4C353.478 553.95 353.778 554.658 353.845 555.525Z" fill="#1F1F1F"/>
<path d="M361.616 563C362.299 563 362.983 563 363.666 563C364.833 560.25 365.991 557.508 367.141 554.775C368.308 557.508 369.474 560.25 370.641 563C371.324 563 372.008 563 372.691 563C374.391 558.833 376.091 554.667 377.791 550.5C376.791 550.5 375.791 550.5 374.791 550.5C373.741 553.3 372.683 556.1 371.616 558.9C370.483 556.1 369.341 553.3 368.191 550.5C367.508 550.5 366.816 550.5 366.116 550.5C364.983 553.3 363.841 556.1 362.691 558.9C361.641 556.1 360.583 553.3 359.516 550.5C358.516 550.5 357.516 550.5 356.516 550.5C358.216 554.667 359.916 558.833 361.616 563Z" fill="#1F1F1F"/>
<path d="M378.15 554.025C378.15 554.708 378.292 555.275 378.575 555.725C378.859 556.192 379.209 556.567 379.625 556.85C379.842 556.983 380.075 557.108 380.325 557.225C380.559 557.325 380.809 557.417 381.075 557.5C381.609 557.667 382.109 557.8 382.575 557.9C383.525 558.1 384.225 558.292 384.675 558.475C385.125 558.675 385.35 559.017 385.35 559.5C385.35 559.983 385.15 560.325 384.75 560.525C384.35 560.742 383.834 560.85 383.2 560.85C382.384 560.85 381.634 560.7 380.95 560.4C380.25 560.117 379.709 559.65 379.325 559C378.709 559.583 378.092 560.175 377.475 560.775C377.742 561.208 378.067 561.592 378.45 561.925C378.834 562.242 379.267 562.5 379.75 562.7C380.734 563.1 381.825 563.3 383.025 563.3C383.775 563.3 384.467 563.217 385.1 563.05C385.717 562.9 386.25 562.658 386.7 562.325C387.134 562.008 387.475 561.6 387.725 561.1C387.975 560.6 388.1 560.008 388.1 559.325C388.1 558.642 387.984 558.075 387.75 557.625C387.5 557.192 387.175 556.833 386.775 556.55C386.375 556.267 385.925 556.042 385.425 555.875C384.909 555.725 384.384 555.592 383.85 555.475C382.867 555.242 382.134 555.042 381.65 554.875C381.15 554.692 380.9 554.367 380.9 553.9C380.9 553.517 381.092 553.217 381.475 553C381.659 552.883 381.875 552.8 382.125 552.75C382.359 552.7 382.634 552.675 382.95 552.675C383.734 552.675 384.409 552.817 384.975 553.1C385.525 553.4 385.95 553.775 386.25 554.225C386.867 553.642 387.475 553.058 388.075 552.475C387.559 551.775 386.9 551.217 386.1 550.8C385.3 550.4 384.3 550.2 383.1 550.2C382.317 550.2 381.625 550.283 381.025 550.45C380.409 550.633 379.884 550.892 379.45 551.225C379.017 551.558 378.692 551.958 378.475 552.425C378.259 552.908 378.15 553.442 378.15 554.025Z" fill="#1F1F1F"/>
<path d="M997.6 548.35C999.8 548.35 1002 548.35 1004.2 548.35C1004.2 547.4 1004.2 546.45 1004.2 545.5C998.85 545.5 993.492 545.5 988.125 545.5C988.125 546.45 988.125 547.4 988.125 548.35C990.342 548.35 992.55 548.35 994.75 548.35C994.75 553.233 994.75 558.117 994.75 563C995.7 563 996.65 563 997.6 563C997.6 558.117 997.6 553.233 997.6 548.35Z" fill="#1F1F1F"/>
<path d="M1004.53 546.9C1004.53 547.417 1004.72 547.867 1005.08 548.25C1005.47 548.617 1005.92 548.8 1006.43 548.8C1006.97 548.8 1007.42 548.617 1007.78 548.25C1008.15 547.867 1008.33 547.417 1008.33 546.9C1008.33 546.367 1008.15 545.917 1007.78 545.55C1007.42 545.183 1006.97 545 1006.43 545C1005.92 545 1005.47 545.183 1005.08 545.55C1004.72 545.917 1004.53 546.367 1004.53 546.9ZM1007.78 550.5C1006.88 550.5 1005.98 550.5 1005.08 550.5C1005.08 554.667 1005.08 558.833 1005.08 563C1005.98 563 1006.88 563 1007.78 563C1007.78 558.833 1007.78 554.667 1007.78 550.5Z" fill="#1F1F1F"/>
<path d="M1014.46 557.75C1015.71 559.5 1016.95 561.25 1018.18 563C1019.35 563 1020.52 563 1021.68 563C1019.88 560.633 1018.08 558.275 1016.28 555.925C1018.08 554.108 1019.88 552.3 1021.68 550.5C1020.47 550.5 1019.24 550.5 1018.01 550.5C1016.29 552.317 1014.58 554.133 1012.86 555.95C1012.86 552.467 1012.86 548.983 1012.86 545.5C1011.96 545.5 1011.06 545.5 1010.16 545.5C1010.16 551.333 1010.16 557.167 1010.16 563C1011.06 563 1011.96 563 1012.86 563C1012.86 561.783 1012.86 560.567 1012.86 559.35C1013.39 558.817 1013.93 558.283 1014.46 557.75Z" fill="#1F1F1F"/>
<path d="M1030.49 548.35C1032.69 548.35 1034.89 548.35 1037.09 548.35C1037.09 547.4 1037.09 546.45 1037.09 545.5C1031.74 545.5 1026.38 545.5 1021.01 545.5C1021.01 546.45 1021.01 547.4 1021.01 548.35C1023.23 548.35 1025.44 548.35 1027.64 548.35C1027.64 553.233 1027.64 558.117 1027.64 563C1028.59 563 1029.54 563 1030.49 563C1030.49 558.117 1030.49 553.233 1030.49 548.35Z" fill="#1F1F1F"/>
<path d="M1036.95 556.75C1036.95 557.7 1037.11 558.575 1037.45 559.375C1037.61 559.792 1037.81 560.167 1038.05 560.5C1038.28 560.85 1038.55 561.167 1038.85 561.45C1039.43 562.017 1040.13 562.467 1040.95 562.8C1041.75 563.133 1042.62 563.3 1043.57 563.3C1044.52 563.3 1045.41 563.133 1046.22 562.8C1047.02 562.467 1047.72 562.017 1048.32 561.45C1048.61 561.167 1048.86 560.85 1049.1 560.5C1049.33 560.167 1049.53 559.792 1049.7 559.375C1050.03 558.575 1050.2 557.7 1050.2 556.75C1050.2 555.8 1050.03 554.917 1049.7 554.1C1049.53 553.7 1049.33 553.325 1049.1 552.975C1048.86 552.625 1048.61 552.308 1048.32 552.025C1047.72 551.442 1047.02 550.992 1046.22 550.675C1045.41 550.358 1044.52 550.2 1043.57 550.2C1042.62 550.2 1041.75 550.358 1040.95 550.675C1040.13 550.992 1039.43 551.442 1038.85 552.025C1038.25 552.608 1037.78 553.3 1037.45 554.1C1037.11 554.917 1036.95 555.8 1036.95 556.75ZM1047.42 556.75C1047.42 557.033 1047.4 557.308 1047.35 557.575C1047.3 557.858 1047.23 558.117 1047.15 558.35C1047.05 558.583 1046.93 558.808 1046.8 559.025C1046.66 559.225 1046.51 559.408 1046.35 559.575C1046 559.925 1045.59 560.192 1045.12 560.375C1044.66 560.575 1044.14 560.675 1043.57 560.675C1043.01 560.675 1042.49 560.575 1042.02 560.375C1041.56 560.192 1041.16 559.925 1040.82 559.575C1040.64 559.408 1040.48 559.225 1040.35 559.025C1040.21 558.808 1040.11 558.583 1040.02 558.35C1039.82 557.867 1039.72 557.333 1039.72 556.75C1039.72 556.167 1039.82 555.633 1040.02 555.15C1040.21 554.667 1040.47 554.25 1040.82 553.9C1041.16 553.567 1041.56 553.3 1042.02 553.1C1042.26 553.017 1042.51 552.95 1042.77 552.9C1043.02 552.85 1043.29 552.825 1043.57 552.825C1043.86 552.825 1044.13 552.85 1044.4 552.9C1044.65 552.95 1044.89 553.017 1045.12 553.1C1045.59 553.3 1046 553.567 1046.35 553.9C1046.68 554.25 1046.95 554.667 1047.15 555.15C1047.23 555.383 1047.3 555.633 1047.35 555.9C1047.4 556.183 1047.42 556.467 1047.42 556.75Z" fill="#1F1F1F"/>
<path d="M1055.82 557.75C1057.07 559.5 1058.31 561.25 1059.54 563C1060.71 563 1061.88 563 1063.04 563C1061.24 560.633 1059.44 558.275 1057.64 555.925C1059.44 554.108 1061.24 552.3 1063.04 550.5C1061.83 550.5 1060.6 550.5 1059.37 550.5C1057.65 552.317 1055.94 554.133 1054.22 555.95C1054.22 552.467 1054.22 548.983 1054.22 545.5C1053.32 545.5 1052.42 545.5 1051.52 545.5C1051.52 551.333 1051.52 557.167 1051.52 563C1052.42 563 1053.32 563 1054.22 563C1054.22 561.783 1054.22 560.567 1054.22 559.35C1054.75 558.817 1055.29 558.283 1055.82 557.75Z" fill="#1F1F1F"/>
<path d="M1074.08 563C1074.78 563 1075.48 563 1076.18 563C1078.03 558.833 1079.88 554.667 1081.73 550.5C1080.71 550.5 1079.69 550.5 1078.65 550.5C1077.49 553.383 1076.31 556.275 1075.13 559.175C1073.96 556.275 1072.79 553.383 1071.6 550.5C1070.59 550.5 1069.56 550.5 1068.53 550.5C1070.38 554.667 1072.23 558.833 1074.08 563Z" fill="#1F1F1F"/>
<path d="M1082.03 546.9C1082.03 547.417 1082.21 547.867 1082.58 548.25C1082.96 548.617 1083.41 548.8 1083.93 548.8C1084.46 548.8 1084.91 548.617 1085.28 548.25C1085.65 547.867 1085.83 547.417 1085.83 546.9C1085.83 546.367 1085.65 545.917 1085.28 545.55C1084.91 545.183 1084.46 545 1083.93 545C1083.41 545 1082.96 545.183 1082.58 545.55C1082.21 545.917 1082.03 546.367 1082.03 546.9ZM1085.28 550.5C1084.38 550.5 1083.48 550.5 1082.58 550.5C1082.58 554.667 1082.58 558.833 1082.58 563C1083.48 563 1084.38 563 1085.28 563C1085.28 558.833 1085.28 554.667 1085.28 550.5Z" fill="#1F1F1F"/>
<path d="M1086.78 556.8C1086.78 557.767 1086.94 558.642 1087.26 559.425C1087.56 560.225 1087.99 560.908 1088.56 561.475C1089.11 562.042 1089.79 562.492 1090.61 562.825C1091.41 563.142 1092.31 563.3 1093.31 563.3C1094.49 563.3 1095.49 563.092 1096.31 562.675C1097.12 562.275 1097.79 561.825 1098.31 561.325C1097.89 560.592 1097.46 559.867 1097.03 559.15C1096.61 559.6 1096.09 559.983 1095.46 560.3C1094.84 560.617 1094.11 560.775 1093.28 560.775C1092.83 560.775 1092.4 560.708 1091.98 560.575C1091.55 560.442 1091.16 560.242 1090.83 559.975C1090.48 559.725 1090.2 559.4 1089.98 559C1089.76 558.6 1089.61 558.133 1089.53 557.6C1089.53 557.583 1089.53 557.575 1089.53 557.575C1092.73 557.575 1095.93 557.575 1099.13 557.575C1099.13 557.308 1099.13 557.05 1099.13 556.8C1099.13 556.317 1099.1 555.85 1099.03 555.4C1098.96 554.967 1098.86 554.542 1098.73 554.125C1098.6 553.725 1098.43 553.35 1098.23 553C1098.05 552.65 1097.82 552.333 1097.56 552.05C1097.29 551.767 1097 551.508 1096.68 551.275C1096.36 551.042 1096.02 550.842 1095.66 550.675C1095.27 550.508 1094.86 550.392 1094.43 550.325C1094 550.242 1093.54 550.2 1093.06 550.2C1092.57 550.2 1092.11 550.242 1091.68 550.325C1091.25 550.408 1090.84 550.533 1090.46 550.7C1089.67 551.05 1089.01 551.525 1088.48 552.125C1087.93 552.725 1087.51 553.425 1087.23 554.225C1086.93 555.025 1086.78 555.883 1086.78 556.8ZM1096.18 555.525C1093.98 555.525 1091.77 555.525 1089.56 555.525C1089.64 555.075 1089.77 554.667 1089.96 554.3C1090.14 553.95 1090.37 553.642 1090.66 553.375C1091.22 552.858 1092.01 552.6 1093.01 552.6C1093.49 552.6 1093.92 552.667 1094.31 552.8C1094.69 552.933 1095.01 553.133 1095.28 553.4C1095.81 553.95 1096.11 554.658 1096.18 555.525Z" fill="#1F1F1F"/>
<path d="M1103.95 563C1104.64 563 1105.32 563 1106 563C1107.17 560.25 1108.33 557.508 1109.48 554.775C1110.64 557.508 1111.81 560.25 1112.98 563C1113.66 563 1114.34 563 1115.03 563C1116.73 558.833 1118.43 554.667 1120.13 550.5C1119.13 550.5 1118.13 550.5 1117.13 550.5C1116.08 553.3 1115.02 556.1 1113.95 558.9C1112.82 556.1 1111.68 553.3 1110.53 550.5C1109.84 550.5 1109.15 550.5 1108.45 550.5C1107.32 553.3 1106.18 556.1 1105.03 558.9C1103.98 556.1 1102.92 553.3 1101.85 550.5C1100.85 550.5 1099.85 550.5 1098.85 550.5C1100.55 554.667 1102.25 558.833 1103.95 563Z" fill="#1F1F1F"/>
<path d="M1120.49 554.025C1120.49 554.708 1120.63 555.275 1120.91 555.725C1121.19 556.192 1121.54 556.567 1121.96 556.85C1122.18 556.983 1122.41 557.108 1122.66 557.225C1122.89 557.325 1123.14 557.417 1123.41 557.5C1123.94 557.667 1124.44 557.8 1124.91 557.9C1125.86 558.1 1126.56 558.292 1127.01 558.475C1127.46 558.675 1127.69 559.017 1127.69 559.5C1127.69 559.983 1127.49 560.325 1127.09 560.525C1126.69 560.742 1126.17 560.85 1125.54 560.85C1124.72 560.85 1123.97 560.7 1123.29 560.4C1122.59 560.117 1122.04 559.65 1121.66 559C1121.04 559.583 1120.43 560.175 1119.81 560.775C1120.08 561.208 1120.4 561.592 1120.79 561.925C1121.17 562.242 1121.6 562.5 1122.09 562.7C1123.07 563.1 1124.16 563.3 1125.36 563.3C1126.11 563.3 1126.8 563.217 1127.44 563.05C1128.05 562.9 1128.59 562.658 1129.04 562.325C1129.47 562.008 1129.81 561.6 1130.06 561.1C1130.31 560.6 1130.44 560.008 1130.44 559.325C1130.44 558.642 1130.32 558.075 1130.09 557.625C1129.84 557.192 1129.51 556.833 1129.11 556.55C1128.71 556.267 1128.26 556.042 1127.76 555.875C1127.24 555.725 1126.72 555.592 1126.19 555.475C1125.2 555.242 1124.47 555.042 1123.99 554.875C1123.49 554.692 1123.24 554.367 1123.24 553.9C1123.24 553.517 1123.43 553.217 1123.81 553C1123.99 552.883 1124.21 552.8 1124.46 552.75C1124.69 552.7 1124.97 552.675 1125.29 552.675C1126.07 552.675 1126.74 552.817 1127.31 553.1C1127.86 553.4 1128.29 553.775 1128.59 554.225C1129.2 553.642 1129.81 553.058 1130.41 552.475C1129.89 551.775 1129.24 551.217 1128.44 550.8C1127.64 550.4 1126.64 550.2 1125.44 550.2C1124.65 550.2 1123.96 550.283 1123.36 550.45C1122.74 550.633 1122.22 550.892 1121.79 551.225C1121.35 551.558 1121.03 551.958 1120.81 552.425C1120.59 552.908 1120.49 553.442 1120.49 554.025Z" fill="#1F1F1F"/>
<path d="M1147.31 556.75C1147.31 557.367 1147.22 557.908 1147.06 558.375C1146.89 558.858 1146.64 559.283 1146.31 559.65C1145.97 560.017 1145.58 560.283 1145.13 560.45C1144.7 560.633 1144.2 560.725 1143.63 560.725C1143.07 560.725 1142.55 560.625 1142.08 560.425C1141.62 560.242 1141.22 559.975 1140.88 559.625C1140.55 559.275 1140.29 558.85 1140.11 558.35C1140.02 558.117 1139.96 557.858 1139.91 557.575C1139.86 557.308 1139.83 557.033 1139.83 556.75C1139.83 556.167 1139.92 555.625 1140.11 555.125C1140.19 554.892 1140.3 554.667 1140.43 554.45C1140.57 554.25 1140.72 554.058 1140.88 553.875C1141.22 553.525 1141.62 553.25 1142.08 553.05C1142.32 552.967 1142.57 552.9 1142.83 552.85C1143.08 552.8 1143.35 552.775 1143.63 552.775C1144.2 552.775 1144.7 552.867 1145.13 553.05C1145.58 553.217 1145.97 553.483 1146.31 553.85C1146.64 554.217 1146.89 554.633 1147.06 555.1C1147.22 555.583 1147.31 556.133 1147.31 556.75ZM1137.06 556.725C1137.06 557.742 1137.21 558.65 1137.51 559.45C1137.79 560.25 1138.2 560.925 1138.73 561.475C1139.27 562.042 1139.9 562.467 1140.63 562.75C1141.37 563.05 1142.17 563.2 1143.06 563.2C1144.01 563.2 1144.85 563.017 1145.58 562.65C1146.3 562.3 1146.86 561.833 1147.26 561.25C1147.26 561.55 1147.26 561.858 1147.26 562.175C1147.26 562.658 1147.21 563.117 1147.11 563.55C1146.99 564 1146.79 564.392 1146.51 564.725C1146.24 565.075 1145.87 565.35 1145.38 565.55C1144.9 565.75 1144.28 565.85 1143.53 565.85C1142.63 565.85 1141.87 565.675 1141.23 565.325C1140.58 564.975 1140.02 564.467 1139.56 563.8C1139.01 564.467 1138.46 565.133 1137.91 565.8C1138.19 566.183 1138.52 566.525 1138.88 566.825C1139.23 567.142 1139.62 567.408 1140.06 567.625C1140.94 568.092 1142.09 568.325 1143.51 568.325C1144.79 568.325 1145.84 568.15 1146.66 567.8C1147.49 567.467 1148.14 567.017 1148.61 566.45C1149.09 565.867 1149.43 565.217 1149.63 564.5C1149.82 563.767 1149.91 563.017 1149.91 562.25C1149.91 558.333 1149.91 554.417 1149.91 550.5C1149.01 550.5 1148.1 550.5 1147.18 550.5C1147.18 551.067 1147.18 551.642 1147.18 552.225C1146.83 551.675 1146.3 551.2 1145.58 550.8C1144.87 550.4 1144.01 550.2 1143.01 550.2C1142.19 550.2 1141.42 550.35 1140.68 550.65C1139.97 550.95 1139.34 551.375 1138.81 551.925C1138.26 552.492 1137.83 553.175 1137.53 553.975C1137.37 554.392 1137.25 554.825 1137.18 555.275C1137.1 555.725 1137.06 556.208 1137.06 556.725Z" fill="#1F1F1F"/>
<path d="M1154.74 552.475C1154.74 551.808 1154.74 551.15 1154.74 550.5C1153.87 550.5 1153 550.5 1152.14 550.5C1152.14 554.667 1152.14 558.833 1152.14 563C1153.04 563 1153.94 563 1154.84 563C1154.84 561.083 1154.84 559.175 1154.84 557.275C1154.84 555.942 1155.1 554.9 1155.61 554.15C1156.13 553.417 1157.01 553.05 1158.26 553.05C1158.51 553.05 1158.75 553.067 1158.99 553.1C1159.1 553.117 1159.21 553.133 1159.31 553.15C1159.41 553.167 1159.52 553.192 1159.64 553.225C1159.64 552.258 1159.64 551.3 1159.64 550.35C1159.24 550.25 1158.83 550.2 1158.41 550.2C1157.53 550.2 1156.8 550.4 1156.21 550.8C1155.61 551.2 1155.12 551.758 1154.74 552.475Z" fill="#1F1F1F"/>
<path d="M1159.74 556.75C1159.74 557.7 1159.9 558.575 1160.24 559.375C1160.4 559.792 1160.6 560.167 1160.84 560.5C1161.07 560.85 1161.34 561.167 1161.64 561.45C1162.22 562.017 1162.92 562.467 1163.74 562.8C1164.54 563.133 1165.41 563.3 1166.36 563.3C1167.31 563.3 1168.19 563.133 1169.01 562.8C1169.81 562.467 1170.51 562.017 1171.11 561.45C1171.39 561.167 1171.65 560.85 1171.89 560.5C1172.12 560.167 1172.32 559.792 1172.49 559.375C1172.82 558.575 1172.99 557.7 1172.99 556.75C1172.99 555.8 1172.82 554.917 1172.49 554.1C1172.32 553.7 1172.12 553.325 1171.89 552.975C1171.65 552.625 1171.39 552.308 1171.11 552.025C1170.51 551.442 1169.81 550.992 1169.01 550.675C1168.19 550.358 1167.31 550.2 1166.36 550.2C1165.41 550.2 1164.54 550.358 1163.74 550.675C1162.92 550.992 1162.22 551.442 1161.64 552.025C1161.04 552.608 1160.57 553.3 1160.24 554.1C1159.9 554.917 1159.74 555.8 1159.74 556.75ZM1170.21 556.75C1170.21 557.033 1170.19 557.308 1170.14 557.575C1170.09 557.858 1170.02 558.117 1169.94 558.35C1169.84 558.583 1169.72 558.808 1169.59 559.025C1169.45 559.225 1169.3 559.408 1169.14 559.575C1168.79 559.925 1168.38 560.192 1167.91 560.375C1167.44 560.575 1166.93 560.675 1166.36 560.675C1165.79 560.675 1165.28 560.575 1164.81 560.375C1164.34 560.192 1163.94 559.925 1163.61 559.575C1163.43 559.408 1163.27 559.225 1163.14 559.025C1163 558.808 1162.89 558.583 1162.81 558.35C1162.61 557.867 1162.51 557.333 1162.51 556.75C1162.51 556.167 1162.61 555.633 1162.81 555.15C1162.99 554.667 1163.26 554.25 1163.61 553.9C1163.94 553.567 1164.34 553.3 1164.81 553.1C1165.04 553.017 1165.29 552.95 1165.56 552.9C1165.81 552.85 1166.08 552.825 1166.36 552.825C1166.64 552.825 1166.92 552.85 1167.19 552.9C1167.44 552.95 1167.68 553.017 1167.91 553.1C1168.38 553.3 1168.79 553.567 1169.14 553.9C1169.47 554.25 1169.74 554.667 1169.94 555.15C1170.02 555.383 1170.09 555.633 1170.14 555.9C1170.19 556.183 1170.21 556.467 1170.21 556.75Z" fill="#1F1F1F"/>
<path d="M1177.91 563C1178.59 563 1179.27 563 1179.96 563C1181.12 560.25 1182.28 557.508 1183.43 554.775C1184.6 557.508 1185.77 560.25 1186.93 563C1187.62 563 1188.3 563 1188.98 563C1190.68 558.833 1192.38 554.667 1194.08 550.5C1193.08 550.5 1192.08 550.5 1191.08 550.5C1190.03 553.3 1188.97 556.1 1187.91 558.9C1186.77 556.1 1185.63 553.3 1184.48 550.5C1183.8 550.5 1183.11 550.5 1182.41 550.5C1181.27 553.3 1180.13 556.1 1178.98 558.9C1177.93 556.1 1176.87 553.3 1175.81 550.5C1174.81 550.5 1173.81 550.5 1172.81 550.5C1174.51 554.667 1176.21 558.833 1177.91 563Z" fill="#1F1F1F"/>
<path d="M1201.89 562.775C1201.89 561.942 1201.89 561.117 1201.89 560.3C1201.49 560.367 1201.16 560.417 1200.89 560.45C1200.76 560.467 1200.61 560.475 1200.44 560.475C1200.29 560.492 1200.13 560.5 1199.97 560.5C1199.48 560.5 1199.14 560.383 1198.94 560.15C1198.73 559.917 1198.62 559.592 1198.62 559.175C1198.62 557.042 1198.62 554.917 1198.62 552.8C1199.72 552.8 1200.82 552.8 1201.92 552.8C1201.92 552.033 1201.92 551.267 1201.92 550.5C1200.82 550.5 1199.72 550.5 1198.62 550.5C1198.62 549.383 1198.62 548.267 1198.62 547.15C1197.72 547.15 1196.82 547.15 1195.92 547.15C1195.92 548.267 1195.92 549.383 1195.92 550.5C1195.13 550.5 1194.34 550.5 1193.54 550.5C1193.54 551.267 1193.54 552.033 1193.54 552.8C1194.34 552.8 1195.13 552.8 1195.92 552.8C1195.92 554.983 1195.92 557.167 1195.92 559.35C1195.92 560.717 1196.23 561.692 1196.84 562.275C1197.44 562.842 1198.32 563.125 1199.47 563.125C1200.28 563.125 1201.09 563.008 1201.89 562.775Z" fill="#1F1F1F"/>
<path d="M1205.94 545.5C1205.04 545.5 1204.14 545.5 1203.24 545.5C1203.24 551.333 1203.24 557.167 1203.24 563C1204.14 563 1205.04 563 1205.94 563C1205.94 561.033 1205.94 559.067 1205.94 557.1C1205.94 556.783 1205.96 556.475 1205.99 556.175C1206.01 555.892 1206.05 555.617 1206.12 555.35C1206.22 554.817 1206.39 554.358 1206.64 553.975C1206.89 553.592 1207.22 553.292 1207.64 553.075C1208.06 552.858 1208.57 552.75 1209.17 552.75C1210 552.75 1210.64 553.017 1211.09 553.55C1211.54 554.067 1211.77 554.817 1211.77 555.8C1211.77 558.2 1211.77 560.6 1211.77 563C1212.68 563 1213.6 563 1214.52 563C1214.52 560.483 1214.52 557.967 1214.52 555.45C1214.52 554.65 1214.42 553.925 1214.24 553.275C1214.07 552.642 1213.8 552.092 1213.42 551.625C1213.05 551.175 1212.57 550.825 1211.99 550.575C1211.42 550.325 1210.75 550.2 1209.97 550.2C1209.07 550.2 1208.28 550.375 1207.62 550.725C1206.95 551.092 1206.39 551.592 1205.94 552.225C1205.94 549.975 1205.94 547.733 1205.94 545.5Z" fill="#1F1F1F"/>
<path d="M274.057 253L261.847 234.464H254.049V253H245.664V201.51H266.26C269.448 201.51 272.316 202.221 274.866 203.643C277.416 205.065 279.402 207.027 280.824 209.528C282.296 212.028 283.031 214.848 283.031 217.987C283.031 221.861 281.952 225.22 279.795 228.064C277.686 230.859 274.842 232.747 271.262 233.728L284.502 253H274.057ZM254.049 226.078H266.26C268.761 226.078 270.772 225.342 272.292 223.871C273.861 222.351 274.646 220.39 274.646 217.987C274.646 215.584 273.861 213.647 272.292 212.176C270.772 210.655 268.761 209.895 266.26 209.895H254.049V226.078Z" fill="#181819"/>
<path d="M283.43 234.758C283.43 231.129 284.191 227.843 285.711 224.901C287.231 221.959 289.389 219.629 292.184 217.913C294.979 216.197 298.216 215.339 301.893 215.339C305.62 215.339 308.832 216.172 311.529 217.84C314.227 219.458 316.262 221.738 317.635 224.68C319.057 227.623 319.768 230.982 319.768 234.758V237.038H291.522V237.112C291.865 240.103 293.091 242.408 295.2 244.026C297.308 245.644 299.76 246.453 302.555 246.453C306.822 246.453 310.5 244.86 313.589 241.672L317.341 248.072C315.624 249.788 313.54 251.186 311.088 252.265C308.636 253.343 305.816 253.883 302.629 253.883C298.755 253.883 295.371 253.098 292.478 251.529C289.585 249.911 287.353 247.655 285.784 244.762C284.215 241.868 283.43 238.534 283.43 234.758ZM311.088 231.006C310.843 228.358 309.911 226.274 308.293 224.754C306.724 223.185 304.541 222.4 301.746 222.4C298.902 222.4 296.622 223.16 294.905 224.68C293.189 226.152 292.086 228.26 291.595 231.006H311.088Z" fill="#181819"/>
<path d="M322.753 226.593C322.753 223.111 324.052 220.365 326.651 218.354C329.299 216.344 332.879 215.339 337.391 215.339C343.864 215.339 348.718 217.594 351.955 222.106L346.585 227.181C345.605 225.71 344.256 224.582 342.54 223.798C340.823 223.013 338.911 222.621 336.802 222.621C334.939 222.621 333.468 222.94 332.389 223.577C331.359 224.215 330.844 225.122 330.844 226.299C330.844 227.132 331.114 227.794 331.653 228.285C332.242 228.726 333.075 229.118 334.154 229.462C335.233 229.805 337.023 230.271 339.524 230.859C342.319 231.546 344.599 232.306 346.365 233.14C348.13 233.924 349.503 235.052 350.484 236.523C351.514 237.945 352.029 239.833 352.029 242.187C352.029 245.963 350.729 248.856 348.13 250.867C345.531 252.878 341.853 253.883 337.096 253.883C333.369 253.883 330.059 253.245 327.166 251.97C324.322 250.646 322.189 248.807 320.767 246.453L326.21 241.231C327.338 242.947 328.858 244.296 330.77 245.277C332.683 246.208 334.988 246.674 337.685 246.674C339.695 246.674 341.24 246.331 342.319 245.644C343.398 244.958 343.937 243.953 343.937 242.628C343.937 241.746 343.668 241.059 343.128 240.569C342.638 240.029 341.853 239.588 340.774 239.245C339.744 238.902 338.077 238.485 335.772 237.994C331.751 237.112 328.564 235.861 326.21 234.243C323.905 232.625 322.753 230.075 322.753 226.593Z" fill="#181819"/>
<path d="M388.186 253H380.535V247.557C379.113 249.666 377.471 251.259 375.607 252.338C373.744 253.368 371.488 253.883 368.84 253.883C364.279 253.883 360.92 252.534 358.762 249.837C356.605 247.091 355.526 243.315 355.526 238.509V216.221H363.691V237.406C363.691 240.348 364.23 242.579 365.309 244.1C366.437 245.571 368.325 246.306 370.973 246.306C374.259 246.306 376.612 245.154 378.035 242.849C379.506 240.544 380.241 237.455 380.241 233.581V216.221H388.186V253Z" fill="#181819"/>
<path d="M403.047 253H394.956V201.51H403.047V253Z" fill="#181819"/>
<path d="M430.565 252.338C428.211 253.025 425.833 253.368 423.43 253.368C419.948 253.368 417.324 252.51 415.559 250.793C413.843 249.028 412.984 246.184 412.984 242.261V222.989H405.997V216.221H412.984V206.365H420.929V216.221H430.638V222.989H420.929V241.746C420.929 243.07 421.223 244.051 421.811 244.688C422.449 245.326 423.479 245.644 424.901 245.644C426.176 245.644 428.064 245.448 430.565 245.056V252.338Z" fill="#181819"/>
<path d="M433.42 226.593C433.42 223.111 434.72 220.365 437.319 218.354C439.967 216.344 443.547 215.339 448.058 215.339C454.531 215.339 459.386 217.594 462.623 222.106L457.253 227.181C456.272 225.71 454.924 224.582 453.207 223.798C451.491 223.013 449.578 222.621 447.47 222.621C445.606 222.621 444.135 222.94 443.056 223.577C442.026 224.215 441.512 225.122 441.512 226.299C441.512 227.132 441.781 227.794 442.321 228.285C442.909 228.726 443.743 229.118 444.822 229.462C445.9 229.805 447.69 230.271 450.191 230.859C452.987 231.546 455.267 232.306 457.032 233.14C458.798 233.924 460.171 235.052 461.151 236.523C462.181 237.945 462.696 239.833 462.696 242.187C462.696 245.963 461.397 248.856 458.798 250.867C456.199 252.878 452.521 253.883 447.764 253.883C444.037 253.883 440.727 253.245 437.834 251.97C434.989 250.646 432.856 248.807 431.434 246.453L436.877 241.231C438.005 242.947 439.525 244.296 441.438 245.277C443.35 246.208 445.655 246.674 448.352 246.674C450.363 246.674 451.908 246.331 452.987 245.644C454.065 244.958 454.605 243.953 454.605 242.628C454.605 241.746 454.335 241.059 453.796 240.569C453.305 240.029 452.521 239.588 451.442 239.245C450.412 238.902 448.745 238.485 446.44 237.994C442.419 237.112 439.231 235.861 436.877 234.243C434.573 232.625 433.42 230.075 433.42 226.593Z" fill="#181819"/>
<path d="M483.695 224.166C484.676 221.272 486.49 219.09 489.138 217.619C491.786 216.099 495.17 215.339 499.289 215.339C509.538 215.339 514.663 220.12 514.663 229.682V253H506.718V247.925C505.443 249.837 503.801 251.308 501.79 252.338C499.779 253.368 497.524 253.883 495.023 253.883C491.345 253.883 488.353 252.804 486.049 250.646C483.744 248.489 482.591 245.718 482.591 242.334C482.591 239.147 483.646 236.548 485.754 234.537C487.863 232.478 490.732 231.276 494.361 230.933L504.585 229.903C505.37 229.854 505.909 229.707 506.203 229.462C506.547 229.167 506.718 228.751 506.718 228.211V227.402C506.718 225.833 506.081 224.631 504.806 223.798C503.531 222.915 501.741 222.474 499.436 222.474C496.886 222.474 494.802 222.989 493.184 224.018C491.566 224.999 490.536 226.397 490.094 228.211L483.695 224.166ZM496.126 237.332C494.459 237.528 493.159 238.043 492.228 238.877C491.296 239.711 490.83 240.79 490.83 242.114C490.83 243.585 491.369 244.762 492.448 245.644C493.527 246.478 494.998 246.895 496.862 246.895C499.657 246.895 501.986 246.061 503.85 244.394C505.762 242.678 506.718 240.593 506.718 238.141V236.008L496.126 237.332Z" fill="#181819"/>
<path d="M517.839 234.684C517.839 230.908 518.648 227.574 520.267 224.68C521.934 221.738 524.239 219.458 527.181 217.84C530.172 216.172 533.556 215.339 537.332 215.339C542.824 215.339 547.36 217.128 550.94 220.708L546.159 226.961C543.315 224.362 540.299 223.062 537.111 223.062C533.826 223.062 531.153 224.141 529.094 226.299C527.034 228.407 526.004 231.178 526.004 234.611C526.004 237.994 527.034 240.765 529.094 242.923C531.153 245.08 533.801 246.159 537.038 246.159C540.52 246.159 543.683 244.811 546.527 242.114L551.087 248.44C549.322 250.205 547.238 251.553 544.835 252.485C542.432 253.417 539.833 253.883 537.038 253.883C533.262 253.883 529.927 253.074 527.034 251.455C524.141 249.837 521.885 247.581 520.267 244.688C518.648 241.795 517.839 238.46 517.839 234.684Z" fill="#181819"/>
<path d="M562.328 221.812C565.025 217.496 568.973 215.339 574.171 215.339C578.486 215.339 581.797 216.687 584.101 219.384C586.406 222.032 587.559 225.833 587.559 230.786V253H579.467V231.816C579.467 228.971 578.805 226.765 577.481 225.195C576.157 223.626 574.269 222.841 571.817 222.841C565.491 222.841 562.328 227.108 562.328 235.641V253H554.384V201.51H562.328V221.812Z" fill="#181819"/>
<path d="M602.776 253H594.831V216.221H602.776V253ZM598.73 211.219C597.112 211.219 595.763 210.704 594.684 209.675C593.655 208.596 593.14 207.247 593.14 205.629C593.14 204.011 593.655 202.687 594.684 201.657C595.763 200.578 597.112 200.039 598.73 200.039C600.348 200.039 601.672 200.578 602.702 201.657C603.781 202.687 604.32 204.011 604.32 205.629C604.32 207.247 603.781 208.596 602.702 209.675C601.672 210.704 600.348 211.219 598.73 211.219Z" fill="#181819"/>
<path d="M606.461 234.758C606.461 231.129 607.221 227.843 608.741 224.901C610.261 221.959 612.419 219.629 615.214 217.913C618.009 216.197 621.246 215.339 624.924 215.339C628.651 215.339 631.863 216.172 634.56 217.84C637.257 219.458 639.292 221.738 640.665 224.68C642.087 227.623 642.798 230.982 642.798 234.758V237.038H614.552V237.112C614.895 240.103 616.121 242.408 618.23 244.026C620.339 245.644 622.791 246.453 625.586 246.453C629.852 246.453 633.53 244.86 636.62 241.672L640.371 248.072C638.655 249.788 636.571 251.186 634.119 252.265C631.667 253.343 628.847 253.883 625.659 253.883C621.785 253.883 618.402 253.098 615.508 251.529C612.615 249.911 610.384 247.655 608.815 244.762C607.245 241.868 606.461 238.534 606.461 234.758ZM634.119 231.006C633.873 228.358 632.942 226.274 631.323 224.754C629.754 223.185 627.572 222.4 624.777 222.4C621.933 222.4 619.652 223.16 617.936 224.68C616.22 226.152 615.116 228.26 614.626 231.006H634.119Z" fill="#181819"/>
<path d="M640.675 216.221H649.723L660.095 241.746L670.466 216.221H679.514L663.184 253H657.005L640.675 216.221Z" fill="#181819"/>
<path d="M677.347 234.758C677.347 231.129 678.107 227.843 679.627 224.901C681.147 221.959 683.305 219.629 686.1 217.913C688.895 216.197 692.132 215.339 695.81 215.339C699.537 215.339 702.749 216.172 705.446 217.84C708.143 219.458 710.178 221.738 711.551 224.68C712.973 227.623 713.684 230.982 713.684 234.758V237.038H685.438V237.112C685.781 240.103 687.007 242.408 689.116 244.026C691.225 245.644 693.676 246.453 696.472 246.453C700.738 246.453 704.416 244.86 707.505 241.672L711.257 248.072C709.54 249.788 707.456 251.186 705.004 252.265C702.552 253.343 699.733 253.883 696.545 253.883C692.671 253.883 689.288 253.098 686.394 251.529C683.501 249.911 681.27 247.655 679.701 244.762C678.131 241.868 677.347 238.534 677.347 234.758ZM705.004 231.006C704.759 228.358 703.827 226.274 702.209 224.754C700.64 223.185 698.458 222.4 695.663 222.4C692.818 222.4 690.538 223.16 688.822 224.68C687.105 226.152 686.002 228.26 685.512 231.006H705.004Z" fill="#181819"/>
<path d="M752.933 253H744.915V247.778C743.493 249.739 741.703 251.259 739.545 252.338C737.388 253.368 734.985 253.883 732.337 253.883C729.002 253.883 726.011 253.074 723.363 251.455C720.764 249.837 718.728 247.581 717.257 244.688C715.835 241.746 715.124 238.387 715.124 234.611C715.124 230.835 715.835 227.5 717.257 224.607C718.728 221.665 720.764 219.384 723.363 217.766C725.962 216.148 728.928 215.339 732.263 215.339C737.461 215.339 741.678 217.398 744.915 221.517V201.51H752.933V253ZM734.323 222.915C731.037 222.915 728.365 223.994 726.305 226.152C724.294 228.309 723.289 231.129 723.289 234.611C723.289 238.092 724.294 240.912 726.305 243.07C728.365 245.228 731.037 246.306 734.323 246.306C737.608 246.306 740.256 245.252 742.267 243.143C744.278 240.986 745.283 238.141 745.283 234.611C745.283 231.08 744.278 228.26 742.267 226.152C740.256 223.994 737.608 222.915 734.323 222.915Z" fill="#181819"/>
<path d="M257.139 336H249.195V305.989H241.103V299.221H249.195V297.235C249.195 292.626 250.323 289.217 252.578 287.011C254.834 284.755 257.899 283.627 261.773 283.627C263.195 283.627 265.328 283.823 268.173 284.215V291.571C265.966 291.179 264.249 290.983 263.023 290.983C260.915 290.983 259.395 291.522 258.463 292.601C257.58 293.631 257.139 295.347 257.139 297.75V299.221H267.731V305.989H257.139V336Z" fill="#181819"/>
<path d="M265.903 317.611C265.903 313.933 266.737 310.623 268.404 307.68C270.12 304.738 272.45 302.458 275.392 300.84C278.383 299.172 281.718 298.339 285.396 298.339C289.074 298.339 292.384 299.172 295.326 300.84C298.317 302.458 300.647 304.738 302.314 307.68C304.03 310.623 304.889 313.933 304.889 317.611C304.889 321.289 304.03 324.599 302.314 327.541C300.647 330.483 298.317 332.788 295.326 334.455C292.384 336.074 289.074 336.883 285.396 336.883C281.718 336.883 278.383 336.074 275.392 334.455C272.45 332.788 270.12 330.483 268.404 327.541C266.737 324.599 265.903 321.289 265.903 317.611ZM296.724 317.611C296.724 314.178 295.669 311.407 293.561 309.299C291.452 307.141 288.73 306.062 285.396 306.062C282.061 306.062 279.34 307.141 277.231 309.299C275.122 311.407 274.068 314.178 274.068 317.611C274.068 321.043 275.122 323.839 277.231 325.996C279.34 328.105 282.061 329.159 285.396 329.159C288.73 329.159 291.452 328.105 293.561 325.996C295.669 323.839 296.724 321.043 296.724 317.611Z" fill="#181819"/>
<path d="M316.563 305.032C318.917 300.57 322.521 298.339 327.376 298.339C328.602 298.339 329.803 298.486 330.98 298.78V307.239C329.509 306.896 328.16 306.724 326.934 306.724C323.404 306.724 320.829 307.778 319.211 309.887C317.642 311.996 316.857 315.085 316.857 319.155V336H308.913V299.221H316.563V305.032Z" fill="#181819"/>
<path d="M365.747 337.03C375.531 337.03 383.916 329.821 383.916 320.112C383.916 315.404 381.342 311.505 374.721 306.136L371.411 303.488C366.851 299.883 363.908 297.162 363.908 293.41C363.908 288.555 367.807 285.319 372.588 285.319C379.797 285.319 383.328 291.203 383.254 299.883H384.505L387.815 287.084C384.505 285.687 378.914 283.48 372.735 283.48C364.718 283.48 355.891 289.291 355.891 298.78C355.891 303.635 358.833 307.239 364.35 311.726L367.954 314.595C372.735 318.493 375.604 321.289 375.604 325.849C375.604 331.292 371.926 335.191 366.042 335.191C356.847 335.191 353.095 327.615 353.243 317.611H351.992L348.167 332.322C351.698 334.235 357.95 337.03 365.747 337.03Z" fill="#181819"/>
<path d="M413.931 300.03C407.679 300.03 403.339 306.136 399.808 314.153H399.587L402.897 300.104H402.456L388.112 303.193L387.744 304.591C391.79 305.474 391.717 306.209 391.055 309.225L382.669 345.342C382.007 348.211 380.904 349.02 378.255 349.461L377.299 349.608L377.005 350.932H395.321L395.615 349.608L394.585 349.461C392.452 349.167 391.643 348.358 392.379 345.342L394.585 335.927C396.13 336.589 397.822 336.883 399.587 336.883C411.43 336.883 422.684 324.378 422.684 310.77C422.684 303.855 418.565 300.03 413.931 300.03ZM399.367 335.265C397.454 335.265 396.13 334.308 395.321 332.837L396.277 328.791C398.852 317.684 405.178 305.327 409.297 305.327C411.283 305.327 412.386 307.313 412.386 310.476C412.386 319.376 407.458 335.265 399.367 335.265Z" fill="#181819"/>
<path d="M435.993 296.72C439.009 296.72 441.216 294.293 441.216 291.645C441.216 288.997 438.935 286.569 435.993 286.569C433.124 286.569 430.77 288.997 430.77 291.645C430.77 294.293 433.124 296.72 435.993 296.72ZM428.784 336.809C432.315 336.809 435.699 334.676 439.524 328.203L438.347 327.467C436.214 330.63 434.816 332.028 433.492 332.028C432.242 332.028 432.389 330.557 433.051 327.762L439.524 300.03H439.082L424.739 303.193L424.518 304.15C427.975 304.665 428.417 305.989 427.681 309.004L423.635 326.291C422.091 332.837 424.077 336.809 428.784 336.809Z" fill="#181819"/>
<path d="M468.683 331.366C467.139 331.366 466.624 329.748 464.638 324.525L459.047 310.034C460.739 307.754 461.99 306.871 463.755 306.871C466.403 306.871 467.727 308.71 470.375 308.71C472.729 308.71 474.789 306.724 475.819 302.826C474.715 301.354 472.582 300.104 469.64 300.104C462.652 300.104 456.399 309.593 451.177 320.553H450.882L459.709 282.229H459.268L444.924 285.392L444.704 286.349C448.161 286.864 448.529 288.188 447.867 291.203L437.495 336H447.278C448.97 328.571 451.03 323.422 453.016 319.67L456.473 329.159C458.532 334.897 460.151 336.809 463.387 336.809C466.33 336.809 470.228 334.897 474.127 328.203L472.95 327.467C471.332 329.821 470.007 331.366 468.683 331.366Z" fill="#181819"/>
<path d="M488.686 331.219C485.009 331.219 482.066 327.835 482.066 321.289C482.066 320.627 482.066 319.891 482.14 319.229C491.114 318.42 501.265 314.963 501.265 307.018C501.265 302.826 497.293 299.883 492.217 299.883C480.889 299.883 472.136 312.094 472.136 323.348C472.136 330.925 477.359 336.956 484.641 336.956C489.422 336.956 494.939 334.088 499.426 325.555L498.249 324.819C495.012 329.306 492.07 331.219 488.686 331.219ZM491.482 301.575C493.173 301.575 494.056 302.899 494.056 305.106C494.056 312.682 489.201 316.287 482.287 317.39C483.317 309.446 487.142 301.575 491.482 301.575Z" fill="#181819"/>
<path d="M526.793 300.03C520.54 300.03 516.2 306.136 512.67 314.153H512.449L519.952 282.082H519.51L505.167 285.245L504.872 286.569C508.845 287.378 508.771 288.482 508.109 291.277L499.503 328.35C500.9 332.911 505.976 336.883 512.449 336.883C524.292 336.883 535.546 324.378 535.546 310.77C535.546 303.855 531.427 300.03 526.793 300.03ZM512.228 335.265C510.389 335.265 509.139 334.382 508.256 332.984L509.359 328.129C511.64 317.831 518.039 305.327 522.085 305.327C524.145 305.327 525.248 307.313 525.248 310.476C525.248 319.376 520.246 335.265 512.228 335.265Z" fill="#181819"/>
<path d="M570.589 327.467C568.382 330.63 566.984 332.028 565.66 332.028C564.41 332.028 564.557 330.557 565.219 327.762L571.618 300.03H571.177L563.821 302.09C562.129 300.913 559.555 300.03 557.054 300.03C545.138 300.03 534.177 312.609 534.177 326.143C534.177 333.058 538.15 336.883 542.637 336.883C548.815 336.883 553.008 330.778 556.465 322.76H556.686L555.877 326.291C554.259 332.911 556.171 336.809 560.953 336.809C564.557 336.809 567.867 334.676 571.692 328.203L570.589 327.467ZM547.344 331.587C545.432 331.587 544.476 329.601 544.476 326.438C544.476 317.464 549.33 301.649 557.201 301.649C558.819 301.649 560.291 302.605 561.1 304.15L559.996 308.857C557.569 319.008 551.316 331.587 547.344 331.587Z" fill="#181819"/>
<path d="M576.708 336.809C580.312 336.809 583.622 334.676 587.447 328.203L586.344 327.467C584.137 330.63 582.739 332.028 581.415 332.028C580.165 332.028 580.312 330.557 580.974 327.762L591.566 282.082H591.125L576.928 285.245L576.634 286.202C580.091 286.643 580.459 287.967 579.723 290.983L571.558 326.291C570.087 332.837 572 336.809 576.708 336.809Z" fill="#181819"/>
<path d="M592.935 336.809C596.539 336.809 599.849 334.676 603.674 328.203L602.571 327.467C600.364 330.63 598.967 332.028 597.643 332.028C596.392 332.028 596.539 330.557 597.201 327.762L607.794 282.082H607.352L593.156 285.245L592.861 286.202C596.319 286.643 596.686 287.967 595.951 290.983L587.786 326.291C586.315 332.837 588.227 336.809 592.935 336.809Z" fill="#181819"/>
</g>
<defs>
<clipPath id="clip0">
<rect width="1920" height="1089" fill="white"/>
</clipPath>
</defs>
</svg>
